<?xml version="1.0" encoding="UTF-8" standalone="no"?>
<svg
   viewBox="0 0 606.74225 187.9064"
   version="1.1"
   id="svg156"
   sodipodi:docname="quickfix-house-tools-mark-inline.svg"
   width="606.74225"
   height="187.9064"
   inkscape:version="1.4.3 (0d15f750, 2025-12-25)"
   xmlns:inkscape="http://www.inkscape.org/namespaces/inkscape"
   xmlns:sodipodi="http://sodipodi.sourceforge.net/DTD/sodipodi-0.dtd"
   xmlns="http://www.w3.org/2000/svg"
   xmlns:svg="http://www.w3.org/2000/svg">
  <sodipodi:namedview
     id="namedview156"
     pagecolor="#ffffff"
     bordercolor="#000000"
     borderopacity="0.25"
     inkscape:showpageshadow="2"
     inkscape:pageopacity="0.0"
     inkscape:pagecheckerboard="0"
     inkscape:deskcolor="#d1d1d1"
     inkscape:zoom="0.7027027"
     inkscape:cx="213.46154"
     inkscape:cy="17.076923"
     inkscape:window-width="1792"
     inkscape:window-height="989"
     inkscape:window-x="0"
     inkscape:window-y="30"
     inkscape:window-maximized="1"
     inkscape:current-layer="svg156" />
  <!-- Inline: trims ~top 154px empty canvas (art starts ~164). Wordmark shifted left (-X) inside 612 slab + lower Y. -->
  <defs
     id="defs2">
    <clipPath
       id="qf-inline-crest-zone"
       clipPathUnits="userSpaceOnUse">
      <rect
         x="0"
         y="0"
         width="612"
         height="378"
         id="rect1" />
    </clipPath>
    <clipPath
       id="qf-inline-text-zone"
       clipPathUnits="userSpaceOnUse">
      <rect
         x="0"
         y="378"
         width="612"
         height="234"
         id="rect2" />
    </clipPath>
  </defs>
  <!-- Crest (graphic): raised by trimming source top padding (~154) -->
  <g
     transform="matrix(0.88,0,0,0.88,-61.30324,-137.4868)"
     id="g79">
    <g
       clip-path="url(#qf-inline-crest-zone)"
       id="g78">
      <path
         fill="#0167a2"
         d="m 318.25,170.42 q 1.37,-0.88 3.42,-0.27 a 0.75,0.75 0 0 1 0.53,0.72 v 9.8 a 2.05,2.05 0 0 1 -0.89,1.69 l -18.16,12.36 a 0.97,0.97 0 0 0 -0.41,0.79 v 1.43 a 0.73,0.72 0 0 1 -0.73,0.72 h -0.65 a 0.73,0.73 0 0 1 -0.73,-0.73 v -2.34 a 1.38,1.36 -17.4 0 1 0.6,-1.13 l 18.32,-12.48 a 1.3,1.27 73.3 0 0 0.56,-1.07 v -7.03 a 0.78,0.76 -80.4 0 0 -0.51,-0.73 l -1.36,-0.48 a 0.35,0.35 0 0 0 -0.46,0.33 v 4.95 a 0.41,0.4 0 0 1 -0.41,0.4 h -41.46 a 0.66,0.65 0 0 1 -0.66,-0.65 v -11.78 a 0.45,0.45 0 0 1 0.45,-0.45 h 41.57 a 0.58,0.57 90 0 1 0.57,0.58 v 5.15 a 0.27,0.26 -16.4 0 0 0.41,0.22 z"
         id="path2" />
      <path
         fill="#0167a2"
         d="m 459.43,359.7 a 0.19,0.19 0 0 1 0.16,0.21 l -0.03,0.31 a 0.24,0.24 0 0 1 -0.25,0.21 q -22.85,-0.26 -313.55,-0.1 -12.14,0.01 -13.37,-0.2 3.23,-0.73 5.45,-1.01 12.59,-1.61 24.72,-2.7 a 0.59,0.59 0 0 0 0.53,-0.55 l 0.8,-11.12 a 0.47,0.47 0 0 0 -0.66,-0.47 l -0.41,0.18 a 1.13,1.11 -41.1 0 1 -1.02,-0.06 q -11.86,-6.98 -13.52,-7.93 -2.96,-1.7 -3.18,-2.7 a 0.48,0.47 10.3 0 0 -0.23,-0.32 l -28.2,-16.49 a 2.34,2.27 -3.4 0 1 -0.65,-0.56 c -2.21,-2.76 -4.07,-4.35 -3.21,-7.84 0.85,-3.49 4.11,-4.75 7.44,-4 q 0.97,0.22 2.38,0.33 a 2.56,2.49 61.7 0 1 1.14,0.36 l 26.93,15.86 a 1.02,0.9 82.1 0 1 0.28,0.24 l 0.53,0.71 a 0.54,0.54 0 0 0 0.7,0.14 l 1.47,-0.86 a 0.74,0.72 81.7 0 0 0.35,-0.48 l 1.28,-6.06 a 0.72,0.71 -78.1 0 1 0.84,-0.55 l 8.8,1.87 a 0.85,0.85 0 0 1 0.65,1.01 l -0.17,0.82 a 0.78,0.78 0 0 1 -0.92,0.6 l -6.5,-1.38 a 0.71,0.7 -77.8 0 0 -0.84,0.55 l -0.41,1.91 a 0.53,0.52 -84.7 0 0 0.52,0.63 c 4.32,-0.07 6.24,3.31 9.84,3.68 a 0.44,0.43 -76.5 0 0 0.46,-0.29 l 6.19,-17.57 a 1.04,1.02 28.7 0 0 -0.35,-1.16 l -37.11,-28.53 a 0.46,0.46 0 0 1 -0.09,-0.65 l 5.31,-6.9 a 0.51,0.51 0 0 1 0.69,-0.11 l 36.87,25.68 a 0.49,0.49 0 0 0 0.7,-0.17 q 8.54,-15.39 21.13,-28.32 1.01,-1.04 6.3,-6.25 a 0.64,0.63 49.4 0 0 0.06,-0.84 l -8.2,-10.92 a 1.72,1.72 0 0 0 -2.33,-0.39 q -2.36,1.6 -5.78,4.22 -0.58,0.44 -0.55,0.83 0.02,0.26 0.2,0.65 0.17,0.35 -0.05,0.6 -1.25,1.48 -2.79,0.65 a 0.76,0.75 41.6 0 0 -0.77,0.04 l -3.01,2.05 a 1.59,1.56 -12.9 0 0 -0.66,1.03 q -0.95,5.84 -6.73,4.96 a 1.59,1.58 -56.4 0 0 -1.08,0.22 c -1.34,0.82 -3.08,2.08 -2.24,3.91 q 0.7,1.55 2.16,2.22 a 0.65,0.65 0 0 1 0.12,1.11 l -3.22,2.42 a 0.49,0.49 0 0 1 -0.74,-0.2 c -1.59,-3.62 -4.43,-6.27 -1.44,-10.37 0.83,-1.13 3.84,-2.26 3.67,-3.84 q -0.3,-2.74 -2.32,-3.24 a 0.46,0.46 0 0 1 -0.2,-0.78 q 0.99,-0.92 0.56,-2.88 a 1.17,1.17 0 0 0 -1.94,-0.6 l -1.89,1.78 a 1.91,1.91 0 0 1 -2.87,-0.3 l -0.14,-0.2 a 1.57,1.57 0 0 1 0.34,-2.2 l 8.81,-6.49 a 1.88,1.88 0 0 1 2.57,0.32 l 0.08,0.1 a 1.82,1.82 0 0 1 -0.44,2.62 q -1.47,0.98 -2.52,1.62 a 1.5,1.3 17.7 0 0 1.45,2.37 q 0.55,-0.16 1.39,0.03 a 0.73,0.71 -2.8 0 1 0.52,0.46 q 0.68,1.92 2.76,3.15 a 0.98,0.97 -46.2 0 0 1.05,-0.03 l 3.16,-2.16 a 1.48,1.47 -12.7 0 0 0.63,-0.99 q 0.21,-1.27 0.97,-2.39 a 0.6,0.6 0 0 1 0.83,-0.15 q 0.5,0.35 0.97,0.45 a 1.32,1.3 32.2 0 0 1.05,-0.23 c 4.3,-3.24 10.12,-8.79 14.65,-1.84 q 2.31,3.54 7.01,9.76 a 0.6,0.59 -37.3 0 0 0.84,0.11 l 11.03,-8.28 a 0.65,0.65 0 0 0 0.2,-0.8 c -2.79,-5.86 -5.19,-10.96 -12.36,-8.09 a 0.18,0.17 -72.7 0 1 -0.16,-0.31 l 13.42,-9.14 a 0.20180436,0.20180436 0 0 1 0.27,0.3 c -4.46,5.26 0.21,10.21 3.23,14.36 a 0.82,0.81 56.7 0 0 1.08,0.23 q 10.76,-6.44 22.56,-10.78 a 0.38,0.38 0 0 0 0.2,-0.55 L 241.71,218 a 1.28,1.27 82.8 0 0 -0.76,-0.59 q -3.73,-1.08 -4.6,-1.71 -4.19,-3.04 -2.87,-7.95 a 0.52,0.51 37.5 0 1 0.94,-0.12 l 1.88,3.2 a 1.2,1.19 -11.5 0 0 0.9,0.59 q 3.83,0.45 4.9,-2.96 a 1.07,1.03 39.4 0 0 -0.1,-0.85 l -2.63,-4.51 a 0.47,0.46 -4.7 0 1 0.57,-0.67 q 4.81,1.83 6.12,6.45 c 0.52,1.85 -0.25,3.92 -0.46,5.85 a 1.44,1.41 33.4 0 0 0.18,0.83 l 9.26,15.84 a 0.74,0.74 0 0 0 0.81,0.34 l 15.17,-3.79 a 0.73,0.72 -7.2 0 0 0.55,-0.7 q -0.01,-1.46 -0.96,-4.72 c -0.62,-2.13 -3.52,-2.33 -3.95,-5.48 a 0.61,0.61 0 0 1 0.45,-0.67 l 1.01,-0.25 a 0.5,0.5 0 0 0 0.34,-0.69 l -7.92,-18.17 a 2.38,2.3 11.1 0 0 -0.55,-0.79 q -1.66,-1.55 -3.03,-4.99 a 0.72,0.71 -22.9 0 1 0.38,-0.92 l 2.26,-0.99 a 0.69,0.69 0 0 1 0.89,0.33 q 1.28,2.56 1.53,4.44 0.27,2.03 1.27,4.29 5.72,12.88 6.83,15.76 a 0.67,0.67 0 0 0 0.89,0.37 l 1.05,-0.45 a 0.79,0.79 0 0 1 1.02,0.36 q 1.01,1.95 0.68,4.27 c -0.33,2.38 3.07,6.05 4.61,7.49 a 0.73,0.73 0 0 0 0.57,0.2 l 17.88,-1.26 a 0.64,0.64 0 0 0 0.6,-0.64 v -23.91 a 0.85,0.82 25.3 0 0 -0.21,-0.55 l -1.14,-1.32 a 0.55,0.54 69.6 0 1 0.41,-0.9 h 9.74 a 0.63,0.63 0 0 1 0.31,1.17 c -1.28,0.73 -1.57,1.42 -1.59,2.93 q -0.21,20.33 -0.3,23.1 a 0.67,0.66 -86.9 0 0 0.61,0.69 q 12.08,0.88 22.2,3.32 a 0.92,0.9 23.6 0 0 0.97,-0.37 c 0.85,-1.27 2,-3.92 3.4,-4.95 q 0.63,-0.47 0.58,-1.07 a 3,2.96 -58.6 0 0 -0.16,-0.68 c -0.42,-1.05 -2.21,-2.42 -2.39,-4.03 q -0.38,-3.27 2.72,-5.13 a 0.18,0.17 61.1 0 0 0.06,-0.23 v -0.01 a 0.17,0.17 0 0 0 -0.24,-0.06 q -2,1.22 -2.13,2.05 a 0.94,0.94 0 0 1 -1.77,0.26 c -2.22,-4.48 0.54,-8.33 4.07,-11.75 q 10.09,-9.74 18.51,-16.47 a 1.02,1.02 0 0 1 1.57,1.22 l -9.51,21 a 5.67,5.63 77.7 0 1 -0.81,1.27 q -3.43,4.02 -8.57,5.57 -0.32,0.09 -0.66,-0.14 a 0.57,0.56 36.7 0 0 -0.77,0.11 c -1.67,2.11 0.21,3.66 1.39,5.06 a 2.44,2.31 18.1 0 1 0.47,0.87 q 0.37,1.27 0.16,2.93 a 0.81,0.81 0 0 0 0.25,0.71 q 0.54,0.5 0.26,1.09 -1.06,2.19 -1.4,3.69 a 0.58,0.58 0 0 0 0.37,0.67 l 12.72,4.48 a 1.1,1.04 -37.9 0 0 0.52,0.05 l 5.48,-0.88 a 4.33,4.21 41.4 0 1 1.05,-0.05 q 0.21,0.01 2.88,1.3 3.5,1.67 5.26,-1.74 2.18,-4.22 3.16,-5.66 a 1.11,1.1 55.4 0 0 0.16,-0.87 l -0.59,-2.34 a 0.82,0.82 0 0 1 0.25,-0.81 l 2.28,-1.97 a 1.05,1.05 0 0 0 0.23,-1.31 c -1.18,-2.11 -2.53,-4.9 -4.9,-7.01 q -3.29,-2.93 -3.34,-7.99 a 0.42,0.42 0 0 1 0.62,-0.38 c 1.46,0.77 2.96,0 4.62,0.93 q 2.23,1.25 4.04,3.49 a 3.8,3.71 -4.1 0 0 1.02,0.86 l 4.44,2.57 a 0.11,0.09 77.6 0 1 0.05,0.04 l 9.15,8.29 a 1.64,1.58 -88.9 0 1 0.25,0.27 l 4.62,6.15 a 1.29,1.26 31.1 0 1 0.24,0.93 c -0.61,4.39 -4.67,7.25 -8.75,5.54 -1.77,-0.74 -3.01,-2.07 -4.74,-3.66 a 1.57,1.56 36.1 0 0 -2.42,0.38 q -3.22,5.64 -7.35,9.66 a 2.22,2.22 0 0 0 0.29,3.41 l 16.31,11.36 a 0.55,0.55 0 0 0 0.74,-0.1 q 12.16,-14.64 15.78,-18.93 0.47,-0.57 0.08,-1.29 a 0.38,0.38 0 0 1 0.56,-0.48 l 1.9,1.46 a 0.4,0.4 0 0 1 -0.33,0.71 l -0.59,-0.12 a 0.62,0.62 0 0 0 -0.61,0.21 l -16,19.2 a 0.54,0.53 -48 0 0 0.03,0.72 l 7.76,7.76 a 0.85,0.85 0 0 0 1.04,0.13 q 9.81,-5.83 20.81,-12.57 a 0.55,0.53 -20.4 0 1 0.83,0.36 q 0.06,0.41 0.35,0.41 a 0.18,0.18 0 0 0 0.13,-0.31 q -0.69,-0.72 -0.71,-1.3 a 0.98,0.98 0 0 1 0.45,-0.86 q 3.25,-2.12 5.86,-3.57 0.48,-0.27 0.63,-0.12 0.19,0.21 0.28,0.19 a 0.36,0.36 0 0 0 0.26,-0.54 l -3.37,-5.47 a 0.93,0.93 0 0 1 0.14,-1.15 c 7.6,-7.51 17.8,-11.39 27.74,-6.25 a 0.73,0.71 13.5 0 1 0.39,0.62 c 0.17,11.32 -8.12,18.88 -18.44,21.8 A 0.96,0.95 66.4 0 1 425.99,256 l -3.08,-5.27 a 0.34,0.34 0 0 0 -0.55,-0.05 q -0.78,0.92 -5.46,3.72 -1.46,0.87 -1.95,0.31 a 0.31,0.3 -36.3 0 0 -0.37,-0.05 l -20.63,12.06 a 0.9,0.9 0 0 0 -0.2,1.4 q 10.96,11.5 18.54,25.32 a 0.73,0.73 0 0 0 1.01,0.28 l 80.86,-47.28 a 0.54,0.53 -35.4 0 1 0.68,0.11 l 4.67,5.39 a 0.79,0.79 0 0 1 -0.08,1.11 l -62.71,54.27 a 0.9,0.88 43 0 1 -1.12,0.03 l -7.93,-6.1 a 2.89,2.88 -24.2 0 0 -1.56,-0.59 l -9.79,-0.7 a 0.16,0.16 0 0 0 -0.17,0.14 l -0.03,0.29 a 0.4,0.39 5.5 0 0 0.37,0.44 l 9.21,0.66 a 3.13,3.12 65.9 0 1 1.67,0.64 l 7.62,5.86 a 0.5,0.49 43 0 1 0.03,0.77 l -11.08,9.59 a 0.84,0.84 0 0 0 -0.27,0.85 l 2.73,10.93 a 0.36,0.36 0 0 0 0.48,0.25 l 27.11,-10.08 a 1.5,1.46 -83.1 0 0 0.73,-0.59 q 1.64,-2.58 3.46,-3.26 c 8.16,-3.04 9.85,12.1 -1.29,8.87 a 1.53,1.53 0 0 0 -0.95,0.03 l -27.86,10.37 a 0.75,0.75 0 0 0 -0.47,0.83 q 1.69,9.47 1.8,19.28 a 0.47,0.46 3.5 0 0 0.41,0.46 z"
         id="path3" />
      <g
         stroke-width="2"
         fill="none"
         stroke-linecap="butt"
         id="g7">
        <path
           stroke="#7cc7df"
           vector-effect="non-scaling-stroke"
           d="m 380.18,321.78 0.07,8.87 a 0.52,0.52 0 0 1 -0.51,0.52 l -2.53,0.05"
           id="path4" />
        <path
           stroke="#7cc7df"
           vector-effect="non-scaling-stroke"
           d="m 385.13,332.39 q -1.65,-0.33 -2.97,0.16 a 0.73,0.71 -12.3 0 0 -0.47,0.71 l 0.42,8.66"
           id="path5" />
        <path
           stroke="#7cc7df"
           vector-effect="non-scaling-stroke"
           d="m 380.21,341.74 -0.1,-8.86 a 0.55,0.55 0 0 0 -0.56,-0.54 l -2.75,0.07"
           id="path6" />
        <path
           stroke="#7cc7df"
           vector-effect="non-scaling-stroke"
           d="m 384.7,331.18 h -2.42 a 0.61,0.61 0 0 1 -0.6,-0.6 l -0.03,-8.71"
           id="path7" />
      </g>
      <ellipse
         fill="#98c54c"
         cx="0"
         cy="0"
         transform="rotate(-50.3,384.32379,-265.53158)"
         rx="1.33"
         ry="0.20999999"
         id="ellipse7" />
      <rect
         fill="#f8faf5"
         x="-0.20999999"
         y="-6.9000001"
         transform="rotate(35.9,-150.70082,624.78539)"
         width="0.41999999"
         height="13.8"
         rx="0.20999999"
         id="rect7" />
      <path
         fill="#0167a2"
         d="m 200.29,217.53 -2.02,-1.11 a 0.41,0.4 -48.8 0 1 -0.04,-0.68 q 3.12,-2.29 5.33,-2.62 2.3,-0.33 3.15,-0.58 2.02,-0.58 3.13,-0.26 c 4.06,1.21 7.44,5.21 9.43,8.82 a 0.99,0.98 58.8 0 1 -0.31,1.3 l -14.77,10.07 a 0.51,0.51 0 0 1 -0.75,-0.22 q -2.91,-6.75 -7.9,-11 a 0.57,0.57 0 0 0 -0.2,-0.1 l -2.31,-0.49 a 0.38,0.37 -59.9 0 1 -0.17,-0.65 q 2.34,-2.1 5.24,-2.21 1.07,-0.04 1.27,0.06 0.78,0.41 0.83,0.39 a 0.39,0.39 0 0 0 0.09,-0.72 z"
         id="path8" />
      <path
         fill="#98c54c"
         d="m 334.22,213.45 q 0.06,0.7 -0.49,1.34 a 0.32,0.32 0 0 1 -0.56,-0.23 q 0.02,-0.32 0.62,-1.22 a 0.24,0.23 -30.3 0 1 0.43,0.11 z"
         id="path9" />
      <rect
         fill="#0167a2"
         x="-9.75"
         y="-2.1600001"
         transform="rotate(-35.2,470.46784,-222.26817)"
         width="19.5"
         height="4.3200002"
         rx="0.60000002"
         id="rect9" />
      <path
         fill="#98c54c"
         d="m 333.21,225.54 q 0.05,0.37 -0.62,0.3 -0.48,-0.05 -0.48,-0.46 0.01,-0.53 0.43,-0.57 a 0.33,0.32 -21.9 0 1 0.29,0.12 l 0.3,0.42 a 0.34,0.32 -69.7 0 1 0.08,0.19 z"
         id="path10" />
      <path
         fill="#f8faf5"
         d="m 236.87,297.12 a 0.19,0.19 0 0 1 -0.24,0.12 h -0.01 a 0.16,0.15 -75.5 0 1 -0.1,-0.18 q 2.55,-11.31 3.31,-23.01 a 0.44,0.44 0 0 0 -0.44,-0.47 h -33.78 a 0.56,0.55 7.4 0 0 -0.54,0.41 q -1.39,5.56 -3.55,10.55 -6.2,14.3 -15.57,33.19 a 0.69,0.68 -76.8 0 0 0.61,0.99 h 6.77 a 0.59,0.58 0 0 1 0.59,0.58 v 34.47 a 0.29,0.29 0 0 1 -0.27,0.29 l -25.84,1.82 a 0.94,0.94 0 0 1 -1.01,-0.98 q 2.31,-45.98 30.25,-79.11 c 22.97,-27.25 55.45,-44 90.89,-46.11 q 37.96,-2.26 70.41,15.5 c 40.45,22.14 66.37,64.14 67.3,110.38 a 0.4,0.39 -88.7 0 1 -0.42,0.41 l -26.53,-1.9 a 0.55,0.55 0 0 1 -0.52,-0.55 v -34.25 a 0.58,0.57 0 0 1 0.58,-0.57 h 6.92 a 0.59,0.59 0 0 0 0.53,-0.85 c -6.54,-13.31 -14.43,-28.71 -19.3,-43.75 a 0.76,0.75 81 0 0 -0.72,-0.53 h -33.16 a 0.74,0.73 -1.8 0 0 -0.74,0.78 q 0.67,11.16 3.25,22.29 a 0.13,0.12 -17.7 0 1 -0.08,0.15 l -0.12,0.05 a 0.19,0.18 68 0 1 -0.25,-0.11 q -6.07,-16.77 -8.14,-34.01 a 0.71,0.71 0 0 0 -0.7,-0.62 h -8.16 a 0.61,0.6 2.2 0 1 -0.61,-0.65 l 0.5,-6.97 a 0.59,0.59 0 0 0 -0.59,-0.64 h -8.08 a 0.48,0.48 0 0 0 -0.48,0.52 l 0.51,7.32 a 0.41,0.4 88 0 1 -0.4,0.44 h -83.15 a 0.66,0.65 3.5 0 0 -0.65,0.57 q -2.2,17.87 -8.27,34.43 z"
         id="path11" />
      <path
         fill="#f8faf5"
         d="m 434.92,251.45 q 6.23,-4.61 8.62,-11.89 a 0.35,0.34 16.8 0 1 0.42,-0.22 l 0.01,0.01 a 0.29,0.28 -76.8 0 1 0.2,0.33 c -1.13,5.32 -4.84,9.07 -8.99,12.3 a 0.23,0.23 0 0 1 -0.32,-0.04 0.35,0.34 52.5 0 1 0.06,-0.49 z"
         id="path12" />
      <path
         fill="#f8faf5"
         d="m 435.75,239.81 a 0.11,0.11 0 0 1 0.15,0.04 h 0.01 a 6.74,1.26 -31.1 0 1 -5.12,4.56 l -1.65,1 a 6.74,1.26 -31.1 0 1 -6.42,2.4 v -0.01 a 0.11,0.11 0 0 1 0.03,-0.15 z"
         id="path13" />
      <path
         fill="#98c54c"
         d="m 175.43,252.24 q 0.15,0.11 0.15,0.33 a 0.37,0.37 0 0 1 -0.23,0.33 q -0.98,0.4 -2.1,-0.22 a 0.16,0.15 -55.4 0 1 -0.04,-0.24 0.3,0.3 0 0 1 0.46,0 q 0.77,0.92 1.37,-0.11 a 0.28,0.28 0 0 1 0.39,-0.09 z"
         id="path14" />
      <path
         fill="#0167a2"
         d="m 121.4,286.53 -8.85,-6.8 a 0.63,0.62 34.6 0 1 -0.15,-0.81 q 0.39,-0.67 1.84,-2.62 0.58,-0.79 2.72,-1.48 4.18,-1.34 4.22,-5.89 c 0.02,-2.59 0.95,-3.5 2.24,-5.27 q 3.58,-4.97 5.32,-6.92 c 4.39,-4.94 17.21,-1.23 22.55,0.61 a 1.18,1.17 11.9 0 1 0.79,1.2 l -0.02,0.37 a 0.56,0.55 10.2 0 1 -0.71,0.49 q -7.31,-2.13 -10.54,0.14 -2.45,1.71 -2.34,4.11 c 0.09,1.67 1.43,2.84 2.3,4.14 a 0.89,0.87 -43.5 0 1 -0.04,1.03 l -4.67,6.07 a 1.15,1.13 27.1 0 1 -1.25,0.39 q -4.34,-1.4 -7.49,2.03 c -2.43,2.64 -2.13,6.4 -5.02,9.16 a 0.69,0.69 0 0 1 -0.9,0.05 z"
         id="path15" />
      <path
         fill="#f8faf5"
         d="m 296.07,275.65 q 0.23,0 0.4,0.13 16.01,12.36 40.31,31.07 a 2.02,1.98 63.2 0 0 1.21,0.41 h 19.85 a 0.3,0.3 0 0 1 0.3,0.3 v 4.34 a 0.33,0.33 0 0 1 -0.33,0.33 h -4.65 a 0.55,0.54 0 0 0 -0.55,0.54 v 34.73 a 0.45,0.44 90 0 1 -0.44,0.45 h -2.37 a 0.52,0.52 0 0 1 -0.52,-0.52 v -11.02 a 0.47,0.47 0 0 0 -0.47,-0.47 h -0.37 a 0.27,0.27 0 0 0 -0.27,0.27 v 11.34 a 0.34,0.33 90 0 1 -0.33,0.34 h -0.45 a 0.21,0.21 0 0 1 -0.21,-0.21 v -11.09 a 0.61,0.61 0 0 0 -0.61,-0.61 h -0.35 a 0.42,0.41 0 0 0 -0.42,0.41 v 11.08 a 0.42,0.42 0 0 1 -0.42,0.42 h -0.31 a 0.34,0.34 0 0 1 -0.34,-0.34 v -10.87 a 0.81,0.81 0 0 0 -0.81,-0.81 h -0.32 a 0.44,0.44 0 0 0 -0.44,0.44 v 11.29 a 0.3,0.3 0 0 1 -0.3,0.3 h -0.29 a 0.41,0.4 0 0 1 -0.41,-0.4 v -10.97 a 0.58,0.58 0 0 0 -0.58,-0.58 h -0.32 a 0.54,0.54 0 0 0 -0.54,0.54 v 11.14 a 0.28,0.27 0 0 1 -0.28,0.27 h -0.35 a 0.39,0.38 0 0 1 -0.39,-0.38 l -0.05,-10.95 a 0.73,0.73 0 0 0 -0.76,-0.73 h -0.05 a 0.79,0.79 0 0 0 -0.71,0.79 v 10.93 a 0.39,0.38 90 0 1 -0.38,0.39 h -0.34 a 0.29,0.28 -90 0 1 -0.28,-0.29 V 336.4 a 0.43,0.43 0 0 0 -0.43,-0.43 h -0.42 a 0.58,0.57 -90 0 0 -0.57,0.58 v 10.98 a 0.4,0.4 0 0 1 -0.4,0.4 h -0.37 a 0.28,0.28 0 0 1 -0.28,-0.28 v -11.13 a 0.53,0.52 -90 0 0 -0.52,-0.53 h -0.26 a 0.4,0.39 -90 0 0 -0.39,0.4 v 10.87 a 0.68,0.67 90 0 1 -0.67,0.68 h -2.07 a 0.55,0.54 -90 0 1 -0.54,-0.55 v -34.6 a 0.55,0.55 0 0 0 -0.55,-0.55 h -12.25 a 0.46,0.45 90 0 0 -0.45,0.46 v 34.68 a 0.54,0.53 -90 0 1 -0.53,0.54 h -2.25 a 0.56,0.56 0 0 1 -0.56,-0.56 v -34.58 a 0.51,0.5 2.3 0 0 -0.47,-0.5 q -0.3,-0.02 -17.08,-0.02 -16.78,0 -17.08,0.03 a 0.51,0.5 -2.3 0 0 -0.46,0.49 v 34.58 a 0.56,0.56 0 0 1 -0.55,0.56 l -2.25,0.01 a 0.54,0.53 90 0 1 -0.54,-0.54 v -34.68 a 0.46,0.45 90 0 0 -0.45,-0.46 h -12.25 a 0.55,0.55 0 0 0 -0.55,0.55 v 34.6 a 0.55,0.54 90 0 1 -0.53,0.55 h -2.07 a 0.68,0.67 90 0 1 -0.68,-0.68 V 336.4 a 0.4,0.39 90 0 0 -0.39,-0.4 h -0.26 a 0.53,0.52 90 0 0 -0.52,0.53 v 11.13 a 0.28,0.28 0 0 1 -0.27,0.28 h -0.37 a 0.4,0.4 0 0 1 -0.41,-0.4 v -10.98 a 0.58,0.57 90 0 0 -0.57,-0.58 h -0.42 a 0.43,0.43 0 0 0 -0.43,0.43 v 11.26 a 0.29,0.28 90 0 1 -0.27,0.29 h -0.34 a 0.39,0.38 90 0 1 -0.39,-0.39 v -10.93 a 0.79,0.79 0 0 0 -0.71,-0.79 h -0.05 a 0.73,0.73 0 0 0 -0.76,0.73 l -0.05,10.95 a 0.39,0.38 0 0 1 -0.38,0.38 h -0.35 a 0.28,0.27 0 0 1 -0.29,-0.27 V 336.5 a 0.54,0.54 0 0 0 -0.54,-0.54 h -0.32 a 0.58,0.58 0 0 0 -0.58,0.58 v 10.97 a 0.41,0.4 0 0 1 -0.4,0.4 h -0.29 a 0.3,0.3 0 0 1 -0.31,-0.3 v -11.29 a 0.44,0.44 0 0 0 -0.44,-0.44 h -0.32 a 0.81,0.81 0 0 0 -0.81,0.81 v 10.87 a 0.34,0.34 0 0 1 -0.33,0.34 h -0.31 a 0.42,0.42 0 0 1 -0.43,-0.42 V 336.4 a 0.42,0.41 0 0 0 -0.42,-0.41 h -0.35 a 0.61,0.61 0 0 0 -0.61,0.61 v 11.09 a 0.21,0.21 0 0 1 -0.2,0.21 h -0.45 a 0.34,0.33 90 0 1 -0.34,-0.34 v -11.34 a 0.27,0.27 0 0 0 -0.27,-0.27 h -0.37 a 0.47,0.47 0 0 0 -0.47,0.47 v 11.02 a 0.52,0.52 0 0 1 -0.51,0.52 h -2.37 a 0.45,0.44 90 0 1 -0.45,-0.45 v -34.73 a 0.55,0.54 0 0 0 -0.55,-0.54 l -4.65,0.01 a 0.33,0.33 0 0 1 -0.33,-0.33 L 234,307.58 a 0.3,0.3 0 0 1 0.3,-0.3 l 19.85,-0.01 a 2.02,1.98 -63.2 0 0 1.21,-0.41 q 24.3,-18.72 40.31,-31.08 0.16,-0.13 0.4,-0.13 z"
         id="path16" />
      <path
         fill="#0167a2"
         d="m 261.25,307.18 34.6,-26.73 a 0.33,0.33 0 0 1 0.4,0 l 34.6,26.73 a 0.33,0.33 0 0 1 -0.2,0.59 h -69.2 a 0.33,0.33 0 0 1 -0.2,-0.59 z"
         id="path17" />
      <path
         fill="#f8faf5"
         d="m 264.19,306.18 31.65,-24.41 a 0.34,0.34 0 0 1 0.42,0 l 31.65,24.41 a 0.34,0.34 0 0 1 -0.21,0.61 h -63.3 a 0.34,0.34 0 0 1 -0.21,-0.61 z"
         id="path18" />
      <path
         fill="#0167a2"
         d="m 296.47,298.66 q 0.19,-0.04 0.22,-0.03 a 0.59,0.59 0 0 1 0.27,0.85 q -0.33,0.52 -1.21,0.42 a 0.54,0.53 4.2 0 1 -0.47,-0.54 q 0.03,-1.22 -1.43,-1.86 c -1.59,-0.68 -1.59,-2.78 -3.38,-2.79 a 0.65,0.65 0 0 1 -0.65,-0.63 q -0.05,-1.3 0.94,-1.83 c 1.51,-0.8 1.98,-2.1 3.78,-3.15 a 1.18,1.18 0 0 0 0.57,-0.83 q 0.06,-0.3 0.01,-0.43 a 0.53,0.52 70.6 0 1 0.3,-0.63 q 0.5,-0.22 0.9,-0.11 a 0.72,0.71 12.8 0 1 0.53,0.83 q 0,0.04 -0.01,0.08 a 0.57,0.55 27 0 0 0.21,0.62 c 1.21,0.88 2.09,1.36 2.98,2.74 q 0.63,0.98 1.22,0.99 a 1.2,1.15 -51.5 0 1 0.21,2.31 q -0.48,0.14 -0.57,0.18 a 1.6,1.53 -86.4 0 0 -0.74,0.68 q -0.85,1.52 -3.03,2.77 a 0.19,0.18 -30.1 0 1 -0.25,-0.06 c -0.12,-0.2 -0.43,-0.22 -0.52,0.01 q -0.02,0.05 -0.01,0.31 a 0.11,0.11 0 0 0 0.13,0.1 z"
         id="path19" />
      <path
         fill="#f8faf5"
         d="m 296.09,297.4 q -2,0 -3.47,-2.62 -0.38,-0.67 -1.05,-0.74 a 0.45,0.45 0 0 1 -0.02,-0.89 q 0.88,-0.14 1.16,-0.98 c 0.45,-1.36 1.89,-2.16 3.2,-2.83 a 0.14,0.01 -30 0 1 0.11,-0.05 q 0.03,0 0.06,0 0.03,0 0.06,0 a 0.14,0.01 29.8 0 1 0.11,0.05 c 1.31,0.67 2.75,1.46 3.21,2.82 q 0.28,0.84 1.16,0.97 a 0.45,0.45 0 0 1 -0.02,0.89 q -0.67,0.08 -1.04,0.75 -1.47,2.63 -3.47,2.63 z"
         id="path20" />
      <path
         fill="#f8faf5"
         d="m 147.424,327.2387 a 2.77,2.77 0 0 1 -3.7926,0.9809 L 117.076,312.5772 a 2.77,2.77 0 0 1 -0.9809,-3.7925 l 0.0609,-0.1034 a 2.77,2.77 0 0 1 3.7926,-0.9809 l 26.5554,15.6424 a 2.77,2.77 0 0 1 0.9809,3.7925 z"
         id="path21" />
      <rect
         fill="#0167a2"
         x="-16.25"
         y="-1"
         transform="rotate(30.5,-517.39361,400.68338)"
         width="32.5"
         height="2"
         rx="0.98000002"
         id="rect21" />
      <rect
         fill="#0167a2"
         x="-7.8899999"
         y="-11.4"
         transform="rotate(0.1,-185306.65,143819.49)"
         width="15.78"
         height="22.799999"
         rx="0.47999999"
         id="rect22" />
      <rect
         fill="#0167a2"
         x="333.54001"
         y="312.26001"
         width="15.76"
         height="22.76"
         rx="0.43000001"
         id="rect23" />
      <path
         fill="#f8faf5"
         d="m 286.78,324.43 a 0.13,0.13 0 0 1 -0.13,-0.13 v -0.08 a 9.26,6.69 -0.2 0 1 9.24,-6.72 h 0.34 a 9.26,6.69 -0.2 0 1 9.28,6.66 v 0.08 a 0.13,0.13 0 0 1 -0.13,0.13 z"
         id="path23" />
      <circle
         fill="#f8faf5"
         cx="459.98999"
         cy="320.89999"
         r="3.3800001"
         id="circle23" />
      <rect
         fill="#f8faf5"
         x="-1.86"
         y="-4.8200002"
         transform="rotate(0.1,-186937.63,119785.32)"
         width="3.72"
         height="9.6400003"
         rx="0.46000001"
         id="rect24" />
      <rect
         fill="#f8faf5"
         x="211.78"
         y="321.63"
         width="3.5999999"
         height="9.6400003"
         rx="0.44999999"
         id="rect25" />
      <rect
         fill="#f8faf5"
         x="-1.8099999"
         y="-4.75"
         transform="rotate(-0.2,93617.297,-64893.232)"
         width="3.6199999"
         height="9.5"
         rx="0.31"
         id="rect26" />
      <rect
         fill="#f8faf5"
         x="230.08"
         y="321.60001"
         width="3.5999999"
         height="9.5600004"
         rx="0.41"
         id="rect27" />
      <rect
         fill="#f8faf5"
         x="-1.83"
         y="-4.8000002"
         transform="rotate(-0.1,187182.04,-206244.8)"
         width="3.6600001"
         height="9.6000004"
         rx="0.40000001"
         id="rect28" />
      <rect
         fill="#f8faf5"
         x="-1.85"
         y="-4.7600002"
         transform="rotate(-0.1,187184.43,-208977.81)"
         width="3.7"
         height="9.5200005"
         rx="0.41999999"
         id="rect29" />
      <path
         fill="#f8faf5"
         d="m 380.18,321.78 0.07,8.87 a 0.52,0.52 0 0 1 -0.51,0.52 l -2.53,0.05 q -0.13,-0.06 -0.28,-0.15 a 0.41,0.41 0 0 1 -0.2,-0.35 v -8.33 a 0.69,0.69 0 0 1 0.54,-0.67 q 1.5,-0.32 2.91,0.06 z"
         id="path29" />
      <path
         fill="#f8faf5"
         d="m 384.7,331.18 h -2.42 a 0.61,0.61 0 0 1 -0.6,-0.6 l -0.03,-8.71 q 1.41,-0.52 3.01,-0.17 a 0.69,0.67 -84.3 0 1 0.54,0.67 v 8.32 a 0.35,0.34 -25.1 0 1 -0.09,0.23 q -0.15,0.18 -0.41,0.26 z"
         id="path30" />
      <path
         fill="#0094c9"
         d="m 381.65,321.87 0.03,8.71 a 0.61,0.61 0 0 0 0.6,0.6 h 2.42 l 0.43,1.21 q -1.65,-0.33 -2.97,0.16 a 0.73,0.71 -12.3 0 0 -0.47,0.71 l 0.42,8.66 q -0.03,0.37 -1.9,-0.18 l -0.1,-8.86 a 0.55,0.55 0 0 0 -0.56,-0.54 l -2.75,0.07 0.41,-1.19 2.53,-0.05 a 0.52,0.52 0 0 0 0.51,-0.52 l -0.07,-8.87 q 0.77,0.2 1.47,0.09 z"
         id="path31" />
      <rect
         fill="#f8faf5"
         x="264.20001"
         y="322.34"
         width="3.6600001"
         height="9.6000004"
         rx="0.44999999"
         id="rect31" />
      <rect
         fill="#f8faf5"
         x="-1.8099999"
         y="-4.79"
         transform="rotate(0.2,-93588.931,77747.716)"
         width="3.6199999"
         height="9.5799999"
         rx="0.46000001"
         id="rect32" />
      <rect
         fill="#f8faf5"
         x="-1.83"
         y="-4.8200002"
         transform="rotate(-0.2,93890.731,-91887.716)"
         width="3.6600001"
         height="9.6400003"
         rx="0.37"
         id="rect33" />
      <rect
         fill="#f8faf5"
         x="324.29001"
         y="322.35001"
         width="3.6400001"
         height="9.6199999"
         rx="0.50999999"
         id="rect34" />
      <rect
         fill="#f8faf5"
         x="286.37"
         y="325.78"
         width="19.42"
         height="20.360001"
         rx="0.28999999"
         id="rect35" />
      <rect
         fill="#f8faf5"
         x="-4"
         y="-0.31999999"
         transform="rotate(30,-539.50909,464.68103)"
         width="8"
         height="0.63999999"
         rx="0.31"
         id="rect36" />
      <rect
         fill="#f8faf5"
         x="-4.04"
         y="-0.31999999"
         transform="rotate(29.8,-548.27231,465.55868)"
         width="8.0799999"
         height="0.63999999"
         rx="0.31"
         id="rect37" />
      <rect
         fill="#f8faf5"
         x="-1.86"
         y="-4.79"
         transform="rotate(0.1,-193062.55,119790.67)"
         width="3.72"
         height="9.5799999"
         rx="0.56999999"
         id="rect38" />
      <rect
         fill="#f8faf5"
         x="-1.8099999"
         y="-4.8000002"
         transform="rotate(-0.1,193233.62,-122198.03)"
         width="3.6199999"
         height="9.6000004"
         rx="0.36000001"
         id="rect39" />
      <rect
         fill="#f8faf5"
         x="-1.79"
         y="-4.8200002"
         transform="rotate(0.4,-48176.574,32696.679)"
         width="3.5799999"
         height="9.6400003"
         rx="0.43000001"
         id="rect40" />
      <rect
         fill="#f8faf5"
         x="-1.8200001"
         y="-4.8000002"
         transform="rotate(0.3,-64261.461,44450.437)"
         width="3.6400001"
         height="9.6000004"
         rx="0.41"
         id="rect41" />
      <rect
         fill="#f8faf5"
         x="-1.84"
         y="-4.8000002"
         transform="rotate(0.1,-192958.17,206576.54)"
         width="3.6800001"
         height="9.6000004"
         rx="0.38999999"
         id="rect42" />
      <rect
         fill="#f8faf5"
         x="363.17999"
         y="332.31"
         width="3.7"
         height="9.6400003"
         rx="0.5"
         id="rect43" />
      <path
         fill="#f8faf5"
         d="m 380.21,341.74 q -1.45,0.34 -2.85,0.12 a 0.61,0.6 -85.6 0 1 -0.51,-0.6 l -0.05,-8.85 2.75,-0.07 a 0.55,0.55 0 0 1 0.56,0.54 z"
         id="path43" />
      <path
         fill="#f8faf5"
         d="m 385.13,332.39 -0.04,8.91 a 0.54,0.54 0 0 1 -0.52,0.53 l -2.46,0.09 -0.42,-8.66 a 0.73,0.71 -12.3 0 1 0.47,-0.71 q 1.32,-0.49 2.97,-0.16 z"
         id="path44" />
      <rect
         fill="#f8faf5"
         x="-1.8200001"
         y="-4.8099999"
         transform="rotate(0.1,-193457.91,152598.59)"
         width="3.6400001"
         height="9.6199999"
         rx="0.37"
         id="rect44" />
      <rect
         fill="#f8faf5"
         x="-1.79"
         y="-4.7800002"
         transform="rotate(0.1,-193455.51,155354.52)"
         width="3.5799999"
         height="9.5600004"
         rx="0.38999999"
         id="rect45" />
      <rect
         fill="#f8faf5"
         x="-1.8"
         y="-4.7800002"
         transform="rotate(-0.3,64685.11,-61198.534)"
         width="3.5999999"
         height="9.5600004"
         rx="0.34"
         id="rect46" />
      <rect
         fill="#f8faf5"
         x="-1.8099999"
         y="-4.79"
         transform="rotate(0.3,-64363.309,62449.3)"
         width="3.6199999"
         height="9.5799999"
         rx="0.43000001"
         id="rect47" />
      <path
         fill="#f8faf5"
         d="m 157.91,335.82 q 3.35,2.01 3.18,2.29 -0.16,0.27 -3.51,-1.74 -3.35,-2.01 -3.18,-2.29 0.16,-0.27 3.51,1.74 z"
         id="path47" />
      <path
         fill="#0094c9"
         d="m 224.41,411.21 4.7,2.71 a 0.68,0.68 0 0 1 0.25,0.93 l -2.1,3.63 a 0.96,0.96 0 0 1 -1.31,0.35 l -7.22,-4.17 a 0.74,0.73 49.1 0 0 -0.64,-0.05 q -5.68,2.16 -12.12,0.95 c -12,-2.25 -15.2,-14.24 -13.12,-24.85 1.52,-7.8 7.62,-13.19 15.64,-13.6 q 16.38,-0.83 19.41,14.6 1.99,10.13 -3.68,18.67 a 0.58,0.58 0 0 0 0.19,0.83 z"
         id="path48" />
      <rect
         fill="#0094c9"
         x="-3.5799999"
         y="-3"
         transform="rotate(0.1,-218167.95,154482.27)"
         width="7.1599998"
         height="6"
         rx="0.54000002"
         id="rect48" />
      <path
         fill="#0094c9"
         d="m 323.91,388.01 h 8.41 a 0.32,0.32 0 0 1 0.22,0.55 l -8.99,8.99 a 0.32,0.32 0 0 0 -0.05,0.38 l 9.69,16.58 a 0.32,0.32 0 0 1 -0.28,0.48 h -6.85 a 0.32,0.32 0 0 1 -0.27,-0.16 l -6.71,-11.47 a 0.32,0.32 0 0 0 -0.5,-0.07 l -2.88,2.87 a 0.32,0.32 0 0 0 -0.09,0.22 v 8.29 a 0.32,0.32 0 0 1 -0.32,0.32 h -6.5 a 0.32,0.32 0 0 1 -0.32,-0.32 v -36.34 a 0.32,0.32 0 0 1 0.32,-0.32 h 6.5 a 0.32,0.32 0 0 1 0.32,0.32 v 18.59 a 0.32,0.32 0 0 0 0.57,0.2 l 7.48,-8.99 a 0.32,0.32 0 0 1 0.25,-0.12 z"
         id="path49" />
      <path
         fill="#98c54c"
         d="m 374.87,393.46 v 5.08 a 0.44,0.44 0 0 1 -0.44,0.44 h -14.65 a 0.44,0.44 0 0 0 -0.44,0.44 v 15.13 a 0.44,0.44 0 0 1 -0.44,0.44 h -6.63 a 0.44,0.44 0 0 1 -0.44,-0.44 v -36.11 a 0.44,0.44 0 0 1 0.44,-0.44 h 24.65 a 0.44,0.44 0 0 1 0.44,0.44 v 5.11 a 0.44,0.44 0 0 1 -0.44,0.44 h -17.14 a 0.44,0.44 0 0 0 -0.44,0.44 v 8.15 a 0.44,0.44 0 0 0 0.44,0.44 h 14.65 a 0.44,0.44 0 0 1 0.44,0.44 z"
         id="path50" />
      <rect
         fill="#98c54c"
         x="-3.5899999"
         y="-2.98"
         transform="rotate(0.3,-72573.744,74155.368)"
         width="7.1799998"
         height="5.96"
         rx="0.67000002"
         id="rect50" />
      <path
         fill="#f8faf5"
         d="m 212.31,409.7 q -4.38,1.02 -7.86,-1.61 c -4.64,-3.49 -4.99,-11.17 -3.99,-16.36 2.21,-11.4 17.23,-11.74 19.58,-0.34 1.05,5.08 0.67,10.4 -1.96,14.86 a 0.53,0.53 0 0 1 -0.72,0.19 l -5.77,-3.33 a 0.82,0.82 0 0 0 -1.12,0.29 l -1.68,2.92 a 0.55,0.54 -60.2 0 0 0.2,0.75 l 3.41,1.97 a 0.36,0.36 0 0 1 -0.09,0.66 z"
         id="path51" />
      <path
         fill="#0094c9"
         d="m 303.48,406.38 c -1.99,6.59 -7.09,9.2 -13.88,8.49 -9.57,-0.99 -12.53,-9.33 -11,-17.83 1.55,-8.69 10.77,-11.94 18.29,-9.11 q 4.2,1.57 5.92,5.89 a 0.79,0.79 0 0 1 -0.54,1.06 l -4.91,1.22 a 1.26,1.26 0 0 1 -1.55,-1.01 q -0.31,-1.82 -2.13,-2.54 c -4.28,-1.68 -7.32,0.81 -7.95,5.16 -0.54,3.68 -0.49,10.79 3.97,11.96 q 5.47,1.43 6.79,-4.23 a 0.39,0.38 -80 0 1 0.42,-0.3 l 6.23,0.72 a 0.41,0.4 12 0 1 0.34,0.52 z"
         id="path52" />
      <path
         fill="#0094c9"
         d="m 251.49,411.58 a 0.13,0.13 0 0 0 -0.22,-0.09 q -4.26,4.14 -10.19,3.37 c -4.26,-0.55 -6.95,-3.23 -7.34,-7.4 q -0.25,-2.57 -0.15,-19.05 a 0.41,0.41 0 0 1 0.41,-0.4 h 6.35 a 0.41,0.41 0 0 1 0.41,0.41 q -0.12,9.5 0.06,16.56 0.07,2.46 1,3.57 c 2.21,2.64 6.42,1.38 8.15,-1.26 q 0.92,-1.4 0.95,-5.04 0.08,-7.4 0.04,-13.91 a 0.33,0.33 0 0 1 0.33,-0.34 h 6.5 a 0.33,0.33 0 0 1 0.33,0.33 v 25.96 A 0.72,0.71 0 0 1 257.4,415 h -5.33 a 0.58,0.58 0 0 1 -0.58,-0.58 z"
         id="path53" />
      <rect
         fill="#0094c9"
         x="265.72"
         y="388.01999"
         width="7.1599998"
         height="26.98"
         rx="0.43000001"
         id="rect53" />
      <rect
         fill="#98c54c"
         x="-3.5799999"
         y="-13.49"
         transform="rotate(-0.1,230247.6,-221700.01)"
         width="7.1599998"
         height="26.98"
         rx="0.5"
         id="rect54" />
      <path
         fill="#98c54c"
         d="m 408.22,395.09 q 0.23,0 0.46,-0.36 2.75,-4.25 3.89,-5.94 a 1.86,1.85 16.9 0 1 1.54,-0.82 h 6.65 a 0.41,0.41 0 0 1 0.34,0.64 l -8.27,11.87 a 0.64,0.64 0 0 0 -0.01,0.72 l 9.31,13.65 a 0.06,0.05 -15 0 1 -0.05,0.08 h -8.14 a 0.37,0.36 72.3 0 1 -0.3,-0.16 q -2.85,-4.36 -5.09,-7.73 -0.07,-0.1 -0.28,-0.1 -0.21,0 -0.27,0.1 -2.22,3.39 -5.04,7.77 a 0.37,0.36 -72.8 0 1 -0.3,0.16 l -8.14,0.07 a 0.06,0.05 14.5 0 1 -0.05,-0.08 l 9.21,-13.72 a 0.64,0.64 0 0 0 -0.02,-0.72 l -8.36,-11.81 a 0.41,0.41 0 0 1 0.33,-0.64 l 6.65,-0.05 a 1.86,1.85 -17.3 0 1 1.55,0.8 q 1.15,1.69 3.94,5.91 0.23,0.36 0.45,0.36 z"
         id="path54" />
      <path
         fill="#0167a2"
         d="m 201.69,442.48 v -14.9 a 0.54,0.54 0 0 1 0.54,-0.54 h 6.92 a 4.53,4.53 0 0 1 4.53,4.53 v 0.89 a 4.49,4.49 0 0 1 -4.49,4.49 h -4.75 a 0.64,0.64 0 0 0 -0.64,0.64 v 4.83 a 0.57,0.57 0 0 1 -0.57,0.57 h -1.04 a 0.51,0.5 90 0 1 -0.5,-0.51 z"
         id="path55" />
      <path
         fill="#0167a2"
         d="m 297.16,439.81 q 0.06,0 0.09,-0.01 a 0.18,0.09 -5.1 0 0 0.13,-0.08 l 4.14,-12.1 a 0.9,0.9 0 0 1 0.85,-0.61 h 1.81 a 0.52,0.51 -90 0 1 0.51,0.52 v 14.96 a 0.53,0.53 0 0 1 -0.53,0.53 h -0.95 a 0.54,0.53 90 0 1 -0.53,-0.54 v -12.7 a 0.11,0.11 0 0 0 -0.21,-0.03 l -4.18,12.67 a 1.14,1.07 74 0 1 -0.13,0.26 q -0.27,0.38 -1.01,0.38 -0.74,0 -1,-0.39 a 1.14,1.07 -73.7 0 1 -0.14,-0.26 l -4.11,-12.69 a 0.11,0.11 0 0 0 -0.21,0.03 l -0.07,12.7 a 0.54,0.53 -89.7 0 1 -0.53,0.54 l -0.95,-0.01 a 0.53,0.53 0 0 1 -0.53,-0.53 l 0.09,-14.96 a 0.52,0.51 -89.7 0 1 0.51,-0.52 l 1.81,0.01 a 0.9,0.9 0 0 1 0.85,0.62 l 4.07,12.12 a 0.18,0.09 5.4 0 0 0.13,0.08 q 0.03,0.01 0.09,0.01 z"
         id="path56" />
      <path
         fill="#0167a2"
         d="m 319.73,428.83 a 1.06,0.96 -57.7 0 1 -0.24,-1.38 q 0.42,-0.71 1.47,-0.32 a 0.95,0.92 -45.8 0 1 -0.01,1.74 q -0.69,0.3 -1.22,-0.04 z"
         id="path57" />
      <path
         fill="#0167a2"
         d="m 261.77,432.19 q 0.86,-1.69 3.53,-0.96 a 1.24,1.2 0.5 0 0 1.53,-1.46 q -0.47,-1.77 1.3,-2.37 a 0.46,0.45 -9.3 0 1 0.6,0.43 v 2.51 a 0.79,0.79 0 0 0 0.79,0.79 h 0.71 a 0.81,0.81 0 0 1 0.41,1.51 q -0.5,0.29 -1.15,0.31 a 0.77,0.77 0 0 0 -0.76,0.77 v 6.33 a 0.89,0.89 0 0 0 0.59,0.84 l 1.13,0.4 a 0.8,0.8 0 0 1 -0.06,1.53 q -2.21,0.58 -3.3,-0.93 a 1.48,1.46 -63 0 1 -0.27,-0.85 v -7.13 a 1.22,1.22 0 0 0 -1.52,-1.18 l -2.27,0.57 a 2.17,2.16 -7 0 0 -1.64,2.1 v 6.95 a 0.7,0.7 0 0 1 -0.7,0.7 h -0.65 a 0.65,0.64 90 0 1 -0.64,-0.65 l 0.02,-10.67 a 0.84,0.84 0 0 1 1.43,-0.59 q 0.13,0.14 0.42,1.01 a 0.27,0.27 0 0 0 0.5,0.04 z"
         id="path58" />
      <path
         fill="#0167a2"
         d="m 338.73,427.79 v 2.58 a 0.7,0.69 -1.2 0 0 0.73,0.69 q 0.97,-0.04 1.35,0.51 0.49,0.71 -0.42,1.18 -0.44,0.22 -0.93,0.22 a 0.73,0.72 90 0 0 -0.72,0.73 v 6.36 a 0.87,0.87 0 0 0 0.57,0.82 l 1.15,0.4 a 0.81,0.81 0 0 1 -0.04,1.54 q -1.95,0.56 -3.27,-0.76 a 1.09,1.09 0 0 1 -0.32,-0.77 v -7.66 a 0.64,0.63 9.7 0 0 -0.43,-0.6 l -0.96,-0.34 a 0.66,0.66 0 0 1 -0.02,-1.24 q 1.71,-0.67 1.52,-1.6 -0.12,-0.59 -0.13,-0.62 -0.21,-1.15 1.28,-1.85 a 0.45,0.45 0 0 1 0.64,0.41 z"
         id="path59" />
      <path
         fill="#f8faf5"
         d="m 203.78,429.31 a 0.3,0.3 0 0 1 0.29,-0.3 l 4.47,-0.04 a 2.95,2.74 -0.5 0 1 2.98,2.72 v 0.52 a 2.95,2.74 -0.5 0 1 -2.92,2.76 l -4.47,0.04 a 0.3,0.3 0 0 1 -0.31,-0.3 z"
         id="path60" />
      <path
         fill="#0167a2"
         d="m 218.85,432.08 q 0.98,-1.54 2.98,-0.91 a 0.66,0.65 9.3 0 1 0.45,0.62 v 0.72 a 0.69,0.69 0 0 1 -0.86,0.67 c -4.16,-1.06 -3.12,6.77 -3.02,9.16 a 0.65,0.65 0 0 1 -0.65,0.68 h -0.78 a 0.56,0.56 0 0 1 -0.56,-0.56 v -10.73 a 0.84,0.83 24.2 0 1 1.46,-0.55 q 0.28,0.31 0.31,0.72 a 0.37,0.36 59.6 0 0 0.67,0.18 z"
         id="path61" />
      <path
         fill="#0167a2"
         d="m 233.2922,438.1722 a 4.81,4.81 0 0 1 -4.8849,4.7338 l -0.8599,-0.0135 a 4.81,4.81 0 0 1 -4.7339,-4.8849 l 0.0343,-2.1798 a 4.81,4.81 0 0 1 4.8849,-4.7338 l 0.8599,0.0135 a 4.81,4.81 0 0 1 4.7339,4.8849 z"
         id="path62" />
      <path
         fill="#0167a2"
         d="m 237.76,432.43 q 2.35,-2.36 4.97,-0.83 c 5.47,3.2 1.72,14.9 -4.86,10.3 a 0.33,0.33 0 0 0 -0.51,0.27 v 4.23 a 0.61,0.61 0 0 1 -0.61,0.61 h -0.7 a 0.6,0.6 0 0 1 -0.6,-0.6 q -0.01,-13.14 0.01,-14.76 a 0.93,0.8 19.7 0 1 1.42,-0.55 q 0.32,0.22 0.41,1.16 a 0.28,0.28 0 0 0 0.47,0.17 z"
         id="path63" />
      <path
         fill="#0167a2"
         d="m 249.48,436.98 a 0.68,0.67 81.1 0 0 -0.64,0.88 q 1.22,3.84 4.47,2.98 c 1.19,-0.32 1.47,-1.45 2.72,-1.93 a 0.82,0.82 0 0 1 0.94,1.27 c -1.62,2.1 -2.76,3.05 -5.2,2.77 -6.92,-0.8 -6.85,-11.7 0.72,-11.91 a 4.34,4.32 -15.8 0 1 3.86,2.14 l 0.97,1.66 a 1.42,1.42 0 0 1 -1.23,2.14 z"
         id="path64" />
      <path
         fill="#0167a2"
         d="m 276.55,439.58 a 0.19,0.18 -46.1 0 0 0.35,-0.01 l 2.83,-8.04 a 0.86,0.84 -70.3 0 1 1.08,-0.52 l 0.47,0.16 a 0.45,0.45 0 0 1 0.27,0.58 q -4.06,11.49 -4.59,12.65 -1.28,2.77 -3.71,2.56 a 1.23,1.23 0 0 1 -1.11,-1.03 l -0.03,-0.17 a 0.7,0.7 0 0 1 0.81,-0.81 q 1.99,0.32 2.6,-2.25 a 1.46,1.43 42.1 0 0 -0.05,-0.83 l -3.76,-10.09 a 0.59,0.59 0 0 1 0.75,-0.76 l 0.84,0.29 a 0.49,0.45 2.2 0 1 0.28,0.28 z"
         id="path65" />
      <path
         fill="#0167a2"
         d="m 316.79,443.01 q -1.22,0.12 -1.88,-0.57 a 0.71,0.71 0 0 0 -0.86,-0.13 c -2.61,1.46 -7.64,0.82 -7.19,-3.25 0.39,-3.52 5.08,-3.36 7.24,-3.87 a 0.84,0.84 0 0 0 0.2,-1.57 q -3.34,-1.75 -5.48,1.2 a 0.82,0.81 71.2 0 1 -1.44,-0.71 q 0.74,-2.57 3.54,-2.94 c 8.86,-1.18 4.42,7.13 6.24,11.22 a 0.45,0.44 -14.6 0 1 -0.37,0.62 z"
         id="path66" />
      <rect
         fill="#0167a2"
         x="-0.95999998"
         y="-5.9899998"
         transform="rotate(0.1,-250222.28,183811.32)"
         width="1.92"
         height="11.98"
         rx="0.44"
         id="rect66" />
      <path
         fill="#0167a2"
         d="m 326.86,432.16 q 0.14,-0.07 0.21,-0.42 0.01,-0.1 0.44,-0.24 c 4.12,-1.41 6.35,0.31 6.23,4.81 q -0.07,3.02 0,6.07 a 0.64,0.63 89.1 0 1 -0.63,0.66 h -0.78 a 0.56,0.56 0 0 1 -0.56,-0.56 v -7.15 a 2.26,2.26 0 0 0 -2.5,-2.25 l -0.43,0.05 a 2.75,2.75 0 0 0 -2.45,2.73 v 6.44 a 0.73,0.72 90 0 1 -0.72,0.73 h -0.65 a 0.58,0.58 0 0 1 -0.58,-0.58 v -10.96 a 0.51,0.51 0 0 1 0.41,-0.5 q 1.14,-0.22 1.42,0.89 a 0.42,0.42 0 0 0 0.59,0.28 z"
         id="path67" />
      <path
         fill="#0167a2"
         d="m 344.48,436.97 a 0.67,0.67 0 0 0 -0.64,0.88 q 1.21,3.84 4.45,2.99 c 1.19,-0.32 1.48,-1.45 2.73,-1.92 a 0.82,0.82 0 0 1 0.93,1.27 c -1.62,2.09 -2.76,3.04 -5.2,2.75 -6.91,-0.82 -6.81,-11.71 0.76,-11.89 a 4.34,4.31 -15.7 0 1 3.84,2.15 l 0.97,1.66 a 1.42,1.42 0 0 1 -1.24,2.13 z"
         id="path68" />
      <path
         fill="#0167a2"
         d="m 356.26,431.88 a 0.42,0.42 0 0 0 0.59,0.28 q 0.14,-0.07 0.21,-0.42 0.01,-0.1 0.44,-0.24 c 4.11,-1.41 6.34,0.3 6.23,4.8 q -0.06,3.02 0.01,6.06 a 0.64,0.63 89 0 1 -0.63,0.66 h -0.78 a 0.56,0.56 0 0 1 -0.56,-0.55 l -0.01,-7.15 a 2.26,2.26 0 0 0 -2.5,-2.24 l -0.43,0.05 a 2.75,2.74 -3.2 0 0 -2.44,2.73 l 0.01,6.43 a 0.73,0.72 89.9 0 1 -0.72,0.73 h -0.65 a 0.58,0.58 0 0 1 -0.58,-0.57 l -0.02,-10.95 a 0.51,0.51 0 0 1 0.41,-0.5 q 1.14,-0.23 1.42,0.88 z"
         id="path69" />
      <path
         fill="#0167a2"
         d="m 376.16,442.38 a 0.45,0.44 -14.7 0 1 -0.37,0.63 q -1.22,0.12 -1.88,-0.57 a 0.71,0.71 0 0 0 -0.86,-0.13 c -2.61,1.46 -7.64,0.83 -7.19,-3.24 0.38,-3.52 5.07,-3.37 7.23,-3.88 a 0.84,0.84 0 0 0 0.2,-1.57 q -3.34,-1.75 -5.48,1.2 a 0.82,0.81 71.1 0 1 -1.44,-0.7 q 0.74,-2.57 3.54,-2.95 c 8.86,-1.19 4.43,7.13 6.25,11.21 z"
         id="path70" />
      <path
         fill="#0167a2"
         d="m 380.26,431.89 a 0.42,0.42 0 0 0 0.59,0.27 q 0.14,-0.07 0.21,-0.42 0.01,-0.1 0.44,-0.24 c 4.11,-1.41 6.35,0.3 6.23,4.8 q -0.06,3.02 0.01,6.07 a 0.64,0.63 89 0 1 -0.63,0.66 h -0.78 a 0.56,0.56 0 0 1 -0.56,-0.56 l -0.01,-7.15 a 2.26,2.26 0 0 0 -2.5,-2.24 l -0.43,0.05 a 2.75,2.74 -3.2 0 0 -2.44,2.73 l 0.01,6.44 a 0.73,0.72 89.9 0 1 -0.72,0.73 h -0.65 a 0.58,0.58 0 0 1 -0.58,-0.58 l -0.02,-10.95 a 0.51,0.51 0 0 1 0.41,-0.5 q 1.14,-0.22 1.42,0.89 z"
         id="path71" />
      <path
         fill="#0167a2"
         d="m 391.85,437.08 c 0.04,2.55 1.34,4.32 4.13,3.84 1.32,-0.22 1.3,-1.8 2.88,-2 a 0.63,0.63 0 0 1 0.69,0.79 q -0.64,2.4 -2.98,3.03 c -4.15,1.12 -6.65,-1.7 -6.71,-5.63 -0.06,-3.93 2.36,-6.82 6.53,-5.84 q 2.37,0.57 3.08,2.95 a 0.63,0.63 0 0 1 -0.67,0.81 c -1.58,-0.15 -1.61,-1.73 -2.94,-1.92 -2.8,-0.39 -4.05,1.42 -4.01,3.97 z"
         id="path72" />
      <path
         fill="#0167a2"
         d="m 403.48,436.97 a 0.67,0.67 0 0 0 -0.64,0.88 q 1.22,3.84 4.46,2.98 c 1.19,-0.31 1.47,-1.44 2.72,-1.92 a 0.82,0.82 0 0 1 0.94,1.27 c -1.62,2.09 -2.76,3.04 -5.2,2.76 -6.91,-0.81 -6.82,-11.7 0.74,-11.9 a 4.34,4.31 -15.8 0 1 3.85,2.15 l 0.97,1.66 a 1.42,1.42 0 0 1 -1.23,2.13 z"
         id="path73" />
      <ellipse
         fill="#f8faf5"
         cx="0"
         cy="0"
         transform="rotate(-91.7,326.15128,107.79441)"
         rx="4.0100002"
         ry="3.4100001"
         id="ellipse73" />
      <ellipse
         fill="#f8faf5"
         cx="0"
         cy="0"
         transform="rotate(-88.3,345.24159,94.751276)"
         rx="4"
         ry="3.1300001"
         id="ellipse74" />
      <path
         fill="#f8faf5"
         d="m 249.22,435.03 a 0.14,0.14 0 0 1 -0.14,-0.14 v -0.05 a 2.91,1.73 -0.5 0 1 2.89,-1.76 h 0.26 a 2.91,1.73 -0.5 0 1 2.93,1.7 v 0.05 a 0.14,0.14 0 0 1 -0.14,0.14 z"
         id="path74" />
      <path
         fill="#f8faf5"
         d="m 344.2,435.02 a 0.14,0.14 0 0 1 -0.14,-0.14 v -0.05 a 2.92,1.73 -0.5 0 1 2.9,-1.76 h 0.26 a 2.92,1.73 -0.5 0 1 2.94,1.7 v 0.05 a 0.14,0.14 0 0 1 -0.14,0.14 z"
         id="path75" />
      <path
         fill="#f8faf5"
         d="m 403.2,435.03 a 0.14,0.14 0 0 1 -0.14,-0.14 v -0.05 a 2.92,1.73 -0.5 0 1 2.9,-1.76 h 0.26 a 2.92,1.73 -0.5 0 1 2.94,1.7 v 0.05 a 0.14,0.14 0 0 1 -0.14,0.14 z"
         id="path76" />
      <path
         fill="#f8faf5"
         d="m 314.75,437.81 q -0.08,3.63 -4.69,3 a 1.35,1.35 0 0 1 -0.44,-2.53 q 1.25,-0.66 4.56,-0.99 a 0.52,0.51 -2.5 0 1 0.57,0.52 z"
         id="path77" />
      <path
         fill="#f8faf5"
         d="m 373.14,437.27 a 0.52,0.51 -2.3 0 1 0.57,0.52 q -0.1,3.61 -4.69,2.97 a 1.34,1.34 0 0 1 -0.43,-2.53 q 1.25,-0.65 4.55,-0.96 z"
         id="path78" />
    </g>
  </g>
  <!-- Wordmark: translate(-X) pulls glyphs left inside 612px artboard (previous outer translate did not move text). -->
  <g
     transform="matrix(0.88,0,0,0.88,320.69676,-137.4868)"
     id="g156">
    <g
       clip-path="url(#qf-inline-text-zone)"
       transform="translate(-132,-115)"
       id="g155">
      <path
         fill="#0167a2"
         d="m 318.25,170.42 q 1.37,-0.88 3.42,-0.27 a 0.75,0.75 0 0 1 0.53,0.72 v 9.8 a 2.05,2.05 0 0 1 -0.89,1.69 l -18.16,12.36 a 0.97,0.97 0 0 0 -0.41,0.79 v 1.43 a 0.73,0.72 0 0 1 -0.73,0.72 h -0.65 a 0.73,0.73 0 0 1 -0.73,-0.73 v -2.34 a 1.38,1.36 -17.4 0 1 0.6,-1.13 l 18.32,-12.48 a 1.3,1.27 73.3 0 0 0.56,-1.07 v -7.03 a 0.78,0.76 -80.4 0 0 -0.51,-0.73 l -1.36,-0.48 a 0.35,0.35 0 0 0 -0.46,0.33 v 4.95 a 0.41,0.4 0 0 1 -0.41,0.4 h -41.46 a 0.66,0.65 0 0 1 -0.66,-0.65 v -11.78 a 0.45,0.45 0 0 1 0.45,-0.45 h 41.57 a 0.58,0.57 90 0 1 0.57,0.58 v 5.15 a 0.27,0.26 -16.4 0 0 0.41,0.22 z"
         id="path79" />
      <path
         fill="#0167a2"
         d="m 459.43,359.7 a 0.19,0.19 0 0 1 0.16,0.21 l -0.03,0.31 a 0.24,0.24 0 0 1 -0.25,0.21 q -22.85,-0.26 -313.55,-0.1 -12.14,0.01 -13.37,-0.2 3.23,-0.73 5.45,-1.01 12.59,-1.61 24.72,-2.7 a 0.59,0.59 0 0 0 0.53,-0.55 l 0.8,-11.12 a 0.47,0.47 0 0 0 -0.66,-0.47 l -0.41,0.18 a 1.13,1.11 -41.1 0 1 -1.02,-0.06 q -11.86,-6.98 -13.52,-7.93 -2.96,-1.7 -3.18,-2.7 a 0.48,0.47 10.3 0 0 -0.23,-0.32 l -28.2,-16.49 a 2.34,2.27 -3.4 0 1 -0.65,-0.56 c -2.21,-2.76 -4.07,-4.35 -3.21,-7.84 0.85,-3.49 4.11,-4.75 7.44,-4 q 0.97,0.22 2.38,0.33 a 2.56,2.49 61.7 0 1 1.14,0.36 l 26.93,15.86 a 1.02,0.9 82.1 0 1 0.28,0.24 l 0.53,0.71 a 0.54,0.54 0 0 0 0.7,0.14 l 1.47,-0.86 a 0.74,0.72 81.7 0 0 0.35,-0.48 l 1.28,-6.06 a 0.72,0.71 -78.1 0 1 0.84,-0.55 l 8.8,1.87 a 0.85,0.85 0 0 1 0.65,1.01 l -0.17,0.82 a 0.78,0.78 0 0 1 -0.92,0.6 l -6.5,-1.38 a 0.71,0.7 -77.8 0 0 -0.84,0.55 l -0.41,1.91 a 0.53,0.52 -84.7 0 0 0.52,0.63 c 4.32,-0.07 6.24,3.31 9.84,3.68 a 0.44,0.43 -76.5 0 0 0.46,-0.29 l 6.19,-17.57 a 1.04,1.02 28.7 0 0 -0.35,-1.16 l -37.11,-28.53 a 0.46,0.46 0 0 1 -0.09,-0.65 l 5.31,-6.9 a 0.51,0.51 0 0 1 0.69,-0.11 l 36.87,25.68 a 0.49,0.49 0 0 0 0.7,-0.17 q 8.54,-15.39 21.13,-28.32 1.01,-1.04 6.3,-6.25 a 0.64,0.63 49.4 0 0 0.06,-0.84 l -8.2,-10.92 a 1.72,1.72 0 0 0 -2.33,-0.39 q -2.36,1.6 -5.78,4.22 -0.58,0.44 -0.55,0.83 0.02,0.26 0.2,0.65 0.17,0.35 -0.05,0.6 -1.25,1.48 -2.79,0.65 a 0.76,0.75 41.6 0 0 -0.77,0.04 l -3.01,2.05 a 1.59,1.56 -12.9 0 0 -0.66,1.03 q -0.95,5.84 -6.73,4.96 a 1.59,1.58 -56.4 0 0 -1.08,0.22 c -1.34,0.82 -3.08,2.08 -2.24,3.91 q 0.7,1.55 2.16,2.22 a 0.65,0.65 0 0 1 0.12,1.11 l -3.22,2.42 a 0.49,0.49 0 0 1 -0.74,-0.2 c -1.59,-3.62 -4.43,-6.27 -1.44,-10.37 0.83,-1.13 3.84,-2.26 3.67,-3.84 q -0.3,-2.74 -2.32,-3.24 a 0.46,0.46 0 0 1 -0.2,-0.78 q 0.99,-0.92 0.56,-2.88 a 1.17,1.17 0 0 0 -1.94,-0.6 l -1.89,1.78 a 1.91,1.91 0 0 1 -2.87,-0.3 l -0.14,-0.2 a 1.57,1.57 0 0 1 0.34,-2.2 l 8.81,-6.49 a 1.88,1.88 0 0 1 2.57,0.32 l 0.08,0.1 a 1.82,1.82 0 0 1 -0.44,2.62 q -1.47,0.98 -2.52,1.62 a 1.5,1.3 17.7 0 0 1.45,2.37 q 0.55,-0.16 1.39,0.03 a 0.73,0.71 -2.8 0 1 0.52,0.46 q 0.68,1.92 2.76,3.15 a 0.98,0.97 -46.2 0 0 1.05,-0.03 l 3.16,-2.16 a 1.48,1.47 -12.7 0 0 0.63,-0.99 q 0.21,-1.27 0.97,-2.39 a 0.6,0.6 0 0 1 0.83,-0.15 q 0.5,0.35 0.97,0.45 a 1.32,1.3 32.2 0 0 1.05,-0.23 c 4.3,-3.24 10.12,-8.79 14.65,-1.84 q 2.31,3.54 7.01,9.76 a 0.6,0.59 -37.3 0 0 0.84,0.11 l 11.03,-8.28 a 0.65,0.65 0 0 0 0.2,-0.8 c -2.79,-5.86 -5.19,-10.96 -12.36,-8.09 a 0.18,0.17 -72.7 0 1 -0.16,-0.31 l 13.42,-9.14 a 0.20180436,0.20180436 0 0 1 0.27,0.3 c -4.46,5.26 0.21,10.21 3.23,14.36 a 0.82,0.81 56.7 0 0 1.08,0.23 q 10.76,-6.44 22.56,-10.78 a 0.38,0.38 0 0 0 0.2,-0.55 L 241.71,218 a 1.28,1.27 82.8 0 0 -0.76,-0.59 q -3.73,-1.08 -4.6,-1.71 -4.19,-3.04 -2.87,-7.95 a 0.52,0.51 37.5 0 1 0.94,-0.12 l 1.88,3.2 a 1.2,1.19 -11.5 0 0 0.9,0.59 q 3.83,0.45 4.9,-2.96 a 1.07,1.03 39.4 0 0 -0.1,-0.85 l -2.63,-4.51 a 0.47,0.46 -4.7 0 1 0.57,-0.67 q 4.81,1.83 6.12,6.45 c 0.52,1.85 -0.25,3.92 -0.46,5.85 a 1.44,1.41 33.4 0 0 0.18,0.83 l 9.26,15.84 a 0.74,0.74 0 0 0 0.81,0.34 l 15.17,-3.79 a 0.73,0.72 -7.2 0 0 0.55,-0.7 q -0.01,-1.46 -0.96,-4.72 c -0.62,-2.13 -3.52,-2.33 -3.95,-5.48 a 0.61,0.61 0 0 1 0.45,-0.67 l 1.01,-0.25 a 0.5,0.5 0 0 0 0.34,-0.69 l -7.92,-18.17 a 2.38,2.3 11.1 0 0 -0.55,-0.79 q -1.66,-1.55 -3.03,-4.99 a 0.72,0.71 -22.9 0 1 0.38,-0.92 l 2.26,-0.99 a 0.69,0.69 0 0 1 0.89,0.33 q 1.28,2.56 1.53,4.44 0.27,2.03 1.27,4.29 5.72,12.88 6.83,15.76 a 0.67,0.67 0 0 0 0.89,0.37 l 1.05,-0.45 a 0.79,0.79 0 0 1 1.02,0.36 q 1.01,1.95 0.68,4.27 c -0.33,2.38 3.07,6.05 4.61,7.49 a 0.73,0.73 0 0 0 0.57,0.2 l 17.88,-1.26 a 0.64,0.64 0 0 0 0.6,-0.64 v -23.91 a 0.85,0.82 25.3 0 0 -0.21,-0.55 l -1.14,-1.32 a 0.55,0.54 69.6 0 1 0.41,-0.9 h 9.74 a 0.63,0.63 0 0 1 0.31,1.17 c -1.28,0.73 -1.57,1.42 -1.59,2.93 q -0.21,20.33 -0.3,23.1 a 0.67,0.66 -86.9 0 0 0.61,0.69 q 12.08,0.88 22.2,3.32 a 0.92,0.9 23.6 0 0 0.97,-0.37 c 0.85,-1.27 2,-3.92 3.4,-4.95 q 0.63,-0.47 0.58,-1.07 a 3,2.96 -58.6 0 0 -0.16,-0.68 c -0.42,-1.05 -2.21,-2.42 -2.39,-4.03 q -0.38,-3.27 2.72,-5.13 a 0.18,0.17 61.1 0 0 0.06,-0.23 v -0.01 a 0.17,0.17 0 0 0 -0.24,-0.06 q -2,1.22 -2.13,2.05 a 0.94,0.94 0 0 1 -1.77,0.26 c -2.22,-4.48 0.54,-8.33 4.07,-11.75 q 10.09,-9.74 18.51,-16.47 a 1.02,1.02 0 0 1 1.57,1.22 l -9.51,21 a 5.67,5.63 77.7 0 1 -0.81,1.27 q -3.43,4.02 -8.57,5.57 -0.32,0.09 -0.66,-0.14 a 0.57,0.56 36.7 0 0 -0.77,0.11 c -1.67,2.11 0.21,3.66 1.39,5.06 a 2.44,2.31 18.1 0 1 0.47,0.87 q 0.37,1.27 0.16,2.93 a 0.81,0.81 0 0 0 0.25,0.71 q 0.54,0.5 0.26,1.09 -1.06,2.19 -1.4,3.69 a 0.58,0.58 0 0 0 0.37,0.67 l 12.72,4.48 a 1.1,1.04 -37.9 0 0 0.52,0.05 l 5.48,-0.88 a 4.33,4.21 41.4 0 1 1.05,-0.05 q 0.21,0.01 2.88,1.3 3.5,1.67 5.26,-1.74 2.18,-4.22 3.16,-5.66 a 1.11,1.1 55.4 0 0 0.16,-0.87 l -0.59,-2.34 a 0.82,0.82 0 0 1 0.25,-0.81 l 2.28,-1.97 a 1.05,1.05 0 0 0 0.23,-1.31 c -1.18,-2.11 -2.53,-4.9 -4.9,-7.01 q -3.29,-2.93 -3.34,-7.99 a 0.42,0.42 0 0 1 0.62,-0.38 c 1.46,0.77 2.96,0 4.62,0.93 q 2.23,1.25 4.04,3.49 a 3.8,3.71 -4.1 0 0 1.02,0.86 l 4.44,2.57 a 0.11,0.09 77.6 0 1 0.05,0.04 l 9.15,8.29 a 1.64,1.58 -88.9 0 1 0.25,0.27 l 4.62,6.15 a 1.29,1.26 31.1 0 1 0.24,0.93 c -0.61,4.39 -4.67,7.25 -8.75,5.54 -1.77,-0.74 -3.01,-2.07 -4.74,-3.66 a 1.57,1.56 36.1 0 0 -2.42,0.38 q -3.22,5.64 -7.35,9.66 a 2.22,2.22 0 0 0 0.29,3.41 l 16.31,11.36 a 0.55,0.55 0 0 0 0.74,-0.1 q 12.16,-14.64 15.78,-18.93 0.47,-0.57 0.08,-1.29 a 0.38,0.38 0 0 1 0.56,-0.48 l 1.9,1.46 a 0.4,0.4 0 0 1 -0.33,0.71 l -0.59,-0.12 a 0.62,0.62 0 0 0 -0.61,0.21 l -16,19.2 a 0.54,0.53 -48 0 0 0.03,0.72 l 7.76,7.76 a 0.85,0.85 0 0 0 1.04,0.13 q 9.81,-5.83 20.81,-12.57 a 0.55,0.53 -20.4 0 1 0.83,0.36 q 0.06,0.41 0.35,0.41 a 0.18,0.18 0 0 0 0.13,-0.31 q -0.69,-0.72 -0.71,-1.3 a 0.98,0.98 0 0 1 0.45,-0.86 q 3.25,-2.12 5.86,-3.57 0.48,-0.27 0.63,-0.12 0.19,0.21 0.28,0.19 a 0.36,0.36 0 0 0 0.26,-0.54 l -3.37,-5.47 a 0.93,0.93 0 0 1 0.14,-1.15 c 7.6,-7.51 17.8,-11.39 27.74,-6.25 a 0.73,0.71 13.5 0 1 0.39,0.62 c 0.17,11.32 -8.12,18.88 -18.44,21.8 A 0.96,0.95 66.4 0 1 425.99,256 l -3.08,-5.27 a 0.34,0.34 0 0 0 -0.55,-0.05 q -0.78,0.92 -5.46,3.72 -1.46,0.87 -1.95,0.31 a 0.31,0.3 -36.3 0 0 -0.37,-0.05 l -20.63,12.06 a 0.9,0.9 0 0 0 -0.2,1.4 q 10.96,11.5 18.54,25.32 a 0.73,0.73 0 0 0 1.01,0.28 l 80.86,-47.28 a 0.54,0.53 -35.4 0 1 0.68,0.11 l 4.67,5.39 a 0.79,0.79 0 0 1 -0.08,1.11 l -62.71,54.27 a 0.9,0.88 43 0 1 -1.12,0.03 l -7.93,-6.1 a 2.89,2.88 -24.2 0 0 -1.56,-0.59 l -9.79,-0.7 a 0.16,0.16 0 0 0 -0.17,0.14 l -0.03,0.29 a 0.4,0.39 5.5 0 0 0.37,0.44 l 9.21,0.66 a 3.13,3.12 65.9 0 1 1.67,0.64 l 7.62,5.86 a 0.5,0.49 43 0 1 0.03,0.77 l -11.08,9.59 a 0.84,0.84 0 0 0 -0.27,0.85 l 2.73,10.93 a 0.36,0.36 0 0 0 0.48,0.25 l 27.11,-10.08 a 1.5,1.46 -83.1 0 0 0.73,-0.59 q 1.64,-2.58 3.46,-3.26 c 8.16,-3.04 9.85,12.1 -1.29,8.87 a 1.53,1.53 0 0 0 -0.95,0.03 l -27.86,10.37 a 0.75,0.75 0 0 0 -0.47,0.83 q 1.69,9.47 1.8,19.28 a 0.47,0.46 3.5 0 0 0.41,0.46 z"
         id="path80" />
      <g
         stroke-width="2"
         fill="none"
         stroke-linecap="butt"
         id="g84">
        <path
           stroke="#7cc7df"
           vector-effect="non-scaling-stroke"
           d="m 380.18,321.78 0.07,8.87 a 0.52,0.52 0 0 1 -0.51,0.52 l -2.53,0.05"
           id="path81" />
        <path
           stroke="#7cc7df"
           vector-effect="non-scaling-stroke"
           d="m 385.13,332.39 q -1.65,-0.33 -2.97,0.16 a 0.73,0.71 -12.3 0 0 -0.47,0.71 l 0.42,8.66"
           id="path82" />
        <path
           stroke="#7cc7df"
           vector-effect="non-scaling-stroke"
           d="m 380.21,341.74 -0.1,-8.86 a 0.55,0.55 0 0 0 -0.56,-0.54 l -2.75,0.07"
           id="path83" />
        <path
           stroke="#7cc7df"
           vector-effect="non-scaling-stroke"
           d="m 384.7,331.18 h -2.42 a 0.61,0.61 0 0 1 -0.6,-0.6 l -0.03,-8.71"
           id="path84" />
      </g>
      <ellipse
         fill="#98c54c"
         cx="0"
         cy="0"
         transform="rotate(-50.3,384.32379,-265.53158)"
         rx="1.33"
         ry="0.20999999"
         id="ellipse84" />
      <rect
         fill="#f8faf5"
         x="-0.20999999"
         y="-6.9000001"
         transform="rotate(35.9,-150.70082,624.78539)"
         width="0.41999999"
         height="13.8"
         rx="0.20999999"
         id="rect84" />
      <path
         fill="#0167a2"
         d="m 200.29,217.53 -2.02,-1.11 a 0.41,0.4 -48.8 0 1 -0.04,-0.68 q 3.12,-2.29 5.33,-2.62 2.3,-0.33 3.15,-0.58 2.02,-0.58 3.13,-0.26 c 4.06,1.21 7.44,5.21 9.43,8.82 a 0.99,0.98 58.8 0 1 -0.31,1.3 l -14.77,10.07 a 0.51,0.51 0 0 1 -0.75,-0.22 q -2.91,-6.75 -7.9,-11 a 0.57,0.57 0 0 0 -0.2,-0.1 l -2.31,-0.49 a 0.38,0.37 -59.9 0 1 -0.17,-0.65 q 2.34,-2.1 5.24,-2.21 1.07,-0.04 1.27,0.06 0.78,0.41 0.83,0.39 a 0.39,0.39 0 0 0 0.09,-0.72 z"
         id="path85" />
      <path
         fill="#98c54c"
         d="m 334.22,213.45 q 0.06,0.7 -0.49,1.34 a 0.32,0.32 0 0 1 -0.56,-0.23 q 0.02,-0.32 0.62,-1.22 a 0.24,0.23 -30.3 0 1 0.43,0.11 z"
         id="path86" />
      <rect
         fill="#0167a2"
         x="-9.75"
         y="-2.1600001"
         transform="rotate(-35.2,470.46784,-222.26817)"
         width="19.5"
         height="4.3200002"
         rx="0.60000002"
         id="rect86" />
      <path
         fill="#98c54c"
         d="m 333.21,225.54 q 0.05,0.37 -0.62,0.3 -0.48,-0.05 -0.48,-0.46 0.01,-0.53 0.43,-0.57 a 0.33,0.32 -21.9 0 1 0.29,0.12 l 0.3,0.42 a 0.34,0.32 -69.7 0 1 0.08,0.19 z"
         id="path87" />
      <path
         fill="#f8faf5"
         d="m 236.87,297.12 a 0.19,0.19 0 0 1 -0.24,0.12 h -0.01 a 0.16,0.15 -75.5 0 1 -0.1,-0.18 q 2.55,-11.31 3.31,-23.01 a 0.44,0.44 0 0 0 -0.44,-0.47 h -33.78 a 0.56,0.55 7.4 0 0 -0.54,0.41 q -1.39,5.56 -3.55,10.55 -6.2,14.3 -15.57,33.19 a 0.69,0.68 -76.8 0 0 0.61,0.99 h 6.77 a 0.59,0.58 0 0 1 0.59,0.58 v 34.47 a 0.29,0.29 0 0 1 -0.27,0.29 l -25.84,1.82 a 0.94,0.94 0 0 1 -1.01,-0.98 q 2.31,-45.98 30.25,-79.11 c 22.97,-27.25 55.45,-44 90.89,-46.11 q 37.96,-2.26 70.41,15.5 c 40.45,22.14 66.37,64.14 67.3,110.38 a 0.4,0.39 -88.7 0 1 -0.42,0.41 l -26.53,-1.9 a 0.55,0.55 0 0 1 -0.52,-0.55 v -34.25 a 0.58,0.57 0 0 1 0.58,-0.57 h 6.92 a 0.59,0.59 0 0 0 0.53,-0.85 c -6.54,-13.31 -14.43,-28.71 -19.3,-43.75 a 0.76,0.75 81 0 0 -0.72,-0.53 h -33.16 a 0.74,0.73 -1.8 0 0 -0.74,0.78 q 0.67,11.16 3.25,22.29 a 0.13,0.12 -17.7 0 1 -0.08,0.15 l -0.12,0.05 a 0.19,0.18 68 0 1 -0.25,-0.11 q -6.07,-16.77 -8.14,-34.01 a 0.71,0.71 0 0 0 -0.7,-0.62 h -8.16 a 0.61,0.6 2.2 0 1 -0.61,-0.65 l 0.5,-6.97 a 0.59,0.59 0 0 0 -0.59,-0.64 h -8.08 a 0.48,0.48 0 0 0 -0.48,0.52 l 0.51,7.32 a 0.41,0.4 88 0 1 -0.4,0.44 h -83.15 a 0.66,0.65 3.5 0 0 -0.65,0.57 q -2.2,17.87 -8.27,34.43 z"
         id="path88" />
      <path
         fill="#f8faf5"
         d="m 434.92,251.45 q 6.23,-4.61 8.62,-11.89 a 0.35,0.34 16.8 0 1 0.42,-0.22 l 0.01,0.01 a 0.29,0.28 -76.8 0 1 0.2,0.33 c -1.13,5.32 -4.84,9.07 -8.99,12.3 a 0.23,0.23 0 0 1 -0.32,-0.04 0.35,0.34 52.5 0 1 0.06,-0.49 z"
         id="path89" />
      <path
         fill="#f8faf5"
         d="m 435.75,239.81 a 0.11,0.11 0 0 1 0.15,0.04 h 0.01 a 6.74,1.26 -31.1 0 1 -5.12,4.56 l -1.65,1 a 6.74,1.26 -31.1 0 1 -6.42,2.4 v -0.01 a 0.11,0.11 0 0 1 0.03,-0.15 z"
         id="path90" />
      <path
         fill="#98c54c"
         d="m 175.43,252.24 q 0.15,0.11 0.15,0.33 a 0.37,0.37 0 0 1 -0.23,0.33 q -0.98,0.4 -2.1,-0.22 a 0.16,0.15 -55.4 0 1 -0.04,-0.24 0.3,0.3 0 0 1 0.46,0 q 0.77,0.92 1.37,-0.11 a 0.28,0.28 0 0 1 0.39,-0.09 z"
         id="path91" />
      <path
         fill="#0167a2"
         d="m 121.4,286.53 -8.85,-6.8 a 0.63,0.62 34.6 0 1 -0.15,-0.81 q 0.39,-0.67 1.84,-2.62 0.58,-0.79 2.72,-1.48 4.18,-1.34 4.22,-5.89 c 0.02,-2.59 0.95,-3.5 2.24,-5.27 q 3.58,-4.97 5.32,-6.92 c 4.39,-4.94 17.21,-1.23 22.55,0.61 a 1.18,1.17 11.9 0 1 0.79,1.2 l -0.02,0.37 a 0.56,0.55 10.2 0 1 -0.71,0.49 q -7.31,-2.13 -10.54,0.14 -2.45,1.71 -2.34,4.11 c 0.09,1.67 1.43,2.84 2.3,4.14 a 0.89,0.87 -43.5 0 1 -0.04,1.03 l -4.67,6.07 a 1.15,1.13 27.1 0 1 -1.25,0.39 q -4.34,-1.4 -7.49,2.03 c -2.43,2.64 -2.13,6.4 -5.02,9.16 a 0.69,0.69 0 0 1 -0.9,0.05 z"
         id="path92" />
      <path
         fill="#f8faf5"
         d="m 296.07,275.65 q 0.23,0 0.4,0.13 16.01,12.36 40.31,31.07 a 2.02,1.98 63.2 0 0 1.21,0.41 h 19.85 a 0.3,0.3 0 0 1 0.3,0.3 v 4.34 a 0.33,0.33 0 0 1 -0.33,0.33 h -4.65 a 0.55,0.54 0 0 0 -0.55,0.54 v 34.73 a 0.45,0.44 90 0 1 -0.44,0.45 h -2.37 a 0.52,0.52 0 0 1 -0.52,-0.52 v -11.02 a 0.47,0.47 0 0 0 -0.47,-0.47 h -0.37 a 0.27,0.27 0 0 0 -0.27,0.27 v 11.34 a 0.34,0.33 90 0 1 -0.33,0.34 h -0.45 a 0.21,0.21 0 0 1 -0.21,-0.21 v -11.09 a 0.61,0.61 0 0 0 -0.61,-0.61 h -0.35 a 0.42,0.41 0 0 0 -0.42,0.41 v 11.08 a 0.42,0.42 0 0 1 -0.42,0.42 h -0.31 a 0.34,0.34 0 0 1 -0.34,-0.34 v -10.87 a 0.81,0.81 0 0 0 -0.81,-0.81 h -0.32 a 0.44,0.44 0 0 0 -0.44,0.44 v 11.29 a 0.3,0.3 0 0 1 -0.3,0.3 h -0.29 a 0.41,0.4 0 0 1 -0.41,-0.4 v -10.97 a 0.58,0.58 0 0 0 -0.58,-0.58 h -0.32 a 0.54,0.54 0 0 0 -0.54,0.54 v 11.14 a 0.28,0.27 0 0 1 -0.28,0.27 h -0.35 a 0.39,0.38 0 0 1 -0.39,-0.38 l -0.05,-10.95 a 0.73,0.73 0 0 0 -0.76,-0.73 h -0.05 a 0.79,0.79 0 0 0 -0.71,0.79 v 10.93 a 0.39,0.38 90 0 1 -0.38,0.39 h -0.34 a 0.29,0.28 -90 0 1 -0.28,-0.29 V 336.4 a 0.43,0.43 0 0 0 -0.43,-0.43 h -0.42 a 0.58,0.57 -90 0 0 -0.57,0.58 v 10.98 a 0.4,0.4 0 0 1 -0.4,0.4 h -0.37 a 0.28,0.28 0 0 1 -0.28,-0.28 v -11.13 a 0.53,0.52 -90 0 0 -0.52,-0.53 h -0.26 a 0.4,0.39 -90 0 0 -0.39,0.4 v 10.87 a 0.68,0.67 90 0 1 -0.67,0.68 h -2.07 a 0.55,0.54 -90 0 1 -0.54,-0.55 v -34.6 a 0.55,0.55 0 0 0 -0.55,-0.55 h -12.25 a 0.46,0.45 90 0 0 -0.45,0.46 v 34.68 a 0.54,0.53 -90 0 1 -0.53,0.54 h -2.25 a 0.56,0.56 0 0 1 -0.56,-0.56 v -34.58 a 0.51,0.5 2.3 0 0 -0.47,-0.5 q -0.3,-0.02 -17.08,-0.02 -16.78,0 -17.08,0.03 a 0.51,0.5 -2.3 0 0 -0.46,0.49 v 34.58 a 0.56,0.56 0 0 1 -0.55,0.56 l -2.25,0.01 a 0.54,0.53 90 0 1 -0.54,-0.54 v -34.68 a 0.46,0.45 90 0 0 -0.45,-0.46 h -12.25 a 0.55,0.55 0 0 0 -0.55,0.55 v 34.6 a 0.55,0.54 90 0 1 -0.53,0.55 h -2.07 a 0.68,0.67 90 0 1 -0.68,-0.68 V 336.4 a 0.4,0.39 90 0 0 -0.39,-0.4 h -0.26 a 0.53,0.52 90 0 0 -0.52,0.53 v 11.13 a 0.28,0.28 0 0 1 -0.27,0.28 h -0.37 a 0.4,0.4 0 0 1 -0.41,-0.4 v -10.98 a 0.58,0.57 90 0 0 -0.57,-0.58 h -0.42 a 0.43,0.43 0 0 0 -0.43,0.43 v 11.26 a 0.29,0.28 90 0 1 -0.27,0.29 h -0.34 a 0.39,0.38 90 0 1 -0.39,-0.39 v -10.93 a 0.79,0.79 0 0 0 -0.71,-0.79 h -0.05 a 0.73,0.73 0 0 0 -0.76,0.73 l -0.05,10.95 a 0.39,0.38 0 0 1 -0.38,0.38 h -0.35 a 0.28,0.27 0 0 1 -0.29,-0.27 V 336.5 a 0.54,0.54 0 0 0 -0.54,-0.54 h -0.32 a 0.58,0.58 0 0 0 -0.58,0.58 v 10.97 a 0.41,0.4 0 0 1 -0.4,0.4 h -0.29 a 0.3,0.3 0 0 1 -0.31,-0.3 v -11.29 a 0.44,0.44 0 0 0 -0.44,-0.44 h -0.32 a 0.81,0.81 0 0 0 -0.81,0.81 v 10.87 a 0.34,0.34 0 0 1 -0.33,0.34 h -0.31 a 0.42,0.42 0 0 1 -0.43,-0.42 V 336.4 a 0.42,0.41 0 0 0 -0.42,-0.41 h -0.35 a 0.61,0.61 0 0 0 -0.61,0.61 v 11.09 a 0.21,0.21 0 0 1 -0.2,0.21 h -0.45 a 0.34,0.33 90 0 1 -0.34,-0.34 v -11.34 a 0.27,0.27 0 0 0 -0.27,-0.27 h -0.37 a 0.47,0.47 0 0 0 -0.47,0.47 v 11.02 a 0.52,0.52 0 0 1 -0.51,0.52 h -2.37 a 0.45,0.44 90 0 1 -0.45,-0.45 v -34.73 a 0.55,0.54 0 0 0 -0.55,-0.54 l -4.65,0.01 a 0.33,0.33 0 0 1 -0.33,-0.33 L 234,307.58 a 0.3,0.3 0 0 1 0.3,-0.3 l 19.85,-0.01 a 2.02,1.98 -63.2 0 0 1.21,-0.41 q 24.3,-18.72 40.31,-31.08 0.16,-0.13 0.4,-0.13 z"
         id="path93" />
      <path
         fill="#0167a2"
         d="m 261.25,307.18 34.6,-26.73 a 0.33,0.33 0 0 1 0.4,0 l 34.6,26.73 a 0.33,0.33 0 0 1 -0.2,0.59 h -69.2 a 0.33,0.33 0 0 1 -0.2,-0.59 z"
         id="path94" />
      <path
         fill="#f8faf5"
         d="m 264.19,306.18 31.65,-24.41 a 0.34,0.34 0 0 1 0.42,0 l 31.65,24.41 a 0.34,0.34 0 0 1 -0.21,0.61 h -63.3 a 0.34,0.34 0 0 1 -0.21,-0.61 z"
         id="path95" />
      <path
         fill="#0167a2"
         d="m 296.47,298.66 q 0.19,-0.04 0.22,-0.03 a 0.59,0.59 0 0 1 0.27,0.85 q -0.33,0.52 -1.21,0.42 a 0.54,0.53 4.2 0 1 -0.47,-0.54 q 0.03,-1.22 -1.43,-1.86 c -1.59,-0.68 -1.59,-2.78 -3.38,-2.79 a 0.65,0.65 0 0 1 -0.65,-0.63 q -0.05,-1.3 0.94,-1.83 c 1.51,-0.8 1.98,-2.1 3.78,-3.15 a 1.18,1.18 0 0 0 0.57,-0.83 q 0.06,-0.3 0.01,-0.43 a 0.53,0.52 70.6 0 1 0.3,-0.63 q 0.5,-0.22 0.9,-0.11 a 0.72,0.71 12.8 0 1 0.53,0.83 q 0,0.04 -0.01,0.08 a 0.57,0.55 27 0 0 0.21,0.62 c 1.21,0.88 2.09,1.36 2.98,2.74 q 0.63,0.98 1.22,0.99 a 1.2,1.15 -51.5 0 1 0.21,2.31 q -0.48,0.14 -0.57,0.18 a 1.6,1.53 -86.4 0 0 -0.74,0.68 q -0.85,1.52 -3.03,2.77 a 0.19,0.18 -30.1 0 1 -0.25,-0.06 c -0.12,-0.2 -0.43,-0.22 -0.52,0.01 q -0.02,0.05 -0.01,0.31 a 0.11,0.11 0 0 0 0.13,0.1 z"
         id="path96" />
      <path
         fill="#f8faf5"
         d="m 296.09,297.4 q -2,0 -3.47,-2.62 -0.38,-0.67 -1.05,-0.74 a 0.45,0.45 0 0 1 -0.02,-0.89 q 0.88,-0.14 1.16,-0.98 c 0.45,-1.36 1.89,-2.16 3.2,-2.83 a 0.14,0.01 -30 0 1 0.11,-0.05 q 0.03,0 0.06,0 0.03,0 0.06,0 a 0.14,0.01 29.8 0 1 0.11,0.05 c 1.31,0.67 2.75,1.46 3.21,2.82 q 0.28,0.84 1.16,0.97 a 0.45,0.45 0 0 1 -0.02,0.89 q -0.67,0.08 -1.04,0.75 -1.47,2.63 -3.47,2.63 z"
         id="path97" />
      <path
         fill="#f8faf5"
         d="m 147.424,327.2387 a 2.77,2.77 0 0 1 -3.7926,0.9809 L 117.076,312.5772 a 2.77,2.77 0 0 1 -0.9809,-3.7925 l 0.0609,-0.1034 a 2.77,2.77 0 0 1 3.7926,-0.9809 l 26.5554,15.6424 a 2.77,2.77 0 0 1 0.9809,3.7925 z"
         id="path98" />
      <rect
         fill="#0167a2"
         x="-16.25"
         y="-1"
         transform="rotate(30.5,-517.39361,400.68338)"
         width="32.5"
         height="2"
         rx="0.98000002"
         id="rect98" />
      <rect
         fill="#0167a2"
         x="-7.8899999"
         y="-11.4"
         transform="rotate(0.1,-185306.65,143819.49)"
         width="15.78"
         height="22.799999"
         rx="0.47999999"
         id="rect99" />
      <rect
         fill="#0167a2"
         x="333.54001"
         y="312.26001"
         width="15.76"
         height="22.76"
         rx="0.43000001"
         id="rect100" />
      <path
         fill="#f8faf5"
         d="m 286.78,324.43 a 0.13,0.13 0 0 1 -0.13,-0.13 v -0.08 a 9.26,6.69 -0.2 0 1 9.24,-6.72 h 0.34 a 9.26,6.69 -0.2 0 1 9.28,6.66 v 0.08 a 0.13,0.13 0 0 1 -0.13,0.13 z"
         id="path100" />
      <circle
         fill="#f8faf5"
         cx="459.98999"
         cy="320.89999"
         r="3.3800001"
         id="circle100" />
      <rect
         fill="#f8faf5"
         x="-1.86"
         y="-4.8200002"
         transform="rotate(0.1,-186937.63,119785.32)"
         width="3.72"
         height="9.6400003"
         rx="0.46000001"
         id="rect101" />
      <rect
         fill="#f8faf5"
         x="211.78"
         y="321.63"
         width="3.5999999"
         height="9.6400003"
         rx="0.44999999"
         id="rect102" />
      <rect
         fill="#f8faf5"
         x="-1.8099999"
         y="-4.75"
         transform="rotate(-0.2,93617.297,-64893.232)"
         width="3.6199999"
         height="9.5"
         rx="0.31"
         id="rect103" />
      <rect
         fill="#f8faf5"
         x="230.08"
         y="321.60001"
         width="3.5999999"
         height="9.5600004"
         rx="0.41"
         id="rect104" />
      <rect
         fill="#f8faf5"
         x="-1.83"
         y="-4.8000002"
         transform="rotate(-0.1,187182.04,-206244.8)"
         width="3.6600001"
         height="9.6000004"
         rx="0.40000001"
         id="rect105" />
      <rect
         fill="#f8faf5"
         x="-1.85"
         y="-4.7600002"
         transform="rotate(-0.1,187184.43,-208977.81)"
         width="3.7"
         height="9.5200005"
         rx="0.41999999"
         id="rect106" />
      <path
         fill="#f8faf5"
         d="m 380.18,321.78 0.07,8.87 a 0.52,0.52 0 0 1 -0.51,0.52 l -2.53,0.05 q -0.13,-0.06 -0.28,-0.15 a 0.41,0.41 0 0 1 -0.2,-0.35 v -8.33 a 0.69,0.69 0 0 1 0.54,-0.67 q 1.5,-0.32 2.91,0.06 z"
         id="path106" />
      <path
         fill="#f8faf5"
         d="m 384.7,331.18 h -2.42 a 0.61,0.61 0 0 1 -0.6,-0.6 l -0.03,-8.71 q 1.41,-0.52 3.01,-0.17 a 0.69,0.67 -84.3 0 1 0.54,0.67 v 8.32 a 0.35,0.34 -25.1 0 1 -0.09,0.23 q -0.15,0.18 -0.41,0.26 z"
         id="path107" />
      <path
         fill="#0094c9"
         d="m 381.65,321.87 0.03,8.71 a 0.61,0.61 0 0 0 0.6,0.6 h 2.42 l 0.43,1.21 q -1.65,-0.33 -2.97,0.16 a 0.73,0.71 -12.3 0 0 -0.47,0.71 l 0.42,8.66 q -0.03,0.37 -1.9,-0.18 l -0.1,-8.86 a 0.55,0.55 0 0 0 -0.56,-0.54 l -2.75,0.07 0.41,-1.19 2.53,-0.05 a 0.52,0.52 0 0 0 0.51,-0.52 l -0.07,-8.87 q 0.77,0.2 1.47,0.09 z"
         id="path108" />
      <rect
         fill="#f8faf5"
         x="264.20001"
         y="322.34"
         width="3.6600001"
         height="9.6000004"
         rx="0.44999999"
         id="rect108" />
      <rect
         fill="#f8faf5"
         x="-1.8099999"
         y="-4.79"
         transform="rotate(0.2,-93588.931,77747.716)"
         width="3.6199999"
         height="9.5799999"
         rx="0.46000001"
         id="rect109" />
      <rect
         fill="#f8faf5"
         x="-1.83"
         y="-4.8200002"
         transform="rotate(-0.2,93890.731,-91887.716)"
         width="3.6600001"
         height="9.6400003"
         rx="0.37"
         id="rect110" />
      <rect
         fill="#f8faf5"
         x="324.29001"
         y="322.35001"
         width="3.6400001"
         height="9.6199999"
         rx="0.50999999"
         id="rect111" />
      <rect
         fill="#f8faf5"
         x="286.37"
         y="325.78"
         width="19.42"
         height="20.360001"
         rx="0.28999999"
         id="rect112" />
      <rect
         fill="#f8faf5"
         x="-4"
         y="-0.31999999"
         transform="rotate(30,-539.50909,464.68103)"
         width="8"
         height="0.63999999"
         rx="0.31"
         id="rect113" />
      <rect
         fill="#f8faf5"
         x="-4.04"
         y="-0.31999999"
         transform="rotate(29.8,-548.27231,465.55868)"
         width="8.0799999"
         height="0.63999999"
         rx="0.31"
         id="rect114" />
      <rect
         fill="#f8faf5"
         x="-1.86"
         y="-4.79"
         transform="rotate(0.1,-193062.55,119790.67)"
         width="3.72"
         height="9.5799999"
         rx="0.56999999"
         id="rect115" />
      <rect
         fill="#f8faf5"
         x="-1.8099999"
         y="-4.8000002"
         transform="rotate(-0.1,193233.62,-122198.03)"
         width="3.6199999"
         height="9.6000004"
         rx="0.36000001"
         id="rect116" />
      <rect
         fill="#f8faf5"
         x="-1.79"
         y="-4.8200002"
         transform="rotate(0.4,-48176.574,32696.679)"
         width="3.5799999"
         height="9.6400003"
         rx="0.43000001"
         id="rect117" />
      <rect
         fill="#f8faf5"
         x="-1.8200001"
         y="-4.8000002"
         transform="rotate(0.3,-64261.461,44450.437)"
         width="3.6400001"
         height="9.6000004"
         rx="0.41"
         id="rect118" />
      <rect
         fill="#f8faf5"
         x="-1.84"
         y="-4.8000002"
         transform="rotate(0.1,-192958.17,206576.54)"
         width="3.6800001"
         height="9.6000004"
         rx="0.38999999"
         id="rect119" />
      <rect
         fill="#f8faf5"
         x="363.17999"
         y="332.31"
         width="3.7"
         height="9.6400003"
         rx="0.5"
         id="rect120" />
      <path
         fill="#f8faf5"
         d="m 380.21,341.74 q -1.45,0.34 -2.85,0.12 a 0.61,0.6 -85.6 0 1 -0.51,-0.6 l -0.05,-8.85 2.75,-0.07 a 0.55,0.55 0 0 1 0.56,0.54 z"
         id="path120" />
      <path
         fill="#f8faf5"
         d="m 385.13,332.39 -0.04,8.91 a 0.54,0.54 0 0 1 -0.52,0.53 l -2.46,0.09 -0.42,-8.66 a 0.73,0.71 -12.3 0 1 0.47,-0.71 q 1.32,-0.49 2.97,-0.16 z"
         id="path121" />
      <rect
         fill="#f8faf5"
         x="-1.8200001"
         y="-4.8099999"
         transform="rotate(0.1,-193457.91,152598.59)"
         width="3.6400001"
         height="9.6199999"
         rx="0.37"
         id="rect121" />
      <rect
         fill="#f8faf5"
         x="-1.79"
         y="-4.7800002"
         transform="rotate(0.1,-193455.51,155354.52)"
         width="3.5799999"
         height="9.5600004"
         rx="0.38999999"
         id="rect122" />
      <rect
         fill="#f8faf5"
         x="-1.8"
         y="-4.7800002"
         transform="rotate(-0.3,64685.11,-61198.534)"
         width="3.5999999"
         height="9.5600004"
         rx="0.34"
         id="rect123" />
      <rect
         fill="#f8faf5"
         x="-1.8099999"
         y="-4.79"
         transform="rotate(0.3,-64363.309,62449.3)"
         width="3.6199999"
         height="9.5799999"
         rx="0.43000001"
         id="rect124" />
      <path
         fill="#f8faf5"
         d="m 157.91,335.82 q 3.35,2.01 3.18,2.29 -0.16,0.27 -3.51,-1.74 -3.35,-2.01 -3.18,-2.29 0.16,-0.27 3.51,1.74 z"
         id="path124" />
      <path
         fill="#0094c9"
         d="m 224.41,411.21 4.7,2.71 a 0.68,0.68 0 0 1 0.25,0.93 l -2.1,3.63 a 0.96,0.96 0 0 1 -1.31,0.35 l -7.22,-4.17 a 0.74,0.73 49.1 0 0 -0.64,-0.05 q -5.68,2.16 -12.12,0.95 c -12,-2.25 -15.2,-14.24 -13.12,-24.85 1.52,-7.8 7.62,-13.19 15.64,-13.6 q 16.38,-0.83 19.41,14.6 1.99,10.13 -3.68,18.67 a 0.58,0.58 0 0 0 0.19,0.83 z"
         id="path125" />
      <rect
         fill="#0094c9"
         x="-3.5799999"
         y="-3"
         transform="rotate(0.1,-218167.95,154482.27)"
         width="7.1599998"
         height="6"
         rx="0.54000002"
         id="rect125" />
      <path
         fill="#0094c9"
         d="m 323.91,388.01 h 8.41 a 0.32,0.32 0 0 1 0.22,0.55 l -8.99,8.99 a 0.32,0.32 0 0 0 -0.05,0.38 l 9.69,16.58 a 0.32,0.32 0 0 1 -0.28,0.48 h -6.85 a 0.32,0.32 0 0 1 -0.27,-0.16 l -6.71,-11.47 a 0.32,0.32 0 0 0 -0.5,-0.07 l -2.88,2.87 a 0.32,0.32 0 0 0 -0.09,0.22 v 8.29 a 0.32,0.32 0 0 1 -0.32,0.32 h -6.5 a 0.32,0.32 0 0 1 -0.32,-0.32 v -36.34 a 0.32,0.32 0 0 1 0.32,-0.32 h 6.5 a 0.32,0.32 0 0 1 0.32,0.32 v 18.59 a 0.32,0.32 0 0 0 0.57,0.2 l 7.48,-8.99 a 0.32,0.32 0 0 1 0.25,-0.12 z"
         id="path126" />
      <path
         fill="#98c54c"
         d="m 374.87,393.46 v 5.08 a 0.44,0.44 0 0 1 -0.44,0.44 h -14.65 a 0.44,0.44 0 0 0 -0.44,0.44 v 15.13 a 0.44,0.44 0 0 1 -0.44,0.44 h -6.63 a 0.44,0.44 0 0 1 -0.44,-0.44 v -36.11 a 0.44,0.44 0 0 1 0.44,-0.44 h 24.65 a 0.44,0.44 0 0 1 0.44,0.44 v 5.11 a 0.44,0.44 0 0 1 -0.44,0.44 h -17.14 a 0.44,0.44 0 0 0 -0.44,0.44 v 8.15 a 0.44,0.44 0 0 0 0.44,0.44 h 14.65 a 0.44,0.44 0 0 1 0.44,0.44 z"
         id="path127" />
      <rect
         fill="#98c54c"
         x="-3.5899999"
         y="-2.98"
         transform="rotate(0.3,-72573.744,74155.368)"
         width="7.1799998"
         height="5.96"
         rx="0.67000002"
         id="rect127" />
      <path
         fill="#f8faf5"
         d="m 212.31,409.7 q -4.38,1.02 -7.86,-1.61 c -4.64,-3.49 -4.99,-11.17 -3.99,-16.36 2.21,-11.4 17.23,-11.74 19.58,-0.34 1.05,5.08 0.67,10.4 -1.96,14.86 a 0.53,0.53 0 0 1 -0.72,0.19 l -5.77,-3.33 a 0.82,0.82 0 0 0 -1.12,0.29 l -1.68,2.92 a 0.55,0.54 -60.2 0 0 0.2,0.75 l 3.41,1.97 a 0.36,0.36 0 0 1 -0.09,0.66 z"
         id="path128" />
      <path
         fill="#0094c9"
         d="m 303.48,406.38 c -1.99,6.59 -7.09,9.2 -13.88,8.49 -9.57,-0.99 -12.53,-9.33 -11,-17.83 1.55,-8.69 10.77,-11.94 18.29,-9.11 q 4.2,1.57 5.92,5.89 a 0.79,0.79 0 0 1 -0.54,1.06 l -4.91,1.22 a 1.26,1.26 0 0 1 -1.55,-1.01 q -0.31,-1.82 -2.13,-2.54 c -4.28,-1.68 -7.32,0.81 -7.95,5.16 -0.54,3.68 -0.49,10.79 3.97,11.96 q 5.47,1.43 6.79,-4.23 a 0.39,0.38 -80 0 1 0.42,-0.3 l 6.23,0.72 a 0.41,0.4 12 0 1 0.34,0.52 z"
         id="path129" />
      <path
         fill="#0094c9"
         d="m 251.49,411.58 a 0.13,0.13 0 0 0 -0.22,-0.09 q -4.26,4.14 -10.19,3.37 c -4.26,-0.55 -6.95,-3.23 -7.34,-7.4 q -0.25,-2.57 -0.15,-19.05 a 0.41,0.41 0 0 1 0.41,-0.4 h 6.35 a 0.41,0.41 0 0 1 0.41,0.41 q -0.12,9.5 0.06,16.56 0.07,2.46 1,3.57 c 2.21,2.64 6.42,1.38 8.15,-1.26 q 0.92,-1.4 0.95,-5.04 0.08,-7.4 0.04,-13.91 a 0.33,0.33 0 0 1 0.33,-0.34 h 6.5 a 0.33,0.33 0 0 1 0.33,0.33 v 25.96 A 0.72,0.71 0 0 1 257.4,415 h -5.33 a 0.58,0.58 0 0 1 -0.58,-0.58 z"
         id="path130" />
      <rect
         fill="#0094c9"
         x="265.72"
         y="388.01999"
         width="7.1599998"
         height="26.98"
         rx="0.43000001"
         id="rect130" />
      <rect
         fill="#98c54c"
         x="-3.5799999"
         y="-13.49"
         transform="rotate(-0.1,230247.6,-221700.01)"
         width="7.1599998"
         height="26.98"
         rx="0.5"
         id="rect131" />
      <path
         fill="#98c54c"
         d="m 408.22,395.09 q 0.23,0 0.46,-0.36 2.75,-4.25 3.89,-5.94 a 1.86,1.85 16.9 0 1 1.54,-0.82 h 6.65 a 0.41,0.41 0 0 1 0.34,0.64 l -8.27,11.87 a 0.64,0.64 0 0 0 -0.01,0.72 l 9.31,13.65 a 0.06,0.05 -15 0 1 -0.05,0.08 h -8.14 a 0.37,0.36 72.3 0 1 -0.3,-0.16 q -2.85,-4.36 -5.09,-7.73 -0.07,-0.1 -0.28,-0.1 -0.21,0 -0.27,0.1 -2.22,3.39 -5.04,7.77 a 0.37,0.36 -72.8 0 1 -0.3,0.16 l -8.14,0.07 a 0.06,0.05 14.5 0 1 -0.05,-0.08 l 9.21,-13.72 a 0.64,0.64 0 0 0 -0.02,-0.72 l -8.36,-11.81 a 0.41,0.41 0 0 1 0.33,-0.64 l 6.65,-0.05 a 1.86,1.85 -17.3 0 1 1.55,0.8 q 1.15,1.69 3.94,5.91 0.23,0.36 0.45,0.36 z"
         id="path131" />
      <path
         fill="#0167a2"
         d="m 201.69,442.48 v -14.9 a 0.54,0.54 0 0 1 0.54,-0.54 h 6.92 a 4.53,4.53 0 0 1 4.53,4.53 v 0.89 a 4.49,4.49 0 0 1 -4.49,4.49 h -4.75 a 0.64,0.64 0 0 0 -0.64,0.64 v 4.83 a 0.57,0.57 0 0 1 -0.57,0.57 h -1.04 a 0.51,0.5 90 0 1 -0.5,-0.51 z"
         id="path132" />
      <path
         fill="#0167a2"
         d="m 297.16,439.81 q 0.06,0 0.09,-0.01 a 0.18,0.09 -5.1 0 0 0.13,-0.08 l 4.14,-12.1 a 0.9,0.9 0 0 1 0.85,-0.61 h 1.81 a 0.52,0.51 -90 0 1 0.51,0.52 v 14.96 a 0.53,0.53 0 0 1 -0.53,0.53 h -0.95 a 0.54,0.53 90 0 1 -0.53,-0.54 v -12.7 a 0.11,0.11 0 0 0 -0.21,-0.03 l -4.18,12.67 a 1.14,1.07 74 0 1 -0.13,0.26 q -0.27,0.38 -1.01,0.38 -0.74,0 -1,-0.39 a 1.14,1.07 -73.7 0 1 -0.14,-0.26 l -4.11,-12.69 a 0.11,0.11 0 0 0 -0.21,0.03 l -0.07,12.7 a 0.54,0.53 -89.7 0 1 -0.53,0.54 l -0.95,-0.01 a 0.53,0.53 0 0 1 -0.53,-0.53 l 0.09,-14.96 a 0.52,0.51 -89.7 0 1 0.51,-0.52 l 1.81,0.01 a 0.9,0.9 0 0 1 0.85,0.62 l 4.07,12.12 a 0.18,0.09 5.4 0 0 0.13,0.08 q 0.03,0.01 0.09,0.01 z"
         id="path133" />
      <path
         fill="#0167a2"
         d="m 319.73,428.83 a 1.06,0.96 -57.7 0 1 -0.24,-1.38 q 0.42,-0.71 1.47,-0.32 a 0.95,0.92 -45.8 0 1 -0.01,1.74 q -0.69,0.3 -1.22,-0.04 z"
         id="path134" />
      <path
         fill="#0167a2"
         d="m 261.77,432.19 q 0.86,-1.69 3.53,-0.96 a 1.24,1.2 0.5 0 0 1.53,-1.46 q -0.47,-1.77 1.3,-2.37 a 0.46,0.45 -9.3 0 1 0.6,0.43 v 2.51 a 0.79,0.79 0 0 0 0.79,0.79 h 0.71 a 0.81,0.81 0 0 1 0.41,1.51 q -0.5,0.29 -1.15,0.31 a 0.77,0.77 0 0 0 -0.76,0.77 v 6.33 a 0.89,0.89 0 0 0 0.59,0.84 l 1.13,0.4 a 0.8,0.8 0 0 1 -0.06,1.53 q -2.21,0.58 -3.3,-0.93 a 1.48,1.46 -63 0 1 -0.27,-0.85 v -7.13 a 1.22,1.22 0 0 0 -1.52,-1.18 l -2.27,0.57 a 2.17,2.16 -7 0 0 -1.64,2.1 v 6.95 a 0.7,0.7 0 0 1 -0.7,0.7 h -0.65 a 0.65,0.64 90 0 1 -0.64,-0.65 l 0.02,-10.67 a 0.84,0.84 0 0 1 1.43,-0.59 q 0.13,0.14 0.42,1.01 a 0.27,0.27 0 0 0 0.5,0.04 z"
         id="path135" />
      <path
         fill="#0167a2"
         d="m 338.73,427.79 v 2.58 a 0.7,0.69 -1.2 0 0 0.73,0.69 q 0.97,-0.04 1.35,0.51 0.49,0.71 -0.42,1.18 -0.44,0.22 -0.93,0.22 a 0.73,0.72 90 0 0 -0.72,0.73 v 6.36 a 0.87,0.87 0 0 0 0.57,0.82 l 1.15,0.4 a 0.81,0.81 0 0 1 -0.04,1.54 q -1.95,0.56 -3.27,-0.76 a 1.09,1.09 0 0 1 -0.32,-0.77 v -7.66 a 0.64,0.63 9.7 0 0 -0.43,-0.6 l -0.96,-0.34 a 0.66,0.66 0 0 1 -0.02,-1.24 q 1.71,-0.67 1.52,-1.6 -0.12,-0.59 -0.13,-0.62 -0.21,-1.15 1.28,-1.85 a 0.45,0.45 0 0 1 0.64,0.41 z"
         id="path136" />
      <path
         fill="#f8faf5"
         d="m 203.78,429.31 a 0.3,0.3 0 0 1 0.29,-0.3 l 4.47,-0.04 a 2.95,2.74 -0.5 0 1 2.98,2.72 v 0.52 a 2.95,2.74 -0.5 0 1 -2.92,2.76 l -4.47,0.04 a 0.3,0.3 0 0 1 -0.31,-0.3 z"
         id="path137" />
      <path
         fill="#0167a2"
         d="m 218.85,432.08 q 0.98,-1.54 2.98,-0.91 a 0.66,0.65 9.3 0 1 0.45,0.62 v 0.72 a 0.69,0.69 0 0 1 -0.86,0.67 c -4.16,-1.06 -3.12,6.77 -3.02,9.16 a 0.65,0.65 0 0 1 -0.65,0.68 h -0.78 a 0.56,0.56 0 0 1 -0.56,-0.56 v -10.73 a 0.84,0.83 24.2 0 1 1.46,-0.55 q 0.28,0.31 0.31,0.72 a 0.37,0.36 59.6 0 0 0.67,0.18 z"
         id="path138" />
      <path
         fill="#0167a2"
         d="m 233.2922,438.1722 a 4.81,4.81 0 0 1 -4.8849,4.7338 l -0.8599,-0.0135 a 4.81,4.81 0 0 1 -4.7339,-4.8849 l 0.0343,-2.1798 a 4.81,4.81 0 0 1 4.8849,-4.7338 l 0.8599,0.0135 a 4.81,4.81 0 0 1 4.7339,4.8849 z"
         id="path139" />
      <path
         fill="#0167a2"
         d="m 237.76,432.43 q 2.35,-2.36 4.97,-0.83 c 5.47,3.2 1.72,14.9 -4.86,10.3 a 0.33,0.33 0 0 0 -0.51,0.27 v 4.23 a 0.61,0.61 0 0 1 -0.61,0.61 h -0.7 a 0.6,0.6 0 0 1 -0.6,-0.6 q -0.01,-13.14 0.01,-14.76 a 0.93,0.8 19.7 0 1 1.42,-0.55 q 0.32,0.22 0.41,1.16 a 0.28,0.28 0 0 0 0.47,0.17 z"
         id="path140" />
      <path
         fill="#0167a2"
         d="m 249.48,436.98 a 0.68,0.67 81.1 0 0 -0.64,0.88 q 1.22,3.84 4.47,2.98 c 1.19,-0.32 1.47,-1.45 2.72,-1.93 a 0.82,0.82 0 0 1 0.94,1.27 c -1.62,2.1 -2.76,3.05 -5.2,2.77 -6.92,-0.8 -6.85,-11.7 0.72,-11.91 a 4.34,4.32 -15.8 0 1 3.86,2.14 l 0.97,1.66 a 1.42,1.42 0 0 1 -1.23,2.14 z"
         id="path141" />
      <path
         fill="#0167a2"
         d="m 276.55,439.58 a 0.19,0.18 -46.1 0 0 0.35,-0.01 l 2.83,-8.04 a 0.86,0.84 -70.3 0 1 1.08,-0.52 l 0.47,0.16 a 0.45,0.45 0 0 1 0.27,0.58 q -4.06,11.49 -4.59,12.65 -1.28,2.77 -3.71,2.56 a 1.23,1.23 0 0 1 -1.11,-1.03 l -0.03,-0.17 a 0.7,0.7 0 0 1 0.81,-0.81 q 1.99,0.32 2.6,-2.25 a 1.46,1.43 42.1 0 0 -0.05,-0.83 l -3.76,-10.09 a 0.59,0.59 0 0 1 0.75,-0.76 l 0.84,0.29 a 0.49,0.45 2.2 0 1 0.28,0.28 z"
         id="path142" />
      <path
         fill="#0167a2"
         d="m 316.79,443.01 q -1.22,0.12 -1.88,-0.57 a 0.71,0.71 0 0 0 -0.86,-0.13 c -2.61,1.46 -7.64,0.82 -7.19,-3.25 0.39,-3.52 5.08,-3.36 7.24,-3.87 a 0.84,0.84 0 0 0 0.2,-1.57 q -3.34,-1.75 -5.48,1.2 a 0.82,0.81 71.2 0 1 -1.44,-0.71 q 0.74,-2.57 3.54,-2.94 c 8.86,-1.18 4.42,7.13 6.24,11.22 a 0.45,0.44 -14.6 0 1 -0.37,0.62 z"
         id="path143" />
      <rect
         fill="#0167a2"
         x="-0.95999998"
         y="-5.9899998"
         transform="rotate(0.1,-250222.28,183811.32)"
         width="1.92"
         height="11.98"
         rx="0.44"
         id="rect143" />
      <path
         fill="#0167a2"
         d="m 326.86,432.16 q 0.14,-0.07 0.21,-0.42 0.01,-0.1 0.44,-0.24 c 4.12,-1.41 6.35,0.31 6.23,4.81 q -0.07,3.02 0,6.07 a 0.64,0.63 89.1 0 1 -0.63,0.66 h -0.78 a 0.56,0.56 0 0 1 -0.56,-0.56 v -7.15 a 2.26,2.26 0 0 0 -2.5,-2.25 l -0.43,0.05 a 2.75,2.75 0 0 0 -2.45,2.73 v 6.44 a 0.73,0.72 90 0 1 -0.72,0.73 h -0.65 a 0.58,0.58 0 0 1 -0.58,-0.58 v -10.96 a 0.51,0.51 0 0 1 0.41,-0.5 q 1.14,-0.22 1.42,0.89 a 0.42,0.42 0 0 0 0.59,0.28 z"
         id="path144" />
      <path
         fill="#0167a2"
         d="m 344.48,436.97 a 0.67,0.67 0 0 0 -0.64,0.88 q 1.21,3.84 4.45,2.99 c 1.19,-0.32 1.48,-1.45 2.73,-1.92 a 0.82,0.82 0 0 1 0.93,1.27 c -1.62,2.09 -2.76,3.04 -5.2,2.75 -6.91,-0.82 -6.81,-11.71 0.76,-11.89 a 4.34,4.31 -15.7 0 1 3.84,2.15 l 0.97,1.66 a 1.42,1.42 0 0 1 -1.24,2.13 z"
         id="path145" />
      <path
         fill="#0167a2"
         d="m 356.26,431.88 a 0.42,0.42 0 0 0 0.59,0.28 q 0.14,-0.07 0.21,-0.42 0.01,-0.1 0.44,-0.24 c 4.11,-1.41 6.34,0.3 6.23,4.8 q -0.06,3.02 0.01,6.06 a 0.64,0.63 89 0 1 -0.63,0.66 h -0.78 a 0.56,0.56 0 0 1 -0.56,-0.55 l -0.01,-7.15 a 2.26,2.26 0 0 0 -2.5,-2.24 l -0.43,0.05 a 2.75,2.74 -3.2 0 0 -2.44,2.73 l 0.01,6.43 a 0.73,0.72 89.9 0 1 -0.72,0.73 h -0.65 a 0.58,0.58 0 0 1 -0.58,-0.57 l -0.02,-10.95 a 0.51,0.51 0 0 1 0.41,-0.5 q 1.14,-0.23 1.42,0.88 z"
         id="path146" />
      <path
         fill="#0167a2"
         d="m 376.16,442.38 a 0.45,0.44 -14.7 0 1 -0.37,0.63 q -1.22,0.12 -1.88,-0.57 a 0.71,0.71 0 0 0 -0.86,-0.13 c -2.61,1.46 -7.64,0.83 -7.19,-3.24 0.38,-3.52 5.07,-3.37 7.23,-3.88 a 0.84,0.84 0 0 0 0.2,-1.57 q -3.34,-1.75 -5.48,1.2 a 0.82,0.81 71.1 0 1 -1.44,-0.7 q 0.74,-2.57 3.54,-2.95 c 8.86,-1.19 4.43,7.13 6.25,11.21 z"
         id="path147" />
      <path
         fill="#0167a2"
         d="m 380.26,431.89 a 0.42,0.42 0 0 0 0.59,0.27 q 0.14,-0.07 0.21,-0.42 0.01,-0.1 0.44,-0.24 c 4.11,-1.41 6.35,0.3 6.23,4.8 q -0.06,3.02 0.01,6.07 a 0.64,0.63 89 0 1 -0.63,0.66 h -0.78 a 0.56,0.56 0 0 1 -0.56,-0.56 l -0.01,-7.15 a 2.26,2.26 0 0 0 -2.5,-2.24 l -0.43,0.05 a 2.75,2.74 -3.2 0 0 -2.44,2.73 l 0.01,6.44 a 0.73,0.72 89.9 0 1 -0.72,0.73 h -0.65 a 0.58,0.58 0 0 1 -0.58,-0.58 l -0.02,-10.95 a 0.51,0.51 0 0 1 0.41,-0.5 q 1.14,-0.22 1.42,0.89 z"
         id="path148" />
      <path
         fill="#0167a2"
         d="m 391.85,437.08 c 0.04,2.55 1.34,4.32 4.13,3.84 1.32,-0.22 1.3,-1.8 2.88,-2 a 0.63,0.63 0 0 1 0.69,0.79 q -0.64,2.4 -2.98,3.03 c -4.15,1.12 -6.65,-1.7 -6.71,-5.63 -0.06,-3.93 2.36,-6.82 6.53,-5.84 q 2.37,0.57 3.08,2.95 a 0.63,0.63 0 0 1 -0.67,0.81 c -1.58,-0.15 -1.61,-1.73 -2.94,-1.92 -2.8,-0.39 -4.05,1.42 -4.01,3.97 z"
         id="path149" />
      <path
         fill="#0167a2"
         d="m 403.48,436.97 a 0.67,0.67 0 0 0 -0.64,0.88 q 1.22,3.84 4.46,2.98 c 1.19,-0.31 1.47,-1.44 2.72,-1.92 a 0.82,0.82 0 0 1 0.94,1.27 c -1.62,2.09 -2.76,3.04 -5.2,2.76 -6.91,-0.81 -6.82,-11.7 0.74,-11.9 a 4.34,4.31 -15.8 0 1 3.85,2.15 l 0.97,1.66 a 1.42,1.42 0 0 1 -1.23,2.13 z"
         id="path150" />
      <ellipse
         fill="#f8faf5"
         cx="0"
         cy="0"
         transform="rotate(-91.7,326.15128,107.79441)"
         rx="4.0100002"
         ry="3.4100001"
         id="ellipse150" />
      <ellipse
         fill="#f8faf5"
         cx="0"
         cy="0"
         transform="rotate(-88.3,345.24159,94.751276)"
         rx="4"
         ry="3.1300001"
         id="ellipse151" />
      <path
         fill="#f8faf5"
         d="m 249.22,435.03 a 0.14,0.14 0 0 1 -0.14,-0.14 v -0.05 a 2.91,1.73 -0.5 0 1 2.89,-1.76 h 0.26 a 2.91,1.73 -0.5 0 1 2.93,1.7 v 0.05 a 0.14,0.14 0 0 1 -0.14,0.14 z"
         id="path151" />
      <path
         fill="#f8faf5"
         d="m 344.2,435.02 a 0.14,0.14 0 0 1 -0.14,-0.14 v -0.05 a 2.92,1.73 -0.5 0 1 2.9,-1.76 h 0.26 a 2.92,1.73 -0.5 0 1 2.94,1.7 v 0.05 a 0.14,0.14 0 0 1 -0.14,0.14 z"
         id="path152" />
      <path
         fill="#f8faf5"
         d="m 403.2,435.03 a 0.14,0.14 0 0 1 -0.14,-0.14 v -0.05 a 2.92,1.73 -0.5 0 1 2.9,-1.76 h 0.26 a 2.92,1.73 -0.5 0 1 2.94,1.7 v 0.05 a 0.14,0.14 0 0 1 -0.14,0.14 z"
         id="path153" />
      <path
         fill="#f8faf5"
         d="m 314.75,437.81 q -0.08,3.63 -4.69,3 a 1.35,1.35 0 0 1 -0.44,-2.53 q 1.25,-0.66 4.56,-0.99 a 0.52,0.51 -2.5 0 1 0.57,0.52 z"
         id="path154" />
      <path
         fill="#f8faf5"
         d="m 373.14,437.27 a 0.52,0.51 -2.3 0 1 0.57,0.52 q -0.1,3.61 -4.69,2.97 a 1.34,1.34 0 0 1 -0.43,-2.53 q 1.25,-0.65 4.55,-0.96 z"
         id="path155" />
    </g>
  </g>
</svg>
