<?xml version="1.0" encoding="UTF-8" standalone="no"?>
<!DOCTYPE svg PUBLIC "-//W3C//DTD SVG 1.1//EN" "http://www.w3.org/Graphics/SVG/1.1/DTD/svg11.dtd">
<svg xmlns="http://www.w3.org/2000/svg" version="1.1" viewBox="0.00 0.00 480.00 480.00">
<path fill="#ffffff" d="
  M 480.00 0.00
  L 480.00 480.00
  L 0.00 480.00
  L 0.00 0.00
  L 480.00 0.00
  Z"
/>
<g stroke-width="2.00" fill="none" stroke-linecap="butt">
<path stroke="#007db6" vector-effect="non-scaling-stroke" d="
  M 242.02 52.56
  Q 241.97 54.92 243.31 56.45
  Q 269.95 86.92 303.27 114.96
  C 306.89 118.01 314.07 123.27 320.09 128.49
  C 323.18 131.17 326.85 132.94 329.31 136.77
  A 0.97 0.96 -49.2 0 1 329.37 137.69
  Q 328.70 139.16 327.53 139.16"
/>
<path stroke="#4cad8b" vector-effect="non-scaling-stroke" d="
  M 346.86 160.29
  Q 337.59 169.96 328.11 177.66
  A 0.34 0.34 0.0 0 1 327.76 177.71
  Q 327.64 177.66 327.52 177.54"
/>
<path stroke="#8fbf47" vector-effect="non-scaling-stroke" d="
  M 346.94 197.82
  L 321.37 199.18
  A 1.82 1.79 25.7 0 0 320.46 199.49
  L 303.81 210.90"
/>
<path stroke="#73ae3e" vector-effect="non-scaling-stroke" d="
  M 345.37 239.55
  Q 333.27 238.46 321.20 239.89"
/>
<path stroke="#7db443" vector-effect="non-scaling-stroke" d="
  M 267.12 231.18
  Q 264.57 231.72 262.34 232.52
  Q 243.54 239.30 224.77 246.17
  Q 212.97 250.49 198.72 254.23
  Q 196.37 254.85 194.16 253.99"
/>
<path stroke="#31846e" vector-effect="non-scaling-stroke" d="
  M 182.25 257.14
  L 170.70 262.03"
/>
<path stroke="#0087bc" vector-effect="non-scaling-stroke" d="
  M 239.95 158.18
  C 236.92 165.90 230.61 163.90 224.45 160.99
  A 2.69 2.65 -8.0 0 1 223.60 160.36
  Q 219.06 155.33 214.03 150.71
  C 212.49 149.29 211.06 147.45 209.72 146.13
  Q 199.59 136.20 193.07 129.41
  C 187.32 123.43 180.61 118.01 175.68 111.89
  Q 172.23 107.60 170.48 106.00
  C 167.87 103.60 165.62 100.13 162.65 97.35
  Q 159.29 94.20 157.67 90.33"
/>
<path stroke="#87ba46" vector-effect="non-scaling-stroke" d="
  M 289.62 149.73
  Q 285.23 155.83 281.43 158.48
  C 274.42 163.38 267.52 167.82 261.95 174.30
  Q 260.14 176.41 256.16 179.28
  Q 254.78 180.28 247.27 186.84
  C 242.22 191.25 235.04 196.67 229.35 201.60
  Q 220.94 208.89 206.38 221.27
  A 0.24 0.24 0.0 0 1 205.98 221.13
  Q 204.84 214.48 205.12 206.96
  A 0.73 0.72 73.1 0 1 205.40 206.43
  L 220.04 195.30
  A 0.84 0.83 -27.7 0 0 220.33 194.38
  L 218.13 187.36"
/>
<path stroke="#8fbf47" vector-effect="non-scaling-stroke" d="
  M 212.30 178.42
  L 187.48 178.10
  A 1.30 1.28 65.5 0 1 186.62 177.77
  L 165.40 159.16"
/>
<path stroke="#007db6" vector-effect="non-scaling-stroke" d="
  M 313.90 245.48
  Q 309.09 243.08 305.29 239.50"
/>
<path stroke="#80cae4" vector-effect="non-scaling-stroke" d="
  M 305.29 239.50
  C 307.08 232.48 298.32 231.25 297.15 237.95"
/>
<path stroke="#007db6" vector-effect="non-scaling-stroke" d="
  M 297.15 237.95
  Q 291.21 233.74 286.04 227.72
  Q 278.53 218.98 267.95 207.95
  C 264.39 204.23 260.55 201.36 256.83 197.83
  A 0.92 0.91 27.9 0 1 256.57 196.99
  Q 257.03 194.78 258.48 192.75"
/>
<path stroke="#80b3d1" vector-effect="non-scaling-stroke" d="
  M 297.15 237.95
  Q 297.26 239.88 299.05 240.97
  Q 302.73 243.21 305.29 239.50"
/>
<path stroke="#0087bc" vector-effect="non-scaling-stroke" d="
  M 127.33 307.59
  Q 120.34 307.53 113.80 309.81"
/>
<path stroke="#80cae4" vector-effect="non-scaling-stroke" d="
  M 113.80 309.81
  Q 114.61 294.63 102.06 292.13
  C 87.49 289.23 76.25 301.65 77.20 315.59"
/>
<path stroke="#0087bc" vector-effect="non-scaling-stroke" d="
  M 77.20 315.59
  Q 69.79 315.43 63.81 312.11"
/>
<path stroke="#80bcd7" vector-effect="non-scaling-stroke" d="
  M 113.80 309.81
  Q 113.29 316.23 109.60 321.47
  A 0.37 0.36 -47.2 0 1 109.02 321.50
  L 104.47 316.14
  A 0.99 0.98 -37.0 0 0 103.16 315.96
  L 95.49 321.15
  A 0.44 0.44 0.0 0 0 95.40 321.79
  L 100.89 328.26
  A 0.31 0.31 0.0 0 1 100.78 328.75
  Q 94.53 331.59 87.73 329.44
  Q 77.74 326.28 77.20 315.59"
/>
<path stroke="#73ae3e" vector-effect="non-scaling-stroke" d="
  M 307.87 326.53
  L 294.02 328.25"
/>
<path stroke="#7db443" vector-effect="non-scaling-stroke" d="
  M 382.60 410.74
  Q 372.34 408.46 362.03 408.86"
/>
<path stroke="#cae29f" vector-effect="non-scaling-stroke" d="
  M 362.03 408.86
  C 370.21 406.70 368.72 394.99 359.09 396.47
  A 0.97 0.96 85.7 0 1 357.98 395.51
  L 357.98 395.02
  A 1.43 1.42 0.0 0 1 359.41 393.60
  L 364.76 393.60
  A 1.49 1.48 -90.0 0 0 366.24 392.11
  L 366.24 391.63
  A 1.56 1.56 0.0 0 0 364.68 390.07
  L 355.58 390.07
  A 0.66 0.66 0.0 0 0 354.93 390.62
  L 353.66 398.83
  A 1.39 1.38 -1.0 0 0 355.29 400.40
  Q 357.82 399.91 358.30 399.79
  C 365.12 398.07 363.80 408.00 357.76 404.88
  Q 355.91 403.92 355.53 403.73
  A 0.78 0.77 -58.1 0 0 354.53 403.97
  L 353.36 405.59
  A 0.94 0.94 0.0 0 0 353.57 406.90
  L 354.98 407.92"
/>
<path stroke="#7db443" vector-effect="non-scaling-stroke" d="
  M 354.98 407.92
  L 348.29 407.79"
/>
<path stroke="#cae29f" vector-effect="non-scaling-stroke" d="
  M 348.29 407.79
  Q 353.00 402.77 347.82 398.96
  A 0.36 0.36 0.0 0 1 347.81 398.39
  Q 350.89 396.00 348.89 392.22
  C 347.44 389.50 342.55 389.42 340.12 390.09
  Q 336.44 391.11 336.05 395.50
  Q 335.95 396.56 337.58 398.65
  A 0.34 0.33 -41.6 0 1 337.55 399.09
  Q 332.97 403.63 337.68 407.67"
/>
<path stroke="#7db443" vector-effect="non-scaling-stroke" d="
  M 337.68 407.67
  L 329.56 407.97"
/>
<path stroke="#cae29f" vector-effect="non-scaling-stroke" d="
  M 329.56 407.97
  Q 334.90 403.76 331.21 398.23
  A 1.84 1.81 -0.5 0 0 330.65 397.69
  Q 326.72 395.30 323.02 397.07
  A 0.53 0.53 0.0 0 1 322.28 396.46
  C 323.30 392.64 326.15 393.05 329.16 393.99
  A 1.40 1.39 26.1 0 0 330.70 393.47
  L 331.38 392.53
  A 1.01 1.01 0.0 0 0 331.01 391.03
  C 325.22 388.12 319.97 390.12 318.06 396.44
  Q 316.33 402.18 320.07 407.22"
/>
<path stroke="#7db443" vector-effect="non-scaling-stroke" d="
  M 320.07 407.22
  L 308.24 408.45"
/>
<path stroke="#cae29f" vector-effect="non-scaling-stroke" d="
  M 308.24 408.45
  Q 312.62 399.42 313.96 396.20
  Q 314.91 393.92 315.01 390.68
  A 0.57 0.56 1.0 0 0 314.44 390.10
  L 302.94 390.10
  A 1.53 1.53 0.0 0 0 301.41 391.63
  L 301.41 392.40
  A 1.32 1.32 0.0 0 0 302.73 393.72
  L 309.59 393.72
  A 0.60 0.60 0.0 0 1 310.14 394.57
  L 303.95 408.44"
/>
<path stroke="#7db443" vector-effect="non-scaling-stroke" d="
  M 303.95 408.44
  L 296.32 407.96"
/>
<path stroke="#cae29f" vector-effect="non-scaling-stroke" d="
  M 296.32 407.96
  Q 301.57 403.31 296.31 398.95
  A 0.36 0.36 0.0 0 1 296.36 398.36
  Q 298.65 397.08 298.01 394.04
  C 297.09 389.69 292.04 389.22 288.60 390.15
  C 284.75 391.18 283.33 395.41 285.93 398.35
  A 0.76 0.75 45.9 0 1 285.92 399.37
  L 284.57 400.81
  A 1.75 1.72 -18.9 0 0 284.14 401.67
  Q 283.33 406.25 287.50 408.22"
/>
<path stroke="#7db443" vector-effect="non-scaling-stroke" d="
  M 287.50 408.22
  L 279.79 408.59"
/>
<path stroke="#cae29f" vector-effect="non-scaling-stroke" d="
  M 279.79 408.59
  L 279.90 390.69
  A 0.65 0.65 0.0 0 0 279.30 390.03
  Q 276.31 389.77 272.98 391.55
  Q 271.53 392.32 271.60 393.10
  Q 271.67 393.88 272.63 395.13
  A 0.75 0.74 -34.5 0 0 273.62 395.31
  L 274.99 394.46
  A 0.69 0.69 0.0 0 1 276.04 395.05
  L 275.99 400.98"
/>
<path stroke="#7db443" vector-effect="non-scaling-stroke" d="
  M 275.99 400.98
  L 261.58 402.80"
/>
<path stroke="#cae29f" vector-effect="non-scaling-stroke" d="
  M 261.58 402.80
  C 261.45 397.69 255.67 394.13 251.50 397.32
  A 0.44 0.44 0.0 0 1 250.83 396.80
  Q 252.52 392.93 256.24 393.50
  Q 257.31 393.67 258.43 393.82
  A 1.04 1.04 0.0 0 0 259.41 393.39
  L 260.39 392.02
  A 0.69 0.69 0.0 0 0 260.14 391.00
  C 248.74 385.48 243.32 398.68 248.27 406.97"
/>
<path stroke="#7db443" vector-effect="non-scaling-stroke" d="
  M 248.27 406.97
  Q 243.76 406.24 240.93 408.65"
/>
<path stroke="#cae29f" vector-effect="non-scaling-stroke" d="
  M 240.93 408.65
  L 241.35 405.18
  A 0.81 0.81 0.0 0 1 242.15 404.47
  L 243.35 404.47
  A 0.69 0.69 0.0 0 0 244.04 403.78
  L 244.04 402.54
  A 0.96 0.96 0.0 0 0 243.00 401.58
  Q 242.08 401.67 241.21 401.24
  A 0.36 0.33 14.9 0 1 241.02 400.94
  L 241.02 390.60
  A 0.63 0.63 0.0 0 0 240.39 389.97
  L 236.61 389.97
  A 1.11 1.10 -72.3 0 0 235.71 390.44
  L 231.83 395.99"
/>
<path stroke="#7db443" vector-effect="non-scaling-stroke" d="
  M 231.83 395.99
  L 226.05 393.84"
/>
<path stroke="#cae29f" vector-effect="non-scaling-stroke" d="
  M 226.05 393.84
  L 226.05 390.69
  A 0.61 0.60 0.0 0 0 225.44 390.09
  L 213.54 390.09
  A 0.79 0.79 0.0 0 0 212.76 390.75
  L 212.45 392.79
  A 0.77 0.77 0.0 0 0 213.21 393.68
  L 220.44 393.68
  A 0.70 0.70 0.0 0 1 221.08 394.66
  L 215.08 408.63"
/>
<path stroke="#7db443" vector-effect="non-scaling-stroke" d="
  M 215.08 408.63
  L 202.75 408.79"
/>
<path stroke="#cae29f" vector-effect="non-scaling-stroke" d="
  M 202.75 408.79
  Q 206.98 401.86 210.25 393.25
  Q 210.43 392.75 210.17 390.64
  A 0.64 0.63 86.4 0 0 209.54 390.08
  L 197.55 390.08
  A 1.24 1.23 -87.5 0 0 196.32 391.21
  Q 196.14 393.48 197.54 393.77"
/>
<path stroke="#7db443" vector-effect="non-scaling-stroke" d="
  M 197.54 393.77
  Q 195.53 394.27 193.66 395.56"
/>
<path stroke="#cae29f" vector-effect="non-scaling-stroke" d="
  M 193.66 395.56
  Q 192.34 389.88 186.50 389.87
  Q 178.86 389.85 178.57 398.09"
/>
<path stroke="#7db443" vector-effect="non-scaling-stroke" d="
  M 178.57 398.09
  Q 173.04 397.13 167.57 397.81"
/>
<path stroke="#cae29f" vector-effect="non-scaling-stroke" d="
  M 167.57 397.81
  C 166.95 395.49 163.90 394.14 162.55 396.75"
/>
<path stroke="#7db443" vector-effect="non-scaling-stroke" d="
  M 162.55 396.75
  L 159.22 394.77"
/>
<path stroke="#cce2a6" vector-effect="non-scaling-stroke" d="
  M 159.22 394.77
  L 159.24 390.55
  A 0.74 0.74 0.0 0 0 158.50 389.80
  L 155.95 389.80
  A 0.77 0.77 0.0 0 0 155.18 390.57
  L 155.22 408.49"
/>
<path stroke="#7db443" vector-effect="non-scaling-stroke" d="
  M 155.22 408.49
  L 151.62 408.47"
/>
<path stroke="#cce2a6" vector-effect="non-scaling-stroke" d="
  M 151.62 408.47
  L 151.75 390.57
  A 0.78 0.78 0.0 0 0 150.97 389.78
  L 148.55 389.78
  A 0.79 0.79 0.0 0 0 147.76 390.56
  L 147.64 408.34"
/>
<path stroke="#7db443" vector-effect="non-scaling-stroke" d="
  M 147.64 408.34
  Q 146.26 408.09 144.70 408.40"
/>
<path stroke="#cae29f" vector-effect="non-scaling-stroke" d="
  M 144.70 408.40
  Q 145.05 404.26 144.83 400.19
  Q 144.58 395.73 140.49 394.79
  Q 135.91 393.74 133.24 396.83"
/>
<path stroke="#7db443" vector-effect="non-scaling-stroke" d="
  M 133.24 396.83
  Q 131.28 395.51 129.25 394.97"
/>
<path stroke="#cae29f" vector-effect="non-scaling-stroke" d="
  M 129.25 394.97
  L 130.46 393.31
  A 1.26 1.25 33.1 0 0 130.07 391.49
  Q 124.96 388.55 120.04 390.48
  C 113.31 393.12 113.17 401.98 117.44 406.72"
/>
<path stroke="#7db443" vector-effect="non-scaling-stroke" d="
  M 117.44 406.72
  Q 106.68 406.29 95.89 408.02"
/>
<path stroke="#afd096" vector-effect="non-scaling-stroke" d="
  M 240.93 408.65
  Q 238.97 408.94 237.72 408.35
  A 0.96 0.96 0.0 0 1 237.17 407.48
  L 237.17 405.29
  A 0.61 0.60 90.0 0 0 236.57 404.68
  L 228.71 404.68
  A 0.84 0.84 0.0 0 1 227.92 404.13
  C 227.01 401.60 229.79 398.53 231.83 395.99"
/>
<path stroke="#afd096" vector-effect="non-scaling-stroke" d="
  M 362.03 408.86
  Q 358.05 409.58 354.98 407.92"
/>
<path stroke="#afd096" vector-effect="non-scaling-stroke" d="
  M 226.05 393.84
  L 219.54 407.99
  A 0.86 0.86 0.0 0 1 218.79 408.49
  L 215.08 408.63"
/>
<path stroke="#afd096" vector-effect="non-scaling-stroke" d="
  M 348.29 407.79
  Q 342.99 410.24 337.68 407.67"
/>
<path stroke="#afd096" vector-effect="non-scaling-stroke" d="
  M 308.24 408.45
  Q 305.80 409.11 303.95 408.44"
/>
<path stroke="#afd096" vector-effect="non-scaling-stroke" d="
  M 202.75 408.79
  L 199.96 408.57
  A 0.75 0.74 14.3 0 1 199.34 407.53
  L 205.03 394.77
  A 0.66 0.65 -77.8 0 0 204.44 393.85
  L 197.54 393.77"
/>
<path stroke="#afd096" vector-effect="non-scaling-stroke" d="
  M 193.66 395.56
  C 195.39 402.26 193.06 410.76 184.03 408.64
  C 179.33 407.54 178.10 402.37 178.57 398.09"
/>
<path stroke="#afd096" vector-effect="non-scaling-stroke" d="
  M 261.58 402.80
  C 260.38 409.53 252.97 410.59 248.27 406.97"
/>
<path stroke="#b0d19d" vector-effect="non-scaling-stroke" d="
  M 159.22 394.77
  L 159.13 407.93
  A 0.69 0.69 0.0 0 1 158.64 408.59
  Q 156.91 409.13 155.22 408.49"
/>
<path stroke="#afd096" vector-effect="non-scaling-stroke" d="
  M 329.56 407.97
  Q 324.28 410.47 320.07 407.22"
/>
<path stroke="#afd096" vector-effect="non-scaling-stroke" d="
  M 279.79 408.59
  Q 277.62 408.89 276.64 408.36
  A 0.92 0.91 13.6 0 1 276.17 407.60
  L 275.99 400.98"
/>
<path stroke="#b0d19d" vector-effect="non-scaling-stroke" d="
  M 151.62 408.47
  Q 149.29 409.37 147.64 408.34"
/>
<path stroke="#afd096" vector-effect="non-scaling-stroke" d="
  M 296.32 407.96
  Q 291.72 409.81 287.50 408.22"
/>
<path stroke="#afd096" vector-effect="non-scaling-stroke" d="
  M 133.24 396.83
  Q 134.03 398.25 134.93 398.69
  A 1.19 1.16 -41.8 0 0 135.88 398.73
  Q 138.53 397.72 140.51 399.22
  A 0.52 0.52 0.0 0 1 140.12 400.15
  C 135.99 399.52 130.77 401.41 132.87 406.83
  Q 133.40 408.18 136.17 409.09
  Q 136.66 409.25 139.46 408.40
  C 141.38 407.82 142.17 409.14 143.74 408.87
  Q 144.38 408.76 144.70 408.40"
/>
<path stroke="#afd096" vector-effect="non-scaling-stroke" d="
  M 162.55 396.75
  C 161.75 400.76 167.14 401.40 167.57 397.81"
/>
<path stroke="#afd096" vector-effect="non-scaling-stroke" d="
  M 129.25 394.97
  Q 121.06 391.56 119.16 397.15
  C 117.25 402.72 123.12 407.49 128.30 404.04
  A 1.07 1.07 0.0 0 1 129.88 404.53
  L 130.55 406.16
  A 1.31 1.31 0.0 0 1 129.88 407.85
  Q 123.43 410.83 117.44 406.72"
/>
</g>
<path fill="#0066a2" d="
  M 242.02 52.56
  Q 241.97 54.92 243.31 56.45
  Q 269.95 86.92 303.27 114.96
  C 306.89 118.01 314.07 123.27 320.09 128.49
  C 323.18 131.17 326.85 132.94 329.31 136.77
  A 0.97 0.96 -49.2 0 1 329.37 137.69
  Q 328.70 139.16 327.53 139.16
  Q 327.87 137.42 327.42 136.27
  A 1.13 1.12 7.8 0 0 327.02 135.75
  L 240.34 73.41
  A 0.67 0.66 44.5 0 0 239.55 73.41
  L 190.57 109.09
  A 0.81 0.81 0.0 0 1 189.62 109.10
  L 184.95 105.74
  A 2.15 2.14 15.5 0 1 184.08 104.21
  C 183.68 100.12 182.94 98.00 181.04 94.96
  A 0.87 0.86 56.0 0 1 181.26 93.81
  L 239.56 51.34
  A 0.40 0.33 19.4 0 1 239.75 51.27
  Q 240.98 51.23 242.02 52.56
  Z"
/>
<path fill="#0094c9" d="
  M 346.86 160.29
  Q 337.59 169.96 328.11 177.66
  A 0.34 0.34 0.0 0 1 327.76 177.71
  Q 327.64 177.66 327.52 177.54
  L 327.53 139.16
  Q 328.70 139.16 329.37 137.69
  A 0.97 0.96 -49.2 0 0 329.31 136.77
  C 326.85 132.94 323.18 131.17 320.09 128.49
  C 314.07 123.27 306.89 118.01 303.27 114.96
  Q 269.95 86.92 243.31 56.45
  Q 241.97 54.92 242.02 52.56
  L 295.76 91.61
  A 0.29 0.29 0.0 0 0 296.22 91.38
  L 296.22 79.66
  A 0.59 0.58 -90.0 0 1 296.80 79.07
  L 318.08 79.07
  A 0.30 0.30 0.0 0 1 318.38 79.37
  L 318.38 106.85
  A 2.55 2.54 -72.3 0 0 319.44 108.92
  L 375.16 149.00
  A 0.39 0.39 0.0 0 1 374.93 149.71
  L 347.61 149.71
  A 0.56 0.56 0.0 0 0 347.05 150.26
  L 346.86 160.29
  Z"
/>
<path fill="#0094c9" d="
  M 239.95 158.18
  C 236.92 165.90 230.61 163.90 224.45 160.99
  A 2.69 2.65 -8.0 0 1 223.60 160.36
  Q 219.06 155.33 214.03 150.71
  C 212.49 149.29 211.06 147.45 209.72 146.13
  Q 199.59 136.20 193.07 129.41
  C 187.32 123.43 180.61 118.01 175.68 111.89
  Q 172.23 107.60 170.48 106.00
  C 167.87 103.60 165.62 100.13 162.65 97.35
  Q 159.29 94.20 157.67 90.33
  Q 170.32 88.91 176.76 98.49
  C 178.80 101.52 179.09 103.59 178.79 106.82
  A 2.16 2.14 -65.8 0 0 179.44 108.56
  Q 198.42 126.85 222.13 150.66
  Q 223.67 152.21 225.03 152.96
  A 1.13 1.11 42.7 0 0 226.16 152.92
  L 228.80 151.23
  A 1.62 1.61 28.2 0 1 229.68 150.97
  C 233.15 150.91 237.75 155.83 239.95 158.18
  Z"
/>
<path fill="#0079ae" d="
  M 157.67 90.33
  Q 159.29 94.20 162.65 97.35
  C 165.62 100.13 167.87 103.60 170.48 106.00
  Q 172.23 107.60 175.68 111.89
  C 180.61 118.01 187.32 123.43 193.07 129.41
  Q 199.59 136.20 209.72 146.13
  C 211.06 147.45 212.49 149.29 214.03 150.71
  Q 219.06 155.33 223.60 160.36
  A 2.69 2.65 -8.0 0 0 224.45 160.99
  C 230.61 163.90 236.92 165.90 239.95 158.18
  L 244.63 162.33
  A 0.50 0.50 0.0 0 1 244.59 163.11
  L 223.60 178.40
  A 0.36 0.36 0.0 0 1 223.11 178.34
  Q 219.00 173.55 216.52 171.05
  C 213.42 167.93 213.71 164.69 216.27 161.40
  A 0.95 0.95 0.0 0 0 216.19 160.15
  L 170.42 114.38
  A 1.74 1.73 67.3 0 0 169.16 113.86
  Q 159.57 113.88 156.41 104.69
  Q 154.03 97.75 156.21 91.00
  Q 156.46 90.24 157.67 90.33
  Z"
/>
<rect fill="#0079ae" x="-7.96" y="-7.96" transform="translate(229.87,106.92) rotate(-0.1)" width="15.92" height="15.92" rx="0.53"/>
<rect fill="#0094c9" x="242.31" y="98.95" width="15.94" height="15.94" rx="0.48"/>
<path fill="#0066a2" d="
  M 182.25 257.14
  L 170.70 262.03
  Q 153.64 262.91 141.69 251.28
  Q 135.16 244.91 133.62 236.36
  Q 133.03 233.12 133.02 226.25
  Q 132.95 194.97 133.08 150.14
  A 0.44 0.43 0.0 0 0 132.64 149.71
  L 104.91 149.71
  A 0.21 0.21 0.0 0 1 104.79 149.33
  L 154.22 113.32
  A 0.72 0.71 -38.8 0 1 155.18 113.42
  C 158.70 117.45 162.01 118.16 166.97 119.51
  A 2.63 2.56 74.5 0 1 168.12 120.18
  L 170.54 122.60
  A 0.42 0.41 48.7 0 1 170.50 123.23
  L 153.15 135.87
  A 1.24 1.24 0.0 0 0 152.64 136.87
  Q 152.75 198.85 152.61 220.36
  Q 152.53 233.21 154.21 237.99
  C 158.40 249.97 169.49 256.39 182.25 257.14
  Z"
/>
<rect fill="#0079ae" x="-8.06" y="-7.74" transform="translate(229.90,126.84) rotate(0.1)" width="16.12" height="15.48" rx="0.57"/>
<rect fill="#0094c9" x="-8.05" y="-7.75" transform="translate(250.25,126.82) rotate(0.1)" width="16.10" height="15.50" rx="0.78"/>
<path fill="#98c54c" d="
  M 289.62 149.73
  Q 285.23 155.83 281.43 158.48
  C 274.42 163.38 267.52 167.82 261.95 174.30
  Q 260.14 176.41 256.16 179.28
  Q 254.78 180.28 247.27 186.84
  C 242.22 191.25 235.04 196.67 229.35 201.60
  Q 220.94 208.89 206.38 221.27
  A 0.24 0.24 0.0 0 1 205.98 221.13
  Q 204.84 214.48 205.12 206.96
  A 0.73 0.72 73.1 0 1 205.40 206.43
  L 220.04 195.30
  A 0.84 0.83 -27.7 0 0 220.33 194.38
  L 218.13 187.36
  Q 242.74 170.29 255.70 159.45
  C 259.59 156.19 263.03 149.72 264.00 143.71
  C 265.26 135.99 267.67 129.65 273.87 124.61
  Q 282.34 117.74 293.73 119.44
  Q 297.75 120.04 300.18 121.81
  A 1.36 1.36 0.0 0 1 300.26 123.95
  L 285.66 136.35
  A 1.27 1.22 76.0 0 0 285.23 137.10
  Q 283.72 146.14 289.62 149.73
  Z"
/>
<path fill="#75ae3f" d="
  M 218.13 187.36
  L 220.33 194.38
  A 0.84 0.83 -27.7 0 1 220.04 195.30
  L 205.40 206.43
  A 0.73 0.72 73.1 0 0 205.12 206.96
  Q 204.84 214.48 205.98 221.13
  A 0.24 0.24 0.0 0 0 206.38 221.27
  Q 220.94 208.89 229.35 201.60
  C 235.04 196.67 242.22 191.25 247.27 186.84
  Q 254.78 180.28 256.16 179.28
  Q 260.14 176.41 261.95 174.30
  C 267.52 167.82 274.42 163.38 281.43 158.48
  Q 285.23 155.83 289.62 149.73
  C 292.98 150.65 296.77 152.06 299.22 150.22
  Q 308.33 143.40 314.69 137.60
  A 0.98 0.98 0.0 0 1 316.27 138.02
  C 318.81 145.74 316.88 154.77 311.73 161.17
  Q 303.86 170.92 290.26 171.43
  Q 288.79 171.48 284.17 170.97
  A 4.90 4.88 38.9 0 0 282.08 171.19
  C 275.05 173.53 268.19 178.91 262.49 183.74
  C 240.75 202.12 220.50 222.17 199.61 243.11
  C 196.09 246.65 192.92 249.76 188.50 250.91
  C 176.20 254.13 164.67 246.09 164.86 233.30
  C 164.94 227.80 167.95 222.44 172.35 219.34
  C 176.57 216.36 181.09 213.98 186.13 210.41
  Q 202.21 199.05 218.13 187.36
  Z"
/>
<path fill="#98c54c" d="
  M 212.30 178.42
  L 187.48 178.10
  A 1.30 1.28 65.5 0 1 186.62 177.77
  L 165.40 159.16
  L 165.39 146.16
  A 0.42 0.42 0.0 0 1 166.05 145.81
  L 212.30 178.42
  Z"
/>
<path fill="#98c54c" d="
  M 244.71 156.90
  A 0.67 0.67 0.0 0 1 244.83 155.80
  L 251.69 152.21
  A 0.44 0.44 0.0 0 1 252.33 152.71
  Q 251.66 155.44 249.44 158.79
  A 1.43 1.42 36.4 0 1 247.34 159.10
  L 244.71 156.90
  Z"
/>
<path fill="#85b941" d="
  M 212.30 178.42
  Q 213.39 179.14 213.96 180.20
  A 0.46 0.46 0.0 0 1 213.84 180.78
  L 192.62 197.74
  A 0.69 0.68 -30.3 0 1 191.56 197.47
  L 190.50 194.87
  A 0.96 0.95 61.7 0 0 189.08 194.44
  L 166.33 209.83
  A 0.60 0.60 0.0 0 1 165.39 209.33
  L 165.40 159.16
  L 186.62 177.77
  A 1.30 1.28 65.5 0 0 187.48 178.10
  L 212.30 178.42
  Z"
/>
<path fill="#98c54c" d="
  M 346.86 160.29
  L 346.94 197.82
  L 321.37 199.18
  A 1.82 1.79 25.7 0 0 320.46 199.49
  L 303.81 210.90
  L 295.81 202.76
  A 0.69 0.69 0.0 0 1 295.93 201.69
  Q 312.42 191.20 327.08 178.31
  Q 327.40 178.04 327.52 177.54
  Q 327.64 177.66 327.76 177.71
  A 0.34 0.34 0.0 0 0 328.11 177.66
  Q 337.59 169.96 346.86 160.29
  Z"
/>
<path fill="#98c54c" d="
  M 306.78 179.53
  A 0.26 0.26 0.0 0 1 307.03 179.98
  L 287.28 193.34
  A 1.23 1.23 0.0 0 1 285.71 193.19
  L 274.77 182.26
  A 0.27 0.27 0.0 0 1 274.94 181.80
  Q 277.31 181.58 293.11 181.48
  C 298.15 181.45 302.16 181.50 306.78 179.53
  Z"
/>
<path fill="#0094c9" d="
  M 313.90 245.48
  Q 309.09 243.08 305.29 239.50
  C 307.08 232.48 298.32 231.25 297.15 237.95
  Q 291.21 233.74 286.04 227.72
  Q 278.53 218.98 267.95 207.95
  C 264.39 204.23 260.55 201.36 256.83 197.83
  A 0.92 0.91 27.9 0 1 256.57 196.99
  Q 257.03 194.78 258.48 192.75
  L 268.38 184.57
  A 1.36 1.36 0.0 0 1 270.18 184.64
  Q 289.78 203.63 309.33 222.79
  Q 314.29 227.65 315.74 231.29
  Q 318.57 238.42 313.90 245.48
  Z"
/>
<path fill="#0066a2" d="
  M 258.48 192.75
  Q 257.03 194.78 256.57 196.99
  A 0.92 0.91 27.9 0 0 256.83 197.83
  C 260.55 201.36 264.39 204.23 267.95 207.95
  Q 278.53 218.98 286.04 227.72
  Q 291.21 233.74 297.15 237.95
  Q 297.26 239.88 299.05 240.97
  Q 302.73 243.21 305.29 239.50
  Q 309.09 243.08 313.90 245.48
  C 307.46 253.78 295.73 253.35 288.64 246.11
  Q 267.98 225.02 246.52 204.59
  A 0.69 0.68 45.8 0 1 246.53 203.59
  L 258.48 192.75
  Z"
/>
<path fill="#85b941" d="
  M 346.94 197.82
  Q 347.32 216.52 346.92 230.75
  Q 346.80 234.83 345.37 239.55
  Q 333.27 238.46 321.20 239.89
  Q 322.43 228.37 313.51 220.49
  Q 310.85 218.14 303.81 210.90
  L 320.46 199.49
  A 1.82 1.79 25.7 0 1 321.37 199.18
  L 346.94 197.82
  Z"
/>
<path fill="#98c54c" d="
  M 241.88 215.70
  A 0.81 0.81 0.0 0 1 240.74 215.64
  L 239.77 214.58
  A 3.35 1.98 47.6 0 1 238.97 210.77
  L 240.61 209.27
  A 3.35 1.98 47.6 0 1 244.33 210.41
  L 245.30 211.48
  A 0.81 0.81 0.0 0 1 245.25 212.62
  L 241.88 215.70
  Z"
/>
<ellipse fill="#ffffff" cx="0.00" cy="0.00" transform="translate(182.98,233.08) rotate(-52.4)" rx="9.37" ry="8.88"/>
<path fill="#98c54c" d="
  M 267.12 231.18
  Q 264.57 231.72 262.34 232.52
  Q 243.54 239.30 224.77 246.17
  Q 212.97 250.49 198.72 254.23
  Q 196.37 254.85 194.16 253.99
  Q 227.97 241.90 258.90 224.07
  A 0.85 0.85 0.0 0 1 259.91 224.19
  L 267.12 231.18
  Z"
/>
<path fill="#61a23a" d="
  M 267.12 231.18
  Q 274.15 238.06 281.03 245.11
  Q 288.02 252.27 291.86 254.26
  C 303.14 260.11 319.24 253.66 321.20 239.89
  Q 333.27 238.46 345.37 239.55
  Q 342.89 246.85 337.68 251.72
  Q 326.84 261.87 311.25 261.97
  Q 241.08 262.42 170.70 262.03
  L 182.25 257.14
  Q 187.88 256.80 194.16 253.99
  Q 196.37 254.85 198.72 254.23
  Q 212.97 250.49 224.77 246.17
  Q 243.54 239.30 262.34 232.52
  Q 264.57 231.72 267.12 231.18
  Z"
/>
<path fill="#ffffff" d="
  M 305.29 239.50
  Q 302.73 243.21 299.05 240.97
  Q 297.26 239.88 297.15 237.95
  C 298.32 231.25 307.08 232.48 305.29 239.50
  Z"
/>
<path fill="#d7d8d6" d="
  M 380.68 269.22
  Q 375.68 269.51 368.33 269.54
  C 353.74 269.60 333.36 270.89 315.61 271.15
  C 274.02 271.76 231.20 271.60 188.52 271.49
  Q 152.41 271.40 127.99 270.33
  Q 116.55 269.83 105.11 269.59
  Q 103.88 269.56 102.76 268.98
  A 0.31 0.31 0.0 0 1 102.89 268.40
  Q 136.07 267.58 145.32 267.13
  Q 150.96 266.86 185.00 266.56
  Q 234.90 266.13 253.75 266.26
  C 276.76 266.43 310.43 266.37 339.18 267.39
  Q 360.42 268.13 380.53 268.48
  A 0.32 0.32 0.0 0 1 380.84 268.80
  L 380.84 269.06
  A 0.17 0.16 -1.9 0 1 380.68 269.22
  Z"
/>
<ellipse fill="#0094c9" cx="0.00" cy="0.00" transform="translate(191.18,285.58) rotate(-24.2)" rx="7.80" ry="7.00"/>
<ellipse fill="#98c54c" cx="0.00" cy="0.00" transform="translate(356.24,285.70) rotate(-24.7)" rx="7.81" ry="6.92"/>
<path fill="#0079ae" d="
  M 251.81 340.66
  L 239.89 340.66
  A 0.34 0.34 0.0 0 1 239.55 340.27
  L 248.83 280.56
  A 0.34 0.34 0.0 0 1 249.16 280.27
  L 260.91 280.27
  A 0.34 0.34 0.0 0 1 261.25 280.66
  L 256.26 312.79
  A 0.34 0.34 0.0 0 0 256.83 313.09
  L 273.25 297.64
  A 0.34 0.34 0.0 0 1 273.48 297.55
  L 287.36 297.55
  A 0.34 0.34 0.0 0 1 287.60 298.14
  L 267.59 316.96
  A 0.34 0.34 0.0 0 0 267.54 317.40
  L 282.94 340.15
  A 0.34 0.34 0.0 0 1 282.66 340.68
  L 268.62 340.68
  A 0.34 0.34 0.0 0 1 268.33 340.52
  L 255.86 320.34
  A 0.34 0.34 0.0 0 0 255.24 320.47
  L 252.14 340.37
  A 0.34 0.34 0.0 0 1 251.81 340.66
  Z"
/>
<path fill="#0094c9" d="
  M 127.33 307.59
  Q 120.34 307.53 113.80 309.81
  Q 114.61 294.63 102.06 292.13
  C 87.49 289.23 76.25 301.65 77.20 315.59
  Q 69.79 315.43 63.81 312.11
  Q 65.85 292.26 82.80 284.05
  C 95.10 278.09 112.32 279.05 121.41 289.74
  Q 127.44 296.82 127.33 307.59
  Z"
/>
<path fill="#85b941" d="
  M 307.87 326.53
  L 294.02 328.25
  L 301.62 282.07
  A 0.56 0.56 0.0 0 1 302.17 281.61
  L 341.68 281.61
  A 0.84 0.84 0.0 0 1 342.51 282.58
  L 340.94 292.69
  A 0.84 0.84 0.0 0 1 340.11 293.40
  L 313.69 293.40
  A 0.66 0.65 4.0 0 0 313.04 293.96
  L 311.19 305.85
  A 0.41 0.41 0.0 0 0 311.59 306.32
  L 335.82 306.32
  A 1.09 1.08 -85.7 0 1 336.89 307.57
  L 335.39 317.20
  A 0.69 0.68 -85.5 0 1 334.72 317.78
  L 309.68 317.78
  A 0.55 0.55 0.0 0 0 309.14 318.25
  L 307.87 326.53
  Z"
/>
<path fill="#ffffff" d="
  M 113.80 309.81
  Q 113.29 316.23 109.60 321.47
  A 0.37 0.36 -47.2 0 1 109.02 321.50
  L 104.47 316.14
  A 0.99 0.98 -37.0 0 0 103.16 315.96
  L 95.49 321.15
  A 0.44 0.44 0.0 0 0 95.40 321.79
  L 100.89 328.26
  A 0.31 0.31 0.0 0 1 100.78 328.75
  Q 94.53 331.59 87.73 329.44
  Q 77.74 326.28 77.20 315.59
  C 76.25 301.65 87.49 289.23 102.06 292.13
  Q 114.61 294.63 113.80 309.81
  Z"
/>
<path fill="#0079ae" d="
  M 235.09 335.51
  Q 227.80 342.06 217.52 341.68
  Q 207.12 341.29 202.15 334.26
  C 195.83 325.30 198.24 311.78 205.84 304.11
  C 213.68 296.22 230.11 293.23 238.51 301.93
  A 1.93 1.93 0.0 0 1 238.53 304.59
  L 234.24 309.18
  A 2.11 2.10 -49.3 0 1 231.41 309.40
  C 223.75 303.44 214.65 307.59 212.10 316.36
  C 209.85 324.10 212.57 333.59 222.74 331.40
  Q 226.15 330.67 228.97 328.00
  A 1.14 1.14 0.0 0 1 230.64 328.12
  L 235.23 333.86
  A 1.21 1.20 -40.2 0 1 235.09 335.51
  Z"
/>
<path fill="#75ae3f" d="
  M 386.93 326.44
  A 0.19 0.19 0.0 0 0 386.62 326.41
  L 375.05 340.26
  A 1.30 1.26 19.6 0 1 374.07 340.71
  L 359.78 340.71
  A 0.41 0.41 0.0 0 1 359.48 340.02
  L 379.60 318.51
  A 0.86 0.85 50.6 0 0 379.70 317.47
  L 368.05 298.61
  A 0.67 0.67 0.0 0 1 368.62 297.58
  L 381.46 297.58
  A 1.57 1.57 0.0 0 1 382.85 298.42
  L 388.54 309.26
  A 0.77 0.77 0.0 0 0 389.80 309.41
  Q 395.11 303.38 398.84 298.84
  Q 399.99 297.45 402.00 297.40
  Q 407.95 297.25 415.06 297.69
  A 0.19 0.18 -66.7 0 1 415.18 298.00
  L 396.62 317.84
  A 1.02 1.01 50.9 0 0 396.50 319.06
  L 409.52 340.13
  A 0.39 0.39 0.0 0 1 409.19 340.72
  L 395.16 340.72
  A 1.23 1.22 -13.5 0 1 394.07 340.06
  L 386.93 326.44
  Z"
/>
<path fill="#0079ae" d="
  M 157.61 335.39
  A 0.30 0.30 0.0 0 0 157.07 335.20
  C 151.61 341.78 142.49 344.00 135.07 338.95
  C 131.16 336.29 130.34 329.99 130.93 325.69
  Q 132.74 312.67 135.10 297.92
  A 0.45 0.43 -85.3 0 1 135.53 297.54
  L 146.88 297.54
  A 0.51 0.50 -86.5 0 1 147.38 298.11
  Q 145.97 308.57 143.58 323.54
  C 143.16 326.24 143.30 329.94 146.31 331.27
  C 150.44 333.08 154.94 329.82 157.48 326.64
  Q 158.73 325.06 159.36 320.17
  Q 160.08 314.53 162.65 298.10
  A 0.67 0.66 -85.4 0 1 163.30 297.54
  L 174.72 297.54
  A 0.53 0.53 0.0 0 1 175.24 298.16
  L 168.73 340.07
  A 0.71 0.70 4.2 0 1 168.03 340.67
  L 158.41 340.67
  A 0.80 0.79 -0.0 0 1 157.61 339.88
  L 157.61 335.39
  Z"
/>
<path fill="#0079ae" d="
  M 188.71 340.66
  L 177.40 340.66
  A 0.64 0.64 0.0 0 1 176.76 339.92
  L 183.29 297.97
  A 0.64 0.64 0.0 0 1 183.92 297.43
  L 195.22 297.43
  A 0.64 0.64 0.0 0 1 195.86 298.17
  L 189.34 340.12
  A 0.64 0.64 0.0 0 1 188.71 340.66
  Z"
/>
<path fill="#75ae3f" d="
  M 348.70 297.57
  L 360.03 297.57
  A 0.75 0.75 0.0 0 1 360.78 298.44
  L 354.30 340.12
  A 0.75 0.75 0.0 0 1 353.56 340.75
  L 342.23 340.75
  A 0.75 0.75 0.0 0 1 341.48 339.88
  L 347.96 298.20
  A 0.75 0.75 0.0 0 1 348.70 297.57
  Z"
/>
<path fill="#0079ae" d="
  M 127.33 307.59
  Q 127.02 320.90 117.64 330.35
  A 0.64 0.63 -43.3 0 0 117.61 331.21
  L 121.96 336.33
  A 0.64 0.64 0.0 0 1 121.81 337.28
  L 114.06 342.07
  A 1.32 1.32 0.0 0 1 112.30 341.72
  L 109.40 337.75
  A 0.72 0.71 -32.2 0 0 108.47 337.54
  C 94.72 345.11 73.81 343.01 66.45 327.05
  Q 63.14 319.89 63.81 312.11
  Q 69.79 315.43 77.20 315.59
  Q 77.74 326.28 87.73 329.44
  Q 94.53 331.59 100.78 328.75
  A 0.31 0.31 0.0 0 0 100.89 328.26
  L 95.40 321.79
  A 0.44 0.44 0.0 0 1 95.49 321.15
  L 103.16 315.96
  A 0.99 0.98 -37.0 0 1 104.47 316.14
  L 109.02 321.50
  A 0.37 0.36 -47.2 0 0 109.60 321.47
  Q 113.29 316.23 113.80 309.81
  Q 120.34 307.53 127.33 307.59
  Z"
/>
<path fill="#61a23a" d="
  M 307.87 326.53
  L 305.75 340.08
  A 0.69 0.69 0.0 0 1 305.07 340.67
  L 292.60 340.67
  A 0.44 0.44 0.0 0 1 292.17 340.16
  L 294.02 328.25
  L 307.87 326.53
  Z"
/>
<path fill="#919192" d="
  M 117.9479 353.4703
  A 8.64 8.49 -92.8 0 1 126.8499 361.6853
  A 8.64 8.49 -92.8 0 1 118.7921 370.7297
  A 8.64 8.49 -92.8 0 1 109.8901 362.5147
  A 8.64 8.49 -92.8 0 1 117.9479 353.4703
  Z"
/>
<path fill="#919192" d="
  M 106.42 369.50
  A 0.54 0.54 0.0 0 1 105.97 370.34
  L 104.06 370.34
  A 1.91 1.91 0.0 0 1 102.44 369.44
  L 99.34 364.42
  A 1.34 1.33 29.1 0 0 96.87 365.12
  L 96.87 369.55
  A 0.88 0.88 0.0 0 1 95.99 370.43
  L 94.89 370.43
  A 1.04 1.04 0.0 0 1 93.85 369.39
  L 93.85 354.66
  A 0.70 0.70 0.0 0 1 94.55 353.96
  L 102.08 353.96
  A 3.13 3.13 0.0 0 1 104.49 355.09
  Q 108.58 359.98 103.07 363.43
  A 0.62 0.61 -33.3 0 0 102.89 364.29
  L 106.42 369.50
  Z"
/>
<path fill="#919192" d="
  M 131.37 354.56
  A 0.55 0.55 0.0 0 1 131.92 354.01
  Q 137.29 354.06 139.44 354.29
  C 143.15 354.68 144.15 359.50 142.19 362.14
  C 140.65 364.23 137.00 364.07 134.57 364.04
  A 0.39 0.39 0.0 0 0 134.18 364.43
  L 134.18 369.27
  A 1.06 1.06 0.0 0 1 133.12 370.33
  L 132.35 370.33
  A 0.98 0.98 0.0 0 1 131.37 369.35
  L 131.37 354.56
  Z"
/>
<path fill="#919192" d="
  M 175.59 369.46
  A 0.55 0.55 0.0 0 1 175.14 370.32
  L 173.91 370.32
  A 2.16 2.15 73.3 0 1 172.11 369.35
  Q 170.61 367.10 169.73 365.32
  C 168.95 363.74 168.08 363.59 166.68 363.68
  A 0.70 0.69 88.3 0 0 166.03 364.38
  L 166.03 369.35
  A 1.04 1.03 0.0 0 1 164.99 370.38
  L 164.12 370.38
  A 0.82 0.81 0.0 0 1 163.30 369.57
  L 163.30 354.55
  A 0.67 0.66 -0.4 0 1 163.96 353.89
  C 167.05 353.88 173.91 353.41 174.99 357.17
  Q 176.22 361.46 172.26 363.33
  A 0.59 0.58 60.4 0 0 172.03 364.19
  L 175.59 369.46
  Z"
/>
<path fill="#919192" d="
  M 201.69 359.99
  Q 201.74 359.99 201.77 359.98
  A 0.21 0.05 -7.2 0 0 201.94 359.92
  L 205.04 354.83
  A 2.36 2.35 -74.2 0 1 207.05 353.70
  L 208.42 353.70
  A 0.72 0.72 0.0 0 1 209.01 354.84
  L 203.89 361.95
  A 3.19 3.16 63.2 0 0 203.29 363.81
  L 203.29 369.49
  A 0.93 0.92 -5.2 0 1 202.53 370.40
  Q 202.23 370.45 201.71 370.46
  Q 201.18 370.46 200.88 370.40
  A 0.93 0.92 5.1 0 1 200.12 369.49
  L 200.10 363.81
  A 3.19 3.16 -63.3 0 0 199.50 361.96
  L 194.36 354.86
  A 0.72 0.72 0.0 0 1 194.95 353.72
  L 196.32 353.71
  A 2.36 2.35 74.1 0 1 198.33 354.84
  L 201.44 359.92
  A 0.21 0.05 7.1 0 0 201.61 359.98
  Q 201.65 359.99 201.69 359.99
  Z"
/>
<path fill="#919192" d="
  M 223.54 358.69
  A 0.12 0.12 0.0 0 0 223.31 358.73
  L 223.31 369.44
  A 0.89 0.89 0.0 0 1 222.42 370.33
  L 221.46 370.33
  A 1.05 1.05 0.0 0 1 220.41 369.28
  L 220.41 354.54
  A 0.66 0.65 -0.0 0 1 221.07 353.89
  L 223.85 353.89
  A 1.12 1.11 -10.8 0 1 224.89 354.59
  L 228.68 363.84
  A 0.32 0.31 -44.6 0 0 229.26 363.84
  L 233.42 354.51
  A 0.95 0.94 -77.9 0 1 234.28 353.95
  L 237.24 353.95
  A 0.41 0.41 0.0 0 1 237.65 354.36
  L 237.65 369.33
  A 1.09 1.08 -90.0 0 1 236.57 370.42
  L 235.73 370.42
  A 0.97 0.96 90.0 0 1 234.77 369.45
  L 234.77 359.57
  A 0.23 0.22 -33.1 0 0 234.34 359.48
  L 230.02 369.17
  A 1.20 1.19 -44.2 0 1 227.82 369.14
  L 223.54 358.69
  Z"
/>
<path fill="#919192" d="
  M 249.35 353.77
  Q 249.95 353.77 250.47 353.96
  A 1.27 1.27 0.0 0 1 251.21 354.68
  L 257.29 369.54
  A 0.74 0.74 0.0 0 1 256.49 370.55
  L 255.23 370.35
  A 1.89 1.86 86.3 0 1 253.71 369.00
  Q 253.40 367.89 253.02 367.33
  A 1.21 1.19 -16.5 0 0 252.04 366.80
  Q 250.70 366.79 249.33 366.78
  Q 247.96 366.78 246.63 366.80
  A 1.21 1.19 16.6 0 0 245.64 367.32
  Q 245.26 367.88 244.95 368.99
  A 1.89 1.86 -86.2 0 1 243.43 370.34
  L 242.17 370.53
  A 0.74 0.74 0.0 0 1 241.37 369.52
  L 247.49 354.68
  A 1.27 1.27 0.0 0 1 248.22 353.96
  Q 248.75 353.77 249.35 353.77
  Z"
/>
<rect fill="#919192" x="-1.44" y="-8.29" transform="translate(262.67,362.10) rotate(0.3)" width="2.88" height="16.58" rx="0.67"/>
<path fill="#919192" d="
  M 280.07 364.44
  A 0.35 0.35 0.0 0 0 280.69 364.23
  L 280.72 354.94
  A 1.23 1.23 0.0 0 1 281.96 353.71
  L 282.60 353.71
  A 1.13 1.13 0.0 0 1 283.72 354.85
  L 283.67 369.78
  A 0.58 0.58 0.0 0 1 283.14 370.36
  Q 281.56 370.51 280.33 369.94
  A 0.90 0.87 83.3 0 1 279.94 369.62
  L 272.85 359.06
  A 0.25 0.24 -61.8 0 0 272.40 359.20
  L 272.36 369.44
  A 0.99 0.99 0.0 0 1 271.37 370.43
  L 270.32 370.42
  A 0.93 0.93 0.0 0 1 269.39 369.49
  L 269.45 354.51
  A 0.64 0.62 -3.5 0 1 270.01 353.89
  Q 272.67 353.57 273.45 354.82
  Q 277.24 360.78 280.07 364.44
  Z"
/>
<path fill="#919192" d="
  M 314.99 362.04
  Q 314.99 362.74 314.71 362.97
  Q 314.36 363.26 313.78 363.27
  Q 312.04 363.28 308.06 363.36
  A 0.67 0.67 0.0 0 0 307.40 364.03
  L 307.40 367.06
  A 0.60 0.59 0.0 0 0 308.00 367.65
  L 314.63 367.65
  A 1.14 1.13 -90.0 0 1 315.76 368.79
  L 315.76 369.20
  A 0.98 0.98 0.0 0 1 314.78 370.18
  L 305.07 370.18
  A 0.39 0.38 1.0 0 1 304.68 369.79
  Q 304.77 367.00 304.73 362.12
  Q 304.69 357.24 304.56 354.46
  A 0.39 0.38 -1.9 0 1 304.94 354.06
  L 314.65 353.90
  A 0.98 0.98 0.0 0 1 315.64 354.87
  L 315.65 355.28
  A 1.14 1.13 89.1 0 1 314.54 356.44
  L 307.91 356.54
  A 0.60 0.59 -0.9 0 0 307.32 357.14
  L 307.37 360.17
  A 0.67 0.67 0.0 0 0 308.04 360.83
  Q 312.02 360.85 313.76 360.83
  Q 314.34 360.83 314.69 361.11
  Q 314.98 361.34 314.99 362.04
  Z"
/>
<path fill="#919192" d="
  M 330.87 364.41
  A 0.34 0.34 0.0 0 0 331.48 364.20
  L 331.46 355.00
  A 1.22 1.22 0.0 0 1 332.67 353.78
  L 333.31 353.78
  A 1.12 1.12 0.0 0 1 334.43 354.89
  L 334.46 369.68
  A 0.58 0.58 0.0 0 1 333.94 370.25
  Q 332.37 370.42 331.16 369.86
  A 0.89 0.86 83.0 0 1 330.77 369.54
  L 323.69 359.12
  A 0.24 0.24 0.0 0 0 323.24 359.26
  L 323.27 369.41
  A 0.98 0.98 0.0 0 1 322.29 370.39
  L 321.25 370.39
  A 0.92 0.92 0.0 0 1 320.33 369.47
  L 320.29 354.64
  A 0.63 0.62 -3.8 0 1 320.85 354.02
  Q 323.48 353.69 324.26 354.93
  Q 328.05 360.81 330.87 364.41
  Z"
/>
<path fill="#919192" d="
  M 346.17 366.82
  Q 344.80 366.82 343.47 366.84
  A 1.20 1.19 16.5 0 0 342.49 367.37
  Q 342.11 367.92 341.80 369.03
  A 1.88 1.86 -86.3 0 1 340.29 370.38
  L 339.03 370.57
  A 0.74 0.74 0.0 0 1 338.23 369.57
  L 344.30 354.76
  A 1.27 1.27 0.0 0 1 345.03 354.05
  Q 345.56 353.85 346.16 353.85
  Q 346.75 353.85 347.27 354.04
  A 1.27 1.27 0.0 0 1 348.01 354.75
  L 354.10 369.55
  A 0.74 0.74 0.0 0 1 353.31 370.56
  L 352.05 370.36
  A 1.88 1.86 86.2 0 1 350.53 369.02
  Q 350.22 367.91 349.84 367.36
  A 1.20 1.19 -16.6 0 0 348.86 366.83
  Q 347.53 366.82 346.17 366.82
  Z"
/>
<path fill="#919192" d="
  M 369.20 364.15
  L 369.20 354.85
  A 1.23 1.23 0.0 0 1 370.43 353.62
  L 371.07 353.62
  A 1.13 1.13 0.0 0 1 372.20 354.75
  L 372.20 369.69
  A 0.58 0.58 0.0 0 1 371.67 370.27
  Q 370.09 370.43 368.86 369.86
  A 0.90 0.87 83.1 0 1 368.47 369.54
  L 361.34 359.00
  A 0.25 0.24 -62.0 0 0 360.89 359.14
  L 360.89 369.39
  A 0.99 0.99 0.0 0 1 359.90 370.38
  L 358.85 370.38
  A 0.93 0.93 0.0 0 1 357.92 369.45
  L 357.92 354.46
  A 0.64 0.62 -3.7 0 1 358.48 353.84
  Q 361.14 353.51 361.93 354.76
  Q 365.74 360.71 368.58 364.36
  A 0.35 0.35 0.0 0 0 369.20 364.15
  Z"
/>
<path fill="#919192" d="
  M 379.87 362.28
  C 379.94 364.65 381.05 366.50 383.08 367.47
  C 384.93 368.36 386.71 367.45 388.77 366.60
  A 1.33 1.33 0.0 0 1 390.13 368.86
  Q 388.07 370.58 384.79 370.56
  C 379.69 370.52 376.99 367.18 376.85 362.36
  C 376.71 357.55 379.21 354.06 384.30 353.72
  Q 387.57 353.51 389.73 355.11
  A 1.33 1.33 0.0 0 1 388.50 357.44
  C 386.40 356.71 384.57 355.91 382.77 356.90
  C 380.80 357.99 379.80 359.90 379.87 362.28
  Z"
/>
<path fill="#919192" d="
  M 77.56 354.41
  A 0.56 0.56 0.0 0 1 78.12 353.86
  Q 83.58 353.92 85.76 354.16
  C 89.53 354.56 90.54 359.46 88.54 362.14
  C 86.97 364.26 83.26 364.09 80.79 364.06
  A 0.40 0.40 0.0 0 0 80.39 364.45
  L 80.38 369.37
  A 1.08 1.08 0.0 0 1 79.30 370.44
  L 78.52 370.44
  A 1.00 1.00 0.0 0 1 77.53 369.44
  L 77.56 354.41
  Z"
/>
<path fill="#919192" d="
  M 147.54 362.05
  Q 147.54 357.19 147.43 354.43
  A 0.38 0.38 0.0 0 1 147.81 354.03
  L 157.47 353.94
  A 0.98 0.98 0.0 0 1 158.45 354.90
  L 158.46 355.31
  A 1.13 1.12 89.4 0 1 157.34 356.46
  L 150.75 356.52
  A 0.60 0.59 -0.6 0 0 150.16 357.11
  L 150.18 360.13
  A 0.67 0.67 0.0 0 0 150.85 360.79
  Q 154.81 360.83 156.54 360.82
  Q 157.12 360.83 157.46 361.11
  Q 157.75 361.34 157.75 362.03
  Q 157.75 362.73 157.47 362.96
  Q 157.12 363.24 156.54 363.25
  Q 154.81 363.25 150.85 363.30
  A 0.67 0.67 0.0 0 0 150.19 363.97
  L 150.17 366.98
  A 0.60 0.59 0.4 0 0 150.76 367.57
  L 157.36 367.61
  A 1.13 1.12 -89.6 0 1 158.48 368.76
  L 158.47 369.16
  A 0.98 0.98 0.0 0 1 157.49 370.13
  L 147.83 370.07
  A 0.38 0.38 0.0 0 1 147.45 369.67
  Q 147.55 366.91 147.54 362.05
  Z"
/>
<path fill="#919192" d="
  M 185.13 354.05
  Q 188.16 354.06 190.58 354.05
  A 1.18 1.18 0.0 0 1 191.77 355.23
  L 191.77 355.59
  A 1.05 1.05 0.0 0 1 190.72 356.64
  L 187.26 356.64
  A 0.68 0.68 0.0 0 0 186.58 357.32
  L 186.61 369.62
  A 0.78 0.78 0.0 0 1 186.23 370.29
  Q 185.90 370.49 185.08 370.49
  Q 184.28 370.48 183.95 370.28
  A 0.78 0.78 0.0 0 1 183.58 369.61
  L 183.67 357.31
  A 0.68 0.68 0.0 0 0 182.99 356.63
  L 179.53 356.61
  A 1.05 1.05 0.0 0 1 178.48 355.56
  L 178.49 355.20
  A 1.18 1.18 0.0 0 1 179.68 354.03
  Q 182.10 354.05 185.13 354.05
  Z"
/>
<path fill="#919192" d="
  M 294.03 370.40
  Q 293.23 370.40 292.90 370.19
  A 0.77 0.77 0.0 0 1 292.53 369.53
  L 292.60 357.29
  A 0.68 0.68 0.0 0 0 291.93 356.61
  L 288.48 356.59
  A 1.05 1.05 0.0 0 1 287.44 355.55
  L 287.44 355.19
  A 1.18 1.17 0.2 0 1 288.63 354.02
  Q 291.04 354.04 294.06 354.04
  Q 297.07 354.04 299.48 354.03
  A 1.18 1.17 -0.1 0 1 300.67 355.20
  L 300.67 355.56
  A 1.05 1.05 0.0 0 1 299.62 356.61
  L 296.18 356.61
  A 0.68 0.68 0.0 0 0 295.50 357.29
  L 295.55 369.53
  A 0.77 0.77 0.0 0 1 295.17 370.20
  Q 294.84 370.40 294.03 370.40
  Z"
/>
<path fill="#919192" d="
  M 395.03 362.09
  Q 395.04 357.22 394.93 354.45
  A 0.39 0.38 -1.4 0 1 395.32 354.05
  L 405.01 353.98
  A 0.98 0.98 0.0 0 1 405.99 354.95
  L 405.99 355.36
  A 1.14 1.13 89.6 0 1 404.87 356.51
  L 398.26 356.55
  A 0.60 0.59 -0.4 0 0 397.66 357.15
  L 397.69 360.17
  A 0.67 0.67 0.0 0 0 398.35 360.83
  Q 402.32 360.89 404.06 360.88
  Q 404.64 360.89 404.98 361.17
  Q 405.27 361.40 405.27 362.10
  Q 405.27 362.80 404.98 363.03
  Q 404.64 363.31 404.06 363.32
  Q 402.32 363.31 398.35 363.36
  A 0.67 0.67 0.0 0 0 397.68 364.02
  L 397.66 367.04
  A 0.60 0.59 0.5 0 0 398.25 367.64
  L 404.87 367.70
  A 1.14 1.13 -89.5 0 1 405.98 368.84
  L 405.98 369.25
  A 0.98 0.98 0.0 0 1 404.99 370.22
  L 395.30 370.14
  A 0.39 0.38 1.5 0 1 394.92 369.74
  Q 395.03 366.96 395.03 362.09
  Z"
/>
<path fill="#ffffff" d="
  M 80.42 357.56
  A 1.01 1.01 0.0 0 1 81.42 356.54
  L 83.62 356.53
  A 2.83 2.15 -0.4 0 1 86.47 358.66
  L 86.47 359.24
  A 2.83 2.15 -0.4 0 1 83.66 361.41
  L 81.46 361.42
  A 1.01 1.01 0.0 0 1 80.44 360.42
  L 80.42 357.56
  Z"
/>
<path fill="#ffffff" d="
  M 96.87 357.36
  A 0.76 0.76 0.0 0 1 97.64 356.61
  L 100.51 356.64
  A 2.37 2.23 0.5 0 1 102.86 358.89
  L 102.86 359.19
  A 2.37 2.23 0.5 0 1 100.47 361.40
  L 97.60 361.37
  A 0.76 0.76 0.0 0 1 96.85 360.60
  L 96.87 357.36
  Z"
/>
<ellipse fill="#ffffff" cx="0.00" cy="0.00" transform="translate(118.50,362.10) rotate(-93.8)" rx="5.75" ry="5.28"/>
<path fill="#ffffff" d="
  M 134.21 356.90
  A 0.29 0.29 0.0 0 1 134.49 356.60
  L 136.99 356.54
  A 3.09 2.13 -1.3 0 1 140.13 358.60
  L 140.15 359.54
  A 3.09 2.13 -1.3 0 1 137.11 361.74
  L 134.61 361.80
  A 0.29 0.29 0.0 0 1 134.31 361.52
  L 134.21 356.90
  Z"
/>
<path fill="#ffffff" d="
  M 166.10 357.04
  A 0.57 0.57 0.0 0 1 166.67 356.48
  L 169.78 356.53
  A 2.92 2.25 0.8 0 1 172.67 358.82
  L 172.67 359.22
  A 2.92 2.25 0.8 0 1 169.72 361.43
  L 166.61 361.38
  A 0.57 0.57 0.0 0 1 166.04 360.80
  L 166.10 357.04
  Z"
/>
<path fill="#ffffff" d="
  M 249.41 364.10
  Q 247.92 364.12 247.59 364.10
  A 0.48 0.48 0.0 0 1 247.20 363.39
  Q 247.81 362.20 249.15 358.42
  Q 249.17 358.36 249.35 358.36
  Q 249.51 358.35 249.53 358.41
  Q 250.96 362.16 251.61 363.34
  A 0.48 0.48 0.0 0 1 251.23 364.05
  Q 250.90 364.09 249.41 364.10
  Z"
/>
<path fill="#ffffff" d="
  M 346.09 358.38
  Q 346.25 358.38 346.27 358.44
  Q 347.70 362.20 348.35 363.38
  A 0.49 0.48 -17.6 0 1 347.97 364.10
  Q 347.64 364.13 346.15 364.15
  Q 344.65 364.17 344.31 364.14
  A 0.49 0.48 16.2 0 1 343.92 363.43
  Q 344.54 362.24 345.89 358.44
  Q 345.91 358.38 346.09 358.38
  Z"
/>
<path fill="#98c54c" d="
  M 382.60 410.74
  Q 372.34 408.46 362.03 408.86
  C 370.21 406.70 368.72 394.99 359.09 396.47
  A 0.97 0.96 85.7 0 1 357.98 395.51
  L 357.98 395.02
  A 1.43 1.42 0.0 0 1 359.41 393.60
  L 364.76 393.60
  A 1.49 1.48 -90.0 0 0 366.24 392.11
  L 366.24 391.63
  A 1.56 1.56 0.0 0 0 364.68 390.07
  L 355.58 390.07
  A 0.66 0.66 0.0 0 0 354.93 390.62
  L 353.66 398.83
  A 1.39 1.38 -1.0 0 0 355.29 400.40
  Q 357.82 399.91 358.30 399.79
  C 365.12 398.07 363.80 408.00 357.76 404.88
  Q 355.91 403.92 355.53 403.73
  A 0.78 0.77 -58.1 0 0 354.53 403.97
  L 353.36 405.59
  A 0.94 0.94 0.0 0 0 353.57 406.90
  L 354.98 407.92
  L 348.29 407.79
  Q 353.00 402.77 347.82 398.96
  A 0.36 0.36 0.0 0 1 347.81 398.39
  Q 350.89 396.00 348.89 392.22
  C 347.44 389.50 342.55 389.42 340.12 390.09
  Q 336.44 391.11 336.05 395.50
  Q 335.95 396.56 337.58 398.65
  A 0.34 0.33 -41.6 0 1 337.55 399.09
  Q 332.97 403.63 337.68 407.67
  L 329.56 407.97
  Q 334.90 403.76 331.21 398.23
  A 1.84 1.81 -0.5 0 0 330.65 397.69
  Q 326.72 395.30 323.02 397.07
  A 0.53 0.53 0.0 0 1 322.28 396.46
  C 323.30 392.64 326.15 393.05 329.16 393.99
  A 1.40 1.39 26.1 0 0 330.70 393.47
  L 331.38 392.53
  A 1.01 1.01 0.0 0 0 331.01 391.03
  C 325.22 388.12 319.97 390.12 318.06 396.44
  Q 316.33 402.18 320.07 407.22
  L 308.24 408.45
  Q 312.62 399.42 313.96 396.20
  Q 314.91 393.92 315.01 390.68
  A 0.57 0.56 1.0 0 0 314.44 390.10
  L 302.94 390.10
  A 1.53 1.53 0.0 0 0 301.41 391.63
  L 301.41 392.40
  A 1.32 1.32 0.0 0 0 302.73 393.72
  L 309.59 393.72
  A 0.60 0.60 0.0 0 1 310.14 394.57
  L 303.95 408.44
  L 296.32 407.96
  Q 301.57 403.31 296.31 398.95
  A 0.36 0.36 0.0 0 1 296.36 398.36
  Q 298.65 397.08 298.01 394.04
  C 297.09 389.69 292.04 389.22 288.60 390.15
  C 284.75 391.18 283.33 395.41 285.93 398.35
  A 0.76 0.75 45.9 0 1 285.92 399.37
  L 284.57 400.81
  A 1.75 1.72 -18.9 0 0 284.14 401.67
  Q 283.33 406.25 287.50 408.22
  L 279.79 408.59
  L 279.90 390.69
  A 0.65 0.65 0.0 0 0 279.30 390.03
  Q 276.31 389.77 272.98 391.55
  Q 271.53 392.32 271.60 393.10
  Q 271.67 393.88 272.63 395.13
  A 0.75 0.74 -34.5 0 0 273.62 395.31
  L 274.99 394.46
  A 0.69 0.69 0.0 0 1 276.04 395.05
  L 275.99 400.98
  L 261.58 402.80
  C 261.45 397.69 255.67 394.13 251.50 397.32
  A 0.44 0.44 0.0 0 1 250.83 396.80
  Q 252.52 392.93 256.24 393.50
  Q 257.31 393.67 258.43 393.82
  A 1.04 1.04 0.0 0 0 259.41 393.39
  L 260.39 392.02
  A 0.69 0.69 0.0 0 0 260.14 391.00
  C 248.74 385.48 243.32 398.68 248.27 406.97
  Q 243.76 406.24 240.93 408.65
  L 241.35 405.18
  A 0.81 0.81 0.0 0 1 242.15 404.47
  L 243.35 404.47
  A 0.69 0.69 0.0 0 0 244.04 403.78
  L 244.04 402.54
  A 0.96 0.96 0.0 0 0 243.00 401.58
  Q 242.08 401.67 241.21 401.24
  A 0.36 0.33 14.9 0 1 241.02 400.94
  L 241.02 390.60
  A 0.63 0.63 0.0 0 0 240.39 389.97
  L 236.61 389.97
  A 1.11 1.10 -72.3 0 0 235.71 390.44
  L 231.83 395.99
  L 226.05 393.84
  L 226.05 390.69
  A 0.61 0.60 0.0 0 0 225.44 390.09
  L 213.54 390.09
  A 0.79 0.79 0.0 0 0 212.76 390.75
  L 212.45 392.79
  A 0.77 0.77 0.0 0 0 213.21 393.68
  L 220.44 393.68
  A 0.70 0.70 0.0 0 1 221.08 394.66
  L 215.08 408.63
  L 202.75 408.79
  Q 206.98 401.86 210.25 393.25
  Q 210.43 392.75 210.17 390.64
  A 0.64 0.63 86.4 0 0 209.54 390.08
  L 197.55 390.08
  A 1.24 1.23 -87.5 0 0 196.32 391.21
  Q 196.14 393.48 197.54 393.77
  Q 195.53 394.27 193.66 395.56
  Q 192.34 389.88 186.50 389.87
  Q 178.86 389.85 178.57 398.09
  Q 173.04 397.13 167.57 397.81
  C 166.95 395.49 163.90 394.14 162.55 396.75
  L 159.22 394.77
  L 159.24 390.55
  A 0.74 0.74 0.0 0 0 158.50 389.80
  L 155.95 389.80
  A 0.77 0.77 0.0 0 0 155.18 390.57
  L 155.22 408.49
  L 151.62 408.47
  L 151.75 390.57
  A 0.78 0.78 0.0 0 0 150.97 389.78
  L 148.55 389.78
  A 0.79 0.79 0.0 0 0 147.76 390.56
  L 147.64 408.34
  Q 146.26 408.09 144.70 408.40
  Q 145.05 404.26 144.83 400.19
  Q 144.58 395.73 140.49 394.79
  Q 135.91 393.74 133.24 396.83
  Q 131.28 395.51 129.25 394.97
  L 130.46 393.31
  A 1.26 1.25 33.1 0 0 130.07 391.49
  Q 124.96 388.55 120.04 390.48
  C 113.31 393.12 113.17 401.98 117.44 406.72
  Q 106.68 406.29 95.89 408.02
  C 90.40 398.67 95.38 386.77 104.82 382.95
  Q 108.63 381.40 116.87 381.31
  Q 122.01 381.24 142.50 381.29
  Q 193.90 381.41 362.61 381.28
  Q 371.23 381.27 374.76 382.55
  Q 380.68 384.69 383.89 390.35
  Q 389.72 400.65 382.60 410.74
  Z"
/>
<path fill="#fcfef2" d="
  M 129.25 394.97
  Q 121.06 391.56 119.16 397.15
  C 117.25 402.72 123.12 407.49 128.30 404.04
  A 1.07 1.07 0.0 0 1 129.88 404.53
  L 130.55 406.16
  A 1.31 1.31 0.0 0 1 129.88 407.85
  Q 123.43 410.83 117.44 406.72
  C 113.17 401.98 113.31 393.12 120.04 390.48
  Q 124.96 388.55 130.07 391.49
  A 1.26 1.25 33.1 0 1 130.46 393.31
  L 129.25 394.97
  Z"
/>
<path fill="#ffffff" d="
  M 151.62 408.47
  Q 149.29 409.37 147.64 408.34
  L 147.76 390.56
  A 0.79 0.79 0.0 0 1 148.55 389.78
  L 150.97 389.78
  A 0.78 0.78 0.0 0 1 151.75 390.57
  L 151.62 408.47
  Z"
/>
<path fill="#ffffff" d="
  M 159.22 394.77
  L 159.13 407.93
  A 0.69 0.69 0.0 0 1 158.64 408.59
  Q 156.91 409.13 155.22 408.49
  L 155.18 390.57
  A 0.77 0.77 0.0 0 1 155.95 389.80
  L 158.50 389.80
  A 0.74 0.74 0.0 0 1 159.24 390.55
  L 159.22 394.77
  Z"
/>
<path fill="#fcfef2" d="
  M 261.58 402.80
  C 260.38 409.53 252.97 410.59 248.27 406.97
  C 243.32 398.68 248.74 385.48 260.14 391.00
  A 0.69 0.69 0.0 0 1 260.39 392.02
  L 259.41 393.39
  A 1.04 1.04 0.0 0 1 258.43 393.82
  Q 257.31 393.67 256.24 393.50
  Q 252.52 392.93 250.83 396.80
  A 0.44 0.44 0.0 0 0 251.50 397.32
  C 255.67 394.13 261.45 397.69 261.58 402.80
  Z"
/>
<path fill="#fcfef2" d="
  M 296.32 407.96
  Q 291.72 409.81 287.50 408.22
  Q 283.33 406.25 284.14 401.67
  A 1.75 1.72 -18.9 0 1 284.57 400.81
  L 285.92 399.37
  A 0.76 0.75 45.9 0 0 285.93 398.35
  C 283.33 395.41 284.75 391.18 288.60 390.15
  C 292.04 389.22 297.09 389.69 298.01 394.04
  Q 298.65 397.08 296.36 398.36
  A 0.36 0.36 0.0 0 0 296.31 398.95
  Q 301.57 403.31 296.32 407.96
  Z"
/>
<path fill="#fcfef2" d="
  M 329.56 407.97
  Q 324.28 410.47 320.07 407.22
  Q 316.33 402.18 318.06 396.44
  C 319.97 390.12 325.22 388.12 331.01 391.03
  A 1.01 1.01 0.0 0 1 331.38 392.53
  L 330.70 393.47
  A 1.40 1.39 26.1 0 1 329.16 393.99
  C 326.15 393.05 323.30 392.64 322.28 396.46
  A 0.53 0.53 0.0 0 0 323.02 397.07
  Q 326.72 395.30 330.65 397.69
  A 1.84 1.81 -0.5 0 1 331.21 398.23
  Q 334.90 403.76 329.56 407.97
  Z"
/>
<path fill="#fcfef2" d="
  M 348.29 407.79
  Q 342.99 410.24 337.68 407.67
  Q 332.97 403.63 337.55 399.09
  A 0.34 0.33 -41.6 0 0 337.58 398.65
  Q 335.95 396.56 336.05 395.50
  Q 336.44 391.11 340.12 390.09
  C 342.55 389.42 347.44 389.50 348.89 392.22
  Q 350.89 396.00 347.81 398.39
  A 0.36 0.36 0.0 0 0 347.82 398.96
  Q 353.00 402.77 348.29 407.79
  Z"
/>
<path fill="#fcfef2" d="
  M 193.66 395.56
  C 195.39 402.26 193.06 410.76 184.03 408.64
  C 179.33 407.54 178.10 402.37 178.57 398.09
  Q 178.86 389.85 186.50 389.87
  Q 192.34 389.88 193.66 395.56
  Z"
/>
<path fill="#fcfef2" d="
  M 202.75 408.79
  L 199.96 408.57
  A 0.75 0.74 14.3 0 1 199.34 407.53
  L 205.03 394.77
  A 0.66 0.65 -77.8 0 0 204.44 393.85
  L 197.54 393.77
  Q 196.14 393.48 196.32 391.21
  A 1.24 1.23 -87.5 0 1 197.55 390.08
  L 209.54 390.08
  A 0.64 0.63 86.4 0 1 210.17 390.64
  Q 210.43 392.75 210.25 393.25
  Q 206.98 401.86 202.75 408.79
  Z"
/>
<path fill="#fcfef2" d="
  M 226.05 393.84
  L 219.54 407.99
  A 0.86 0.86 0.0 0 1 218.79 408.49
  L 215.08 408.63
  L 221.08 394.66
  A 0.70 0.70 0.0 0 0 220.44 393.68
  L 213.21 393.68
  A 0.77 0.77 0.0 0 1 212.45 392.79
  L 212.76 390.75
  A 0.79 0.79 0.0 0 1 213.54 390.09
  L 225.44 390.09
  A 0.61 0.60 0.0 0 1 226.05 390.69
  L 226.05 393.84
  Z"
/>
<path fill="#fcfef2" d="
  M 240.93 408.65
  Q 238.97 408.94 237.72 408.35
  A 0.96 0.96 0.0 0 1 237.17 407.48
  L 237.17 405.29
  A 0.61 0.60 90.0 0 0 236.57 404.68
  L 228.71 404.68
  A 0.84 0.84 0.0 0 1 227.92 404.13
  C 227.01 401.60 229.79 398.53 231.83 395.99
  L 235.71 390.44
  A 1.11 1.10 -72.3 0 1 236.61 389.97
  L 240.39 389.97
  A 0.63 0.63 0.0 0 1 241.02 390.60
  L 241.02 400.94
  A 0.36 0.33 14.9 0 0 241.21 401.24
  Q 242.08 401.67 243.00 401.58
  A 0.96 0.96 0.0 0 1 244.04 402.54
  L 244.04 403.78
  A 0.69 0.69 0.0 0 1 243.35 404.47
  L 242.15 404.47
  A 0.81 0.81 0.0 0 0 241.35 405.18
  L 240.93 408.65
  Z"
/>
<path fill="#fcfef2" d="
  M 279.79 408.59
  Q 277.62 408.89 276.64 408.36
  A 0.92 0.91 13.6 0 1 276.17 407.60
  L 275.99 400.98
  L 276.04 395.05
  A 0.69 0.69 0.0 0 0 274.99 394.46
  L 273.62 395.31
  A 0.75 0.74 -34.5 0 1 272.63 395.13
  Q 271.67 393.88 271.60 393.10
  Q 271.53 392.32 272.98 391.55
  Q 276.31 389.77 279.30 390.03
  A 0.65 0.65 0.0 0 1 279.90 390.69
  L 279.79 408.59
  Z"
/>
<path fill="#fcfef2" d="
  M 308.24 408.45
  Q 305.80 409.11 303.95 408.44
  L 310.14 394.57
  A 0.60 0.60 0.0 0 0 309.59 393.72
  L 302.73 393.72
  A 1.32 1.32 0.0 0 1 301.41 392.40
  L 301.41 391.63
  A 1.53 1.53 0.0 0 1 302.94 390.10
  L 314.44 390.10
  A 0.57 0.56 1.0 0 1 315.01 390.68
  Q 314.91 393.92 313.96 396.20
  Q 312.62 399.42 308.24 408.45
  Z"
/>
<path fill="#fcfef2" d="
  M 362.03 408.86
  Q 358.05 409.58 354.98 407.92
  L 353.57 406.90
  A 0.94 0.94 0.0 0 1 353.36 405.59
  L 354.53 403.97
  A 0.78 0.77 -58.1 0 1 355.53 403.73
  Q 355.91 403.92 357.76 404.88
  C 363.80 408.00 365.12 398.07 358.30 399.79
  Q 357.82 399.91 355.29 400.40
  A 1.39 1.38 -1.0 0 1 353.66 398.83
  L 354.93 390.62
  A 0.66 0.66 0.0 0 1 355.58 390.07
  L 364.68 390.07
  A 1.56 1.56 0.0 0 1 366.24 391.63
  L 366.24 392.11
  A 1.49 1.48 90.0 0 1 364.76 393.60
  L 359.41 393.60
  A 1.43 1.42 0.0 0 0 357.98 395.02
  L 357.98 395.51
  A 0.97 0.96 85.7 0 0 359.09 396.47
  C 368.72 394.99 370.21 406.70 362.03 408.86
  Z"
/>
<ellipse fill="#98c54c" cx="0.00" cy="0.00" transform="translate(291.39,395.21) rotate(-163.8)" rx="2.65" ry="2.17"/>
<ellipse fill="#98c54c" cx="0.00" cy="0.00" transform="translate(342.93,395.20) rotate(-168.2)" rx="2.75" ry="2.23"/>
<ellipse fill="#98c54c" cx="0.00" cy="0.00" transform="translate(186.21,399.38) rotate(-92.2)" rx="6.03" ry="3.55"/>
<path fill="#61a23a" d="
  M 129.25 394.97
  Q 131.28 395.51 133.24 396.83
  Q 134.03 398.25 134.93 398.69
  A 1.19 1.16 -41.8 0 0 135.88 398.73
  Q 138.53 397.72 140.51 399.22
  A 0.52 0.52 0.0 0 1 140.12 400.15
  C 135.99 399.52 130.77 401.41 132.87 406.83
  Q 133.40 408.18 136.17 409.09
  Q 136.66 409.25 139.46 408.40
  C 141.38 407.82 142.17 409.14 143.74 408.87
  Q 144.38 408.76 144.70 408.40
  Q 146.26 408.09 147.64 408.34
  Q 149.29 409.37 151.62 408.47
  L 155.22 408.49
  Q 156.91 409.13 158.64 408.59
  A 0.69 0.69 0.0 0 0 159.13 407.93
  L 159.22 394.77
  L 162.55 396.75
  C 161.75 400.76 167.14 401.40 167.57 397.81
  Q 173.04 397.13 178.57 398.09
  C 178.10 402.37 179.33 407.54 184.03 408.64
  C 193.06 410.76 195.39 402.26 193.66 395.56
  Q 195.53 394.27 197.54 393.77
  L 204.44 393.85
  A 0.66 0.65 -77.8 0 1 205.03 394.77
  L 199.34 407.53
  A 0.75 0.74 14.3 0 0 199.96 408.57
  L 202.75 408.79
  L 215.08 408.63
  L 218.79 408.49
  A 0.86 0.86 0.0 0 0 219.54 407.99
  L 226.05 393.84
  L 231.83 395.99
  C 229.79 398.53 227.01 401.60 227.92 404.13
  A 0.84 0.84 0.0 0 0 228.71 404.68
  L 236.57 404.68
  A 0.61 0.60 -90.0 0 1 237.17 405.29
  L 237.17 407.48
  A 0.96 0.96 0.0 0 0 237.72 408.35
  Q 238.97 408.94 240.93 408.65
  Q 243.76 406.24 248.27 406.97
  C 252.97 410.59 260.38 409.53 261.58 402.80
  L 275.99 400.98
  L 276.17 407.60
  A 0.92 0.91 13.6 0 0 276.64 408.36
  Q 277.62 408.89 279.79 408.59
  L 287.50 408.22
  Q 291.72 409.81 296.32 407.96
  L 303.95 408.44
  Q 305.80 409.11 308.24 408.45
  L 320.07 407.22
  Q 324.28 410.47 329.56 407.97
  L 337.68 407.67
  Q 342.99 410.24 348.29 407.79
  L 354.98 407.92
  Q 358.05 409.58 362.03 408.86
  Q 372.34 408.46 382.60 410.74
  C 376.07 418.47 368.25 417.87 358.50 417.86
  Q 240.22 417.68 121.93 417.87
  Q 109.94 417.89 107.15 417.11
  Q 99.99 415.13 95.89 408.02
  Q 106.68 406.29 117.44 406.72
  Q 123.43 410.83 129.88 407.85
  A 1.31 1.31 0.0 0 0 130.55 406.16
  L 129.88 404.53
  A 1.07 1.07 0.0 0 0 128.30 404.04
  C 123.12 407.49 117.25 402.72 119.16 397.15
  Q 121.06 391.56 129.25 394.97
  Z"
/>
<path fill="#fcfef2" d="
  M 144.70 408.40
  Q 144.38 408.76 143.74 408.87
  C 142.17 409.14 141.38 407.82 139.46 408.40
  Q 136.66 409.25 136.17 409.09
  Q 133.40 408.18 132.87 406.83
  C 130.77 401.41 135.99 399.52 140.12 400.15
  A 0.52 0.52 0.0 0 0 140.51 399.22
  Q 138.53 397.72 135.88 398.73
  A 1.19 1.16 -41.8 0 1 134.93 398.69
  Q 134.03 398.25 133.24 396.83
  Q 135.91 393.74 140.49 394.79
  Q 144.58 395.73 144.83 400.19
  Q 145.05 404.26 144.70 408.40
  Z"
/>
<path fill="#fcfef2" d="
  M 167.57 397.81
  C 167.14 401.40 161.75 400.76 162.55 396.75
  C 163.90 394.14 166.95 395.49 167.57 397.81
  Z"
/>
<path fill="#98c54c" d="
  M 237.00 396.19
  L 237.00 400.58
  A 0.74 0.73 -0.0 0 1 236.26 401.31
  L 233.50 401.31
  A 0.67 0.67 0.0 0 1 232.95 400.25
  L 236.09 395.90
  A 0.50 0.50 0.0 0 1 237.00 396.19
  Z"
/>
<ellipse fill="#85b941" cx="0.00" cy="0.00" transform="translate(254.10,402.60) rotate(-170.3)" rx="3.31" ry="2.86"/>
<ellipse fill="#75ae3f" cx="0.00" cy="0.00" transform="translate(325.25,402.53) rotate(-174.4)" rx="3.18" ry="2.80"/>
<ellipse fill="#75ae3f" cx="0.00" cy="0.00" transform="translate(291.38,403.01) rotate(-175.3)" rx="3.28" ry="2.58"/>
<ellipse fill="#85b941" cx="0.00" cy="0.00" transform="translate(342.89,403.02) rotate(-176.5)" rx="3.20" ry="2.54"/>
<ellipse fill="#75ae3f" cx="0.00" cy="0.00" transform="translate(138.55,404.36) rotate(-12.6)" rx="2.35" ry="1.40"/>
<circle fill="#fcfef2" cx="164.91" cy="406.44" r="2.46"/>
</svg>
